<?xml version="1.0" encoding="utf-8"?>
<!-- Generator: Adobe Illustrator 30.5.1, SVG Export Plug-In . SVG Version: 9.03 Build 0)  -->
<!DOCTYPE svg PUBLIC "-//W3C//DTD SVG 1.1//EN" "http://www.w3.org/Graphics/SVG/1.1/DTD/svg11.dtd" [
	<!ENTITY st0 "fill:#C81812;">
	<!ENTITY st1 "fill:#CE1E16;">
	<!ENTITY st2 "fill:#B32624;">
	<!ENTITY st3 "fill:#AF1918;">
	<!ENTITY st4 "fill:#A91212;">
	<!ENTITY st5 "fill:#A81717;">
	<!ENTITY st6 "fill:#AD1413;">
	<!ENTITY st7 "fill:#A51211;">
	<!ENTITY st8 "fill:#A70E0D;">
	<!ENTITY st9 "fill:#AA1413;">
	<!ENTITY st10 "fill:#CD211A;">
	<!ENTITY st11 "fill:#CA1913;">
	<!ENTITY st12 "fill:#CD1E16;">
	<!ENTITY st13 "fill:#CD1D16;">
	<!ENTITY st14 "fill:#CF1F16;">
	<!ENTITY st15 "fill:#CA1812;">
	<!ENTITY st16 "fill:#CE1710;">
	<!ENTITY st17 "fill:#CB1812;">
	<!ENTITY st18 "fill:#CB1B14;">
	<!ENTITY st19 "fill:#CD1A12;">
	<!ENTITY st20 "fill:#B22E2D;">
	<!ENTITY st21 "fill:#BA2A29;">
	<!ENTITY st22 "fill:#BD2F2F;">
	<!ENTITY st23 "fill:#B22122;">
	<!ENTITY st24 "fill:#CC1812;">
	<!ENTITY st25 "fill:#CE1912;">
	<!ENTITY st26 "fill:#CB1610;">
]>
<svg version="1.1" id="Layer_1" xmlns="http://www.w3.org/2000/svg" xmlns:xlink="http://www.w3.org/1999/xlink" x="0px" y="0px"
	 viewBox="0 0 1255 1255" style="enable-background:new 0 0 1255 1255;" xml:space="preserve">
<g>
	<g>
		<path style="&st0;" d="M2144.021,24.162l10.774,1.884l21.568,3.549l32.61,7.53l11.045,2.789l12.403,3.46l20.365,6.687
			l33.444,12.652l6.881,3.107l41.512,20.504l5.82,2.805l27.218,16.261c27.109,16.196,52.522,37.197,76.914,55.277l5.305,5.596
			c0.558,0.588,2.203,1.545,2.933,1.966l3.47,4.594l20.349,20.313c0.729,0.727,2.827,1.874,3.207,2.037l6.155,7.539l19.636,21.85
			l7.181,8.668l26.451,35.617c16.435,23.977,30.807,48.737,44.015,74.19l-6.256,4.69c0.991,2.543,2.923,5.916,4.71,6.342
			l3.848,0.917c0.978,0.233,1.935,2.847,1.47,3.724c-0.761,1.438-2.074,3.6-2.232,4.772c-0.47,3.49,6.289,6.249,7.045,14.481
			c0.509,5.55,4.096,7.831,7.949,11.577c1.652,1.606-1.912,5.484-3.924,6.281c-2.462,0.976-4.597,1.269-6.522,0.332
			c-1.42-0.691-1.762-4.872-0.799-6.299c3.256-4.824-0.306-11.386-3.663-12.569c-0.964-0.34-4.007,1.429-4.342,0.648
			c-2.145-5.012,4.691-9.538,1.782-14.439c-1.062-1.79-4.857-3.929-6.704-5.18l-5.715-12.788l-6.635-1.982
			c-0.256,0.027-1.574,0.169-1.81,0.831l-15.462-27.367l-4.259-7.173l-7.566-12.023l-18.401-26.332l-6.058-8.237l-12.891-15.995
			l-3.663-4.417l-5.773-7.175l-6.973-7.901l-22.053-22.131l-6.479-6.522l-9.344-9.749l-10.107-9.717l-14.252-12.248
			c-3.254-2.796-6.863-5.364-10.442-6.591c-0.133-1.125-1.163-2.927-2.654-4.041c-32.351-24.155-66.106-45.492-102.636-62.971
			l-20.129-8.994l-18.519-7.475l-26.297-9.809c-32.38-10.131-64.613-18.718-98.366-22.346l-19.141-2.058l-16.338-1.767
			l-66.582-0.087l-12.081,0.986l-11.972,1.042l-18.724,2.246l-13.947,2.16c-40.87,6.33-80.147,17.544-118.624,33.12l-9.474,3.835
			l-11.477,5.29l-12.34,5.711c-39.151,18.119-75.051,42.044-108.442,69.129l-10.114,8.204c-22.672,18.39-42.836,38.883-61.969,60.83
			c-1.48,1.698-2.806,2.795-4.277,3.583c-8.541-1.672-15.285-6.659-13.819-14.608l11.816-13.199
			c18.386-20.538,37.898-39.279,59.254-56.601l6.226-5.626l9.131-6.971l11.47-8.603l30.725-21.359l24.128-14.728l18.103-9.968
			l25.681-13.159l6.779-2.972c26.443-11.592,53.003-22.926,81.468-29.828l22.603-5.48l33.761-7.148l7.933-1.013l9.908-1.692
			l12.189-1.61l21.043-1.971c22.394-2.098,44.312-2.651,66.704-1.596l6.994,0.329l22.971,1.568L2144.021,24.162z"/>
		<path style="&st1;" d="M2583.277,343.036l2.687,5.734l6.163,10.319c0.01,0.041-0.149,0.376-0.247,0.593l1.875,5.606l0.822,2.462
			c0.123,0.368,1.807,0.124,1.749,0.098l0.234,0.473c0.024-0.047-0.45,1.613-0.605,2.153c-0.127,0.441,1.548,0.049,1.666-0.008
			l0.449,0.319l-0.144,1.341l-0.662,0.573c0.358,1.336,1.453,3.662,2.775,4.544c0,0.079-0.257,0.365-0.343,0.479
			c0.735,3.242,2.185,7.03,4.908,9.497l-0.675,0.519l2.046,7.467c0.129,0.472,0.248,1.67,0.656,1.689l1.421-0.022l0.556,0.41
			l-0.317,1.953c-0.006,0.455,0.593,0.917,1.194,1.037l-0.114,0.486c-0.036,2.876-0.625,4.438-3.969,4.525
			c-3.949,0.103-4.371-7.229-5.849-5.308c-0.342,0.444-0.976,1.623-1.091,2.283l-2.081,11.979l9.119,2.87l2.183-6.824
			c0.41-1.284,3.384-2.104,5.251-2.27l-0.562,0.646l-0.351,1.837c-0.068,0.354,0.998,0.461,1.33,0.295l0.534,0.875
			c-0.682,0.689-0.475,3.42-0.031,4.692c2.303,6.611,4.046,13.886,7.096,19.291c0.172,1.774,0.565,4.341,1.203,6.397
			c7.876,25.356,13.901,50.565,17.921,76.846l3.38,22.091c-1.699,0.365-2.319,2.165-2.719,5.41l-10.247,1.874
			c-7.438-11.575-0.767-16.611-0.726-20.49c0.014-1.287-2.146-3.048-3.662-3.987c-5.241-3.25-1.651-7.457-5.565-7.643
			l-14.959-61.955l-6.123-19.746l-9.829-26.608l-1.382-5.073c-7.932-20.236-16.31-39.887-26.764-58.39
			c0.236-0.663,1.555-0.804,1.81-0.831l6.635,1.982l5.715,12.788c1.847,1.251,5.641,3.39,6.704,5.18
			c2.91,4.901-3.926,9.427-1.782,14.439c0.334,0.781,3.377-0.988,4.342-0.648c3.357,1.183,6.918,7.745,3.663,12.569
			c-0.963,1.427-0.621,5.607,0.799,6.299c1.925,0.937,4.06,0.644,6.522-0.332c2.011-0.797,5.576-4.675,3.924-6.281
			c-3.854-3.746-7.44-6.027-7.949-11.577c-0.756-8.233-7.515-10.991-7.045-14.481c0.158-1.172,1.471-3.334,2.232-4.772
			c0.464-0.877-0.492-3.491-1.47-3.724l-3.848-0.917c-1.787-0.426-3.719-3.798-4.71-6.342L2583.277,343.036z"/>
		<path style="&st0;" d="M2405.063,1112.844l1.35,0.064l-4.218,4.137l-12.618,8.739c-26.292,18.209-53.635,34.723-83.061,47.457
			l-25.967,11.237l-35.507,12.907l-1.135-0.145l1.191-1.909l32.483-11.95c-6.165-3.455-1.01-7.017-5.57-11.196
			c-0.501-0.459-1.639-1.544-1.305-1.776l2.175-1.51c0.333-0.231,1.657-0.576,1.722-0.954l-0.003-2.229l2.357-1.047
			c0.177,1.064,2.95,1.215,3.946,0.811c1.372-0.556,3.034-2.321,2.886-3.871l24.414-11.52c19.433-9.17,37.444-20.023,54.952-31.776
			l8.92-5.989l0.863-1.489l1.218,0.755l11.232,6.956c0.201,2.173,2.273,6.147,3.674,5.211l6.336-4.234
			c0.232-0.004,2.45-1.175,2.612-1.934c1.482-6.957-11.094-14.747-7.171-15.213l4.733-0.562l3.884,8.589
			c0.467,1.032,1.012,4.339,1.952,3.952L2405.063,1112.844z"/>
		<path style="&st2;" d="M2543.156,973.157l-1.064-1.755c28.016-40.016,50.144-84.114,67.972-130.361
			c17.06-44.253,28.11-89.859,34.156-136.693l1.085-8.403l3.225-40.425l0.165-58.42l-0.676-11.118l-1.039-13.173l-0.876-8.666
			l-2.649-23.159l-3.38-22.091c-4.021-26.281-10.045-51.49-17.921-76.846c-0.639-2.056-1.031-4.623-1.203-6.397
			c1.366,2.421,2.917,4.606,3.858,7.713c11.296,37.31,18.839,74.996,22.703,113.855l1.269,12.762l0.926,10.063l1.024,13.891
			l-0.287,65.793c-1.863,32.498-6.312,64.037-12.929,95.642l-2.626,10.503l-1.406,6.138
			C2617.64,841.138,2583.492,915.506,2543.156,973.157z"/>
		<path style="&st3;" d="M2186.293,1211.541l3.639-0.926l1.098,1.549c-25.928,6.191-52.319,10.832-79.4,12.361l-18.159,1.025
			l-49.475,0.108l-17.065-0.904l-14.685-1.188c-27.373-2.214-53.264-7.312-80.134-13.827
			c-64.597-15.662-125.474-42.81-180.452-79.316l1.779-0.871l17.338,10.872c45.43,28.487,94.104,50.407,146.131,63.484l33.6,8.445
			l11.75,2.273l8.813,1.833l16.039,2.292l11.931,1.764l14.944,1.288l9.064,0.834l22.938,1.314l9.119,0.746l23.753-0.036
			l11.217-0.863l17.987-0.961l20.901-1.74l11.201-1.455l15.962-2.377l9.337-1.424l12.699-2.435L2186.293,1211.541z"/>
		<path style="&st4;" d="M1616.561,238.71c-16.773,20.66-32.012,42.651-45.98,65.959c-42.041,70.153-69.623,147.294-81.64,228.157
			c-2.305,15.02-3.902,28.701-4.931,43.123l-1.981-0.007l0.826-8.071c4.466-43.658,12.268-86.72,25.276-128.744
			c22.916-74.034,59.393-142.139,107.61-202.12L1616.561,238.71z"/>
		<path style="&st3;" d="M2145.094,22.549l-1.074,1.613l-25.299-3.011l-22.971-1.568l-6.994-0.329
			c-22.392-1.055-44.31-0.502-66.704,1.596l-21.043,1.971l-12.189,1.61l-9.908,1.692l0.125-2.044l38.946-4.916l12.908-0.922
			l17.108-0.88c13.614-0.7,27.103-0.571,40.455,0.088l17.619,0.87l10.977,0.768L2145.094,22.549z"/>
		<path style="&st5;" d="M2542.091,971.402l1.064,1.755c-15.184,21.702-31.215,42.845-49.579,62.337l-14.615,15.512l-17.911,17.975
			l-11.592,10.573l-41.964,33.859l1.656-3.227l2.856-3.545c1.317,0.146,3.486-1.206,4.063-2.354l0.948-2.154
			c0.936,0.035,2.698-0.387,3.446-0.967l11.599-9.003l29.668-26.519C2491.588,1036.416,2518.478,1005.131,2542.091,971.402z"/>
		<path style="&st6;" d="M1979.038,24.08l-0.125,2.044l-7.933,1.013l-33.761,7.148l-22.603,5.48
			c-28.464,6.902-55.024,18.236-81.468,29.828l-0.292-1.904C1879.306,46.482,1928.494,31.963,1979.038,24.08z"/>
		<path style="&st4;" d="M1582.738,956.967c0.045,1.238,0.484,3.859,1.254,4.943l5.535,7.796l10.388,16.029
			c-25.959-30.706-58.712-89.765-73.465-128.048l-6.77-17.566l1.667-1.278c11.698,32.943,26.39,64.696,45.044,94.771l13.04,21.024
			C1580.049,955.635,1582.227,957.144,1582.738,956.967z"/>
		<path style="&st4;" d="M2341.01,87.612l-0.567,1.517l-5.82-2.805l-41.512-20.504l-6.881-3.107l-33.444-12.652l-20.365-6.687
			l-12.403-3.46l-0.148-2.113c16.83,4.494,33.006,10.208,49.83,16.582C2294.614,63.822,2318.182,74.937,2341.01,87.612z"/>
		<path style="&st5;" d="M2587.99,348.369l-2.026,0.401l-2.687-5.734c-13.208-25.454-27.58-50.213-44.015-74.19l-26.451-35.617
			l-7.181-8.668l-19.636-21.85l-6.155-7.539l1.249-0.266l12.483,13.512l6.675,7.387c14.46,16.004,27.014,32.637,39.552,50.447
			C2558.3,292.535,2573.763,320.214,2587.99,348.369z"/>
		<path style="&st7;" d="M2444.575,160.667c-24.391-18.08-49.804-39.081-76.914-55.277l-27.218-16.261l0.567-1.517
			c35.274,19.585,68.652,42.164,99.537,68.854L2444.575,160.667z"/>
		<path style="&st6;" d="M2219.87,37.801l0.148,2.113l-11.045-2.789l-32.61-7.53l-21.568-3.549l-10.774-1.884l1.074-1.613
			l10.069,1.384C2177.38,26.987,2198.679,32.142,2219.87,37.801z"/>
		<path style="&st4;" d="M1832.855,67.689l0.292,1.904l-6.779,2.972l-25.681,13.159l-18.103,9.968l-24.128,14.728l-1.766-0.921
			l4.696-3.195C1784.536,91.63,1808.35,78.877,1832.855,67.689z"/>
		<path style="&st8;" d="M1756.69,109.499l1.766,0.921l-30.725,21.359l-11.47,8.603l-9.131,6.971l-6.226,5.626
			c-21.356,17.322-40.868,36.062-59.254,56.601l-11.816,13.199l-2.891,3.143l-10.383,12.789l-0.82-1.702l6.784-8.439l13.977-16.115
			l9.54-10.528c8.775-9.683,17.737-18.456,27.464-27.481C1699.578,150.253,1727.062,128.322,1756.69,109.499z"/>
		<path style="&st4;" d="M1512.557,814.089l-1.966,0.058c-8.658-24.742-15.326-50.263-19.546-76.172l1.402-2.273
			C1496.997,762.272,1503.517,788.63,1512.557,814.089z"/>
		<path style="&st9;" d="M1492.447,735.702l-1.402,2.273l-5.441-33.405l-3.091-28.983l-0.574-11.591l0.134-4.015
			c0.669,0.434,1.633,2.877,1.731,4.178l1.809,23.831l4.178,32.194L1492.447,735.702z"/>
		<path style="&st0;" d="M2609.371,400.758l3.563,7.255c-1.867,0.166-4.841,0.987-5.251,2.27l-2.183,6.824l-9.119-2.87l2.081-11.979
			c0.115-0.66,0.749-1.839,1.091-2.283c1.479-1.921,1.901,5.411,5.849,5.308C2608.746,405.196,2609.335,403.634,2609.371,400.758z"
			/>
		<polygon style="&st0;" points="2238.883,1197.786 2236.019,1200.083 2191.03,1212.164 2189.932,1210.615 		"/>
		<path style="&st7;" d="M2481.087,194.906l-1.249,0.266c-0.38-0.163-2.478-1.31-3.207-2.037l-20.349-20.313l-3.47-4.594
			c3.551,2.051,7.265,5.176,10.468,8.455L2481.087,194.906z"/>
		<path style="&st5;" d="M1715.272,1102.542l-0.479,1.735l-19.489-15.588l-5.917-5.082l-8.537-7.48l-7.467-6.51l-28.323-28.5
			l-5.996-6.998c2.706,1.423,5.329,3.515,7.747,6.046l12.241,12.818l8.024,8.006l23.963,21.911l5.001,4.165L1715.272,1102.542z"/>
		<path style="&st7;" d="M1639.064,1034.119c-2.977-2.085-5.332-5.315-7.913-8.277l-6.974-8.002l-21.911-27.224
			c-0.865-1.075-1.539-3.825-2.35-4.879l10.697,12.654l19.477,23.744l7.956,8.552
			C1638.528,1031.204,1639.028,1033.595,1639.064,1034.119z"/>
		<polygon style="&st4;" points="1482.72,611.774 1482.777,634.979 1480.712,637.04 1479.904,624.004 1480.705,609.96 		"/>
		<polygon style="&st6;" points="1521.347,838.844 1519.681,840.122 1510.591,814.147 1512.557,814.089 		"/>
		<path style="&st0;" d="M2620.95,435.65c-3.05-5.404-4.793-12.68-7.096-19.291c-0.443-1.272-0.651-4.004,0.031-4.692l6.316,18.013
			C2621.201,432.532,2621.524,433.587,2620.95,435.65z"/>
		<polygon style="&st7;" points="1753.44,1129.554 1751.661,1130.424 1745.547,1126.581 1723.811,1111.222 1714.793,1104.277 
			1715.272,1102.542 1733.662,1116.285 		"/>
		<path style="&st4;" d="M1482.089,586.025l0.973,12.952l-2.046-0.062L1481,584.274c-0.001-0.545,0.721-2.824,0.949-2.248
			L1482.089,586.025z"/>
		<path style="&st0;" d="M2592.127,359.089l-6.163-10.319l2.026-0.401C2589.435,351.228,2591.433,356.151,2592.127,359.089z"/>
		<polygon style="&st9;" points="1483.062,598.976 1482.72,611.774 1480.705,609.96 1481.015,598.915 		"/>
		<polygon style="&st9;" points="1483.052,648.029 1481.016,648.076 1480.712,637.04 1482.777,634.979 		"/>
		<path style="&st4;" d="M1483.052,648.029l-0.979,11.953l-0.134,4.015c-0.219,0.558-0.938-1.711-0.937-2.271l0.014-13.649
			L1483.052,648.029z"/>
		<path style="&st10;" d="M2412.007,1106.642l-2.856,3.545l-1.656,3.227c-0.634-0.331-0.887-0.496-1.082-0.506l-1.35-0.064
			C2405.187,1109.461,2408.994,1106.309,2412.007,1106.642z"/>
		<path style="&st0;" d="M2604.604,387.219c-2.724-2.467-4.174-6.255-4.908-9.497
			C2602.292,379.938,2604.142,384.217,2604.604,387.219z"/>
		<path style="&st9;" d="M1484.01,575.949l0.026,7.028c0.003,0.836-1.448,3.117-1.947,3.048l-0.139-3.998l0.079-6.085
			L1484.01,575.949z"/>
		<path style="&st0;" d="M2600.039,377.243c-1.322-0.882-2.417-3.209-2.775-4.544c1.348,0.008,2.752,0.929,2.757,1.776
			L2600.039,377.243z"/>
		<path style="&st0;" d="M2596.325,367.847c0.058,0.026-1.626,0.27-1.749-0.098l-0.822-2.462l-1.875-5.606L2596.325,367.847z"/>
		<path style="&st0;" d="M2608.051,396.872l-1.421,0.022c-0.407-0.019-0.526-1.217-0.656-1.689l-2.046-7.467l2.365,2.718
			L2608.051,396.872z"/>
		<path style="&st0;" d="M2609.485,400.272c-0.602-0.121-1.201-0.582-1.194-1.037l0.317-1.953l1.103,1.404
			C2609.987,399.038,2609.628,399.907,2609.485,400.272z"/>
		<polygon style="&st11;" points="2243.908,1197.241 2245.043,1197.385 2236.019,1200.083 2238.883,1197.786 2240.03,1198.063 
			2242.038,1197.003 		"/>
		<path style="&st0;" d="M2613.351,410.791c-0.333,0.166-1.398,0.059-1.33-0.295l0.351-1.837L2613.351,410.791z"/>
		<path style="&st0;" d="M2597.62,370.466c-0.118,0.057-1.793,0.448-1.666,0.008c0.156-0.54,0.629-2.2,0.605-2.153L2597.62,370.466z
			"/>
		<path style="&st0;" d="M2597.925,372.125l0.144-1.341c0.217,0.154,0.84,0.77,0.918,0.725L2597.925,372.125z"/>
		<path style="&st12;" d="M1629.834,222.777c-1.466,7.949,5.278,12.936,13.819,14.608l-0.744,2.797
			c-3.758,2.651-6.322,7.311-9.608,10.807l-7.356-3.932l3.381,8.162l-5.981,8.31c-15.086,20.961-30.176,41.447-42.536,64.111
			l-2.076,4.615c0.094,0.287,0.214,0.58,0.171,0.674c-34.697,55.939-60.955,134.251-70.153,200.775l-2.24,16.2l-1.642,13.155
			l-2.401,32.587c-1.333,18.095-1.2,36.023-0.156,54.246l0.694,12.106l1.576,20.275l1.852,14.811l1.987,16.319l5.056,28.192
			l7.566,32.32l4.572,16.429c11.365,40.844,35.204,96.113,56.855,131.919l11.956,19.774l-9.887,4.136l-1.273,5.496
			c-0.373,1.611-0.581,3.828-0.528,5.299c-0.511,0.177-2.689-1.332-3.307-2.328l-13.04-21.024
			c-18.654-30.076-33.346-61.828-45.044-94.771l-8.79-24.755c-9.04-25.459-15.56-51.818-20.11-78.387l-2.657-15.517l-4.178-32.194
			l-1.809-23.831c-0.099-1.301-1.062-3.745-1.731-4.178l0.979-11.953l-0.274-13.05l-0.057-23.205l0.342-12.798l-0.973-12.952
			c0.499,0.07,1.951-2.212,1.947-3.048l-0.026-7.028c1.029-14.422,2.627-28.103,4.931-43.123
			c12.016-80.863,39.599-158.004,81.64-228.157c13.968-23.308,29.207-45.299,45.98-65.959l10.383-12.789L1629.834,222.777z
			 M1582.18,944.414l4.152-7.812l-4.204-5.829c-6.408,3.042-8.517,9.497-5.942,16.434L1582.18,944.414z"/>
		<path style="&st5;" d="M2407.756,160.796c-34.506-25.455-71.099-49.231-110.893-67.686
			c-57.681-26.751-118.619-43.551-181.862-48.764l-13.04-1.075l-14.948-0.963c-12.948-0.835-25.804-0.647-38.482,0.178
			l-15.272,0.994c-40.578,2.641-80.305,9.49-119.764,21.12c-95.529,28.156-183.208,83.095-250.954,155.81l-10.223,10.973
			c-3.054,3.277-6.001,6.395-9.411,8.8l0.744-2.797c1.471-0.787,2.798-1.885,4.277-3.583c19.132-21.947,39.297-42.44,61.969-60.83
			l10.114-8.204c33.391-27.085,69.291-51.01,108.442-69.129l12.34-5.711l11.477-5.29l9.474-3.835
			c38.477-15.576,77.754-26.79,118.624-33.12l13.947-2.16l18.724-2.246l11.972-1.042l12.081-0.986l66.582,0.087l16.338,1.767
			l19.141,2.058c33.753,3.629,65.986,12.216,98.366,22.346l26.297,9.809l18.519,7.475l20.129,8.994
			c36.53,17.479,70.284,38.816,102.636,62.971C2406.593,157.869,2407.623,159.671,2407.756,160.796z"/>
		<path style="&st9;" d="M2561.479,344.376c10.454,18.503,18.831,38.154,26.764,58.39l1.382,5.073l-1.719-0.007
			c-7.839-23-17.963-44.974-30.261-66.441l-17.889-31.227l2.002-0.328l4.259,7.173L2561.479,344.376z"/>
		<path style="&st7;" d="M2541.759,309.836l-2.002,0.328c-17.538-28.314-36.747-55.56-59.672-80.177l-15.968-17.147l-24.501-24.311
			l-9.45-8.69l-8.023-6.871l-14.387-12.172c3.579,1.228,7.188,3.795,10.442,6.591l14.252,12.248l10.107,9.717l9.344,9.749
			l6.479,6.522l22.053,22.131l6.973,7.901l5.773,7.175l3.663,4.417l12.891,15.995l6.058,8.237l18.401,26.332L2541.759,309.836z"/>
		<path style="&st9;" d="M2620.535,516.148l1.775,13.346l1.866,10.341l3.991,36.103l0.492,4.192l1.127,32.913
			c1.043,30.455-0.966,59.813-4.89,90.094c-4.698,36.253-12.866,71.081-24.021,105.777l-9.131,26.093
			c-20.454,58.452-52.272,111.402-91.247,159.315c-1.604,1.972-2.623,3.016-4.266,3.952c0.218-1.12,0.739-2.468,1.588-3.526
			c19.822-24.692,37.655-50.053,53.245-77.724c39.001-69.223,62.104-141.057,72.682-220.1l1.029-10.007l0.965-10.895l1.044-14.944
			l0.9-17.081l0.01-39.005l-0.916-16.046l-0.998-14.992l-0.836-10.081c-2.774-33.475-9.75-65.983-18.271-98.386l-2.875-10.933
			l1.776-0.361L2620.535,516.148z"/>
		<path style="&st10;" d="M2643.454,540.983l2.649,23.159l-6.668-3.612c-1.258-0.722-4.338-0.736-6.949-0.857
			c-1.926,5.278-2.897,10.381-3.015,16.143l-1.304,0.122l-3.991-36.103l-1.866-10.341l-1.775-13.346
			c3.914,0.186,0.324,4.393,5.565,7.643c1.515,0.939,3.675,2.7,3.662,3.987c-0.041,3.879-6.712,8.915,0.726,20.49l10.247-1.874
			C2641.135,543.148,2641.755,541.349,2643.454,540.983z"/>
		<polygon style="&st7;" points="2605.577,454.193 2603.801,454.554 2601.991,449.157 2587.906,407.832 2589.625,407.839 
			2599.454,434.447 		"/>
		<path style="&st13;" d="M2274.601,1165.717l0.003,2.229c-0.065,0.378-1.389,0.722-1.722,0.954l-2.175,1.51
			c-0.334,0.232,0.804,1.317,1.305,1.776c4.56,4.179-0.594,7.741,5.57,11.196l-32.483,11.95l-1.191,1.909l-1.869-0.238l-2.008,1.06
			l-1.147-0.277l-48.951,12.829l-3.639,0.926l1.571-9.951c0.415-2.136-2.297-5.082-4.786-4.629l-16.225,2.955l-9.879,2.195
			c-0.655,0.145-2.719-0.045-2.735-0.648l0.03-1.539c37.519-6.216,74.279-16.308,109.961-30.492L2274.601,1165.717z"/>
		<path style="&st1;" d="M2407.701,1087.377l10.187,7.339l2.576,6.451c-0.747,0.58-2.509,1.003-3.446,0.967l-2.561-0.097
			c-0.513-0.019-0.51,1.848-0.003,1.911l1.615,0.34c-0.577,1.148-2.747,2.5-4.063,2.354c-3.013-0.333-6.82,2.819-6.943,6.202
			l-3.656,1.509c-0.939,0.388-1.485-2.92-1.952-3.952l-3.884-8.589l-4.733,0.562c-3.923,0.466,8.652,8.256,7.171,15.213
			c-0.162,0.759-2.379,1.93-2.612,1.934l-5.038-1.366c-1.461-0.123-1.685,4.4-1.297,5.6c-1.401,0.936-3.473-3.037-3.674-5.211
			l-11.232-6.956l19.689-13.812l0.42,1.592c0.083,0.316,0.859,0.638,1.169,0.742c0.31,0.105,0.797-1.299,0.517-1.468l-1.718-1.036
			L2407.701,1087.377z M2403.337,1098.528c-0.78,1.418-0.161,5.596,1.042,5.515c1.002-0.068,3.022-0.753,3.804-1.383
			c0.938-0.756,0.966-3.637-0.115-4.17C2407.168,1098.045,2403.822,1097.648,2403.337,1098.528z"/>
		<path style="&st6;" d="M2363.155,1118.313c-17.508,11.754-35.519,22.606-54.952,31.776l-24.414,11.52l-6.832,3.06l-2.357,1.047
			l-10.371,3.715c-35.682,14.184-72.443,24.276-109.961,30.492l-10.097,1.323c-6.367,0.834-12.559,2.2-18.229,1.36
			c83.946-10.91,165.28-39.168,236.013-85.781L2363.155,1118.313z"/>
		<path style="&st8;" d="M2444.228,1055.195l-23.408,21.596l-13.119,10.587l-13.468,10.231l-0.388,0.17l-19.689,13.812l-1.218-0.755
			l-0.863,1.489l-8.92,5.989l-1.2-1.486c23.752-15.652,46.853-32.187,68.601-51.235l12.286-10.761L2444.228,1055.195z"/>
		<path style="&st14;" d="M2395.398,1119.523l-6.336,4.234c-0.388-1.2-0.164-5.723,1.297-5.6L2395.398,1119.523z"/>
		<path style="&st13;" d="M2283.79,1161.61c0.148,1.55-1.514,3.315-2.886,3.871c-0.996,0.404-3.769,0.252-3.946-0.811
			L2283.79,1161.61z"/>
		<path style="&st1;" d="M2372.075,1112.325l0.863-1.489L2372.075,1112.325z"/>
		<path style="&st10;" d="M2646.98,572.809l1.039,13.173l0.676,11.118l-0.165,58.42l-3.225,40.425l-1.085,8.403
			c-6.047,46.834-17.096,92.44-34.156,136.693c-17.828,46.247-39.957,90.344-67.972,130.361
			c-23.614,33.729-50.503,65.014-80.36,94.243l-29.668,26.519l-11.599,9.003l-2.576-6.451l-10.187-7.339l13.119-10.587
			l23.408-21.596l0.76-2.194l0.845-1.144c1.076,0.282,3.6-0.792,4.393-1.604l19.308-19.772l23.852-27.148
			c1.384-1.575,2.547-3.527,2.846-5.061c1.642-0.936,2.662-1.98,4.266-3.952c38.974-47.913,70.792-100.863,91.247-159.315
			l9.131-26.093c11.156-34.696,19.323-69.524,24.021-105.777c3.924-30.281,5.933-59.639,4.89-90.094l-1.127-32.913
			c0.715-0.167,2.265-0.155,2.238,0.456l-0.121,2.733c-0.075,1.707,0.973,5.475,2.087,6.668l9.936-1.811
			c4.099-0.747-2.132-12.337,0.754-13.876L2646.98,572.809z"/>
		<path style="&st12;" d="M2646.104,564.142l0.876,8.666l-3.427,1.492c-2.886,1.54,3.345,13.129-0.754,13.876l-9.936,1.811
			c-1.113-1.193-2.162-4.961-2.087-6.668l0.121-2.733c0.027-0.611-1.523-0.623-2.238-0.456l-0.492-4.192l1.304-0.122
			c0.118-5.762,1.09-10.865,3.015-16.143c2.611,0.121,5.691,0.135,6.949,0.857L2646.104,564.142z"/>
		<path style="&st11;" d="M1627.171,984.855l-0.362,0.917c-0.38,0.96,1.897,3.558,3.154,5.095l16.335,19.97l12.107,13.326
			l15.921,16.341l9.744,9.78l12.569,12.069l20.197,17.184l31.107,23.436c1.126,0.848,3.114,1.733,4.017,2.415l9.592,7.252
			c45.57,30.566,94.676,54.467,147.348,70.36l50.288,12.862l8.965-0.104l0.507,1.458l8.066,2.05l12.144,2.023l16.041,2.045
			l19.179,1.787l13.553,1.335l55.387,0.201l20.962-1.795c4.212-0.361,8.086-0.815,11.116-2.915l0.834,0.661
			c5.67,0.84,11.862-0.526,18.229-1.36l10.097-1.323l-0.03,1.539c0.017,0.603,2.081,0.793,2.735,0.648l9.879-2.195l16.225-2.955
			c2.489-0.453,5.2,2.493,4.786,4.629l-1.571,9.951l-8.128,1.865l-12.699,2.435l-9.337,1.424l-15.962,2.377l-11.201,1.455
			l-20.901,1.74l-17.987,0.961l-11.217,0.863l-23.753,0.036l-9.119-0.746l-22.938-1.314l-9.064-0.834l-14.944-1.288l-11.931-1.764
			l-16.039-2.292l-8.813-1.833l-11.75-2.273l-33.6-8.445c-52.026-13.077-100.701-34.996-146.131-63.484l-17.338-10.872
			l-19.777-13.268l-18.39-13.744l-19.232-15.476l-5.001-4.165l-23.963-21.911l-8.024-8.006l-12.241-12.818
			c-2.417-2.531-5.04-4.623-7.747-6.046c-0.036-0.524-0.536-2.915-1.019-3.434l-7.956-8.552l-19.477-23.744l-10.697-12.654
			l-10.388-16.029l-5.535-7.796c-0.77-1.085-1.209-3.706-1.254-4.943c-0.053-1.471,0.155-3.688,0.528-5.299l1.273-5.496l9.887-4.136
			l9.525,14.048l8.448,11.483l10.729,14.931C1623.931,983.614,1626.11,985.027,1627.171,984.855z"/>
		<path style="&st10;" d="M2417.019,1102.134l-0.948,2.154l-1.615-0.34c-0.508-0.062-0.511-1.93,0.003-1.911L2417.019,1102.134z"/>
		<path style="&st0;" d="M2242.038,1197.003l-2.008,1.06L2242.038,1197.003z"/>
		<path style="&st3;" d="M1578.905,332.93l-4.402,9.577l-6.513,11.549l-3.741,7.356l-6.836,15.153l-3.403,7.668l-7.979,18.946
			l-2.737,7.229c-19.048,50.316-28.263,93.147-35.931,144.867l-1.086,11.604l-0.949,11.059l-0.812,12.011l-0.523,15.031l-1.011,1.94
			l0,33.156l0.988,1.942l0.848,13.039c-0.912,4.671-0.478,9.391,1.063,13.979c-0.794,4.131-0.578,8.283,0.475,12.189l1.217,10.915
			c5.627,50.472,18.364,99.177,36.664,146.499c11.324,29.283,24.75,56.502,40.148,83.101l-1.915,0.52
			c-21.65-35.806-45.489-91.075-56.855-131.919l-4.572-16.429l-7.566-32.32l-5.056-28.192l-1.987-16.319l-1.852-14.811
			l-1.576-20.275l-0.694-12.106c-1.044-18.223-1.177-36.151,0.156-54.246l2.401-32.587l1.642-13.155l2.24-16.2
			C1517.95,467.18,1544.208,388.869,1578.905,332.93z"/>
		<path style="&st3;" d="M1578.734,332.256l2.076-4.615c12.359-22.664,27.45-43.15,42.536-64.111l5.981-8.31l3.975-4.23
			c3.286-3.496,5.849-8.156,9.608-10.807c-0.076,1.581-1.029,3.376-2.557,5.194c-21.088,25.099-39.467,51.553-56.238,79.634
			l-3.069,5.14L1578.734,332.256z"/>
		<path style="&st15;" d="M1582.18,944.414l-5.994,2.793c-2.575-6.937-0.466-13.392,5.942-16.434l4.204,5.829L1582.18,944.414z"/>
		<path style="&st5;" d="M1627.171,984.855c-1.061,0.172-3.24-1.241-4.042-2.356l-10.729-14.931l-8.448-11.483l-9.525-14.048
			l-11.956-19.774l1.915-0.52c11.672,20.162,24.953,39.366,39.63,58.19L1627.171,984.855z"/>
		<polygon style="&st0;" points="1633.301,250.99 1629.326,255.219 1625.945,247.057 		"/>
		<path style="&st10;" d="M2403.337,1098.528c0.484-0.881,3.831-0.484,4.731-0.039c1.08,0.534,1.053,3.414,0.115,4.17
			c-0.782,0.63-2.802,1.316-3.804,1.383C2403.176,1104.124,2402.557,1099.947,2403.337,1098.528z"/>
		<path style="&st10;" d="M2393.845,1097.778l0.388-0.17l1.718,1.036c0.281,0.169-0.207,1.573-0.517,1.468
			c-0.31-0.104-1.085-0.426-1.169-0.742L2393.845,1097.778z"/>
		<path style="&st7;" d="M2445.833,1051.858l24.456-24.794l7.841-8.859l6.502-7.557l6.438-7.513
			c1.685-1.966,3.245-3.972,5.163-4.862c-0.299,1.535-1.463,3.486-2.846,5.061l-23.852,27.148l-19.308,19.772
			C2449.433,1051.066,2446.909,1052.14,2445.833,1051.858z"/>
		<polygon style="&st7;" points="2444.228,1055.195 2442.841,1054.832 2444.988,1053.002 		"/>
		<path style="&st6;" d="M1968.153,1195.758l-8.965,0.104L1908.9,1183c-52.672-15.893-101.778-39.795-147.348-70.36l-9.592-7.252
			l1.314-0.71c25.159,16.961,50.969,32.763,78.848,46.127c21.226,10.175,41.987,18.246,64.223,25.942
			C1920.156,1184.987,1944.189,1190.56,1968.153,1195.758z"/>
		<path style="&st6;" d="M2125.108,1201.947c-3.03,2.1-6.904,2.554-11.116,2.915l-20.962,1.795l-55.387-0.201l-13.553-1.335
			l-19.179-1.787l-16.041-2.045l-12.144-2.023l-8.066-2.05l5.568-0.275l33.953,4.865l10.737,0.978l16.018,0.919l16.398,0.941
			l31.143-0.065l18.544-0.904l12.995-0.901L2125.108,1201.947z"/>
		<path style="&st4;" d="M1753.274,1104.678l-1.314,0.71c-0.903-0.682-2.891-1.567-4.017-2.415l-31.107-23.436l0.463-1.736
			l13.49,10.447L1753.274,1104.678z"/>
		<path style="&st5;" d="M1685.267,1049.851l-1.197,0.433l-9.744-9.78l-15.921-16.341l-12.107-13.326l-16.335-19.97
			c-1.257-1.537-3.533-4.135-3.154-5.095l4.159,3.225l19.859,24.133l9.041,10.032l9.008,9.93L1685.267,1049.851z"/>
		<polygon style="&st7;" points="1717.298,1077.801 1716.835,1079.537 1696.639,1062.353 1684.07,1050.284 1685.267,1049.851 
			1692.747,1056.273 1704.338,1066.704 		"/>
		<path style="&st16;" d="M2152.547,661.96l-5.487-1.9c-0.205-0.639,0.162-2.135,0.348-2.881l4.041,0.934
			C2152.562,658.37,2152.861,660.875,2152.547,661.96z"/>
		<path style="&st16;" d="M2108.824,658.541l3.006,5.885c1.071,1.828,2.552,7.13,6.113,5.241c2.582-1.369,0.502-7.339-2.212-8.216
			l1.895-4.902l10.357-1.4c0.678,0.902,2.48,2.289,3.537,2.046s2.525-2.149,2.474-3.199l3.99,0.053
			c1.546,3.167,5.529,5.134,9.075,6.012l1.689,5.267l-2.49,1.994c-0.402,0.322-1.584,1.719-1.165,2.019l1.549,1.11
			c2.397,2.099,8.165,4.716,12.111,3.155c3.245-1.284,3.606-6.961,3.331-10.341l6.972-4.079l6.371,2.995
			c-3.689,12.683-20.538,10.547-7.378,19.492c-1.898,1.756-5.427,3.72-8.585,4.946l-3.84,4.157
			c-2.654-4.589-5.336-8.315-10.382-8.979l-5.1,6.771c-1.488-0.494-4.19-1.656-5.31-1.379c-1.354,0.336-7.29,5.374-7.591,9.427
			l-5.534,1.595c-8.565-2.197-9.619-10.067-19.341-12.822c2.9-3.431,8.043,0.382,12.752-0.774c1.041-0.255,1.424-3.711,1.022-4.731
			c-2.073-5.271-11.338-13.725-15.268-9.811c-0.648,1.406,1.609,4.554,3.264,5.325l-4.023,6.581
			c-3.808-0.394-6.684-1.998-11.783-4.837l-1.281,6.947c-0.256,1.391-0.673,3.477-1.092,4.403
			c-1.081,2.387-10.75,0.233-10.063,4.928c0.234,1.6,1.717,3.877,3.249,6.504c-10.399-3.93-20.375-1.727-17.743,2.483l1.853,2.965
			c1.22,1.951-7.528,3.763-8.508,13.7l-5.36-1.779l-4.638,11.632c-1.137,2.852-3.062,6.081-0.542,8.876l8.669,9.613l0.164,13.501
			l-4.377,6.421c-0.405,0.594-0.557,3.104,0.053,3.493l2.318,1.169c-0.896,12.083,5.318,32.428,16.167,31.035
			c10.056,8.076,11.848-2.703,18.449,0.676c1.446-0.332,3.923-2.992,4.32-4.651c1.192-4.983-6.059-9.582-3.966-21.698l10.555-2.355
			c-0.181,4.04-2.93,3.785-4.501,5.127c-4.564,3.898,5.342,11.353,6.338,10.861l3.061-1.511c0.507-0.25,2.07-0.349,2.62-0.246
			c0.551,0.104,1.19,1.679,0.754,2.032l-2.123,1.722c-1.415,1.148-0.835,5.911,0.388,7.243c3.281,3.574,8.811,2.254,10.957,4.123
			c2.373,2.067-0.107,9.75,3.141,9.376c0.932-0.107,2.504-1.423,3.359-1.852l4.838-1.725c0.394-0.867,1.328-3.404,2.223-3.091
			l3.834,1.337c0.768,0.268,2.35-1.213,2.531-1.996c0.182-0.785-0.636-2.155-1.575-3.507c-0.842-1.212-0.079-3.268,1.498-5.697
			l-4.457-5.174l8.052,1.975l2.408-5.679c3.227,0.165,5.149-0.68,6.307-2.604c0.828-1.377,0.753-5.837-0.88-5.889
			c-3.27-0.104-5.569,2.606-8.469,4.841l-0.371-12.383c-5.479-1.455-6.66,6.219-8.985,4.903l-3.247-1.837
			c-1.144-0.647-3.64,1.351-4.014,2.603c-0.374,1.252,0.568,3.96,1.341,5.103c0.331,0.49-0.752,2.506-1.189,2.109l-1.953-1.768
			c-1.551-1.404-3.285-2.685-4.944-3.636c-1.14,5.531-2.515,6.112-6.393,6.695c-2.441,0.367-7.182-2.066-4.834-5.272
			c1.88-2.305,7.317-5.584,7.837-9.091c0.488-3.29-5.311-5.292-7.229-3.318c-1.625,1.672-4.31,2.786-5.887,1.778
			c-1.171-0.749-2.358-3.595-2.317-5.036c0.04-1.379,3.562-3.173,4.341-2.012c0.983,1.466,2.283,3.497,3.406,3.576
			c0.935,0.065,3.012-1.454,3.346-2.3l1.29-3.265c0.279-0.707-2.061-1.508-3.01-1.798c-0.374-0.371-1.102-1.453-0.645-1.615
			l2.162-0.768c1.852-0.658,5.579-2.993,5.165-4.803l-1.939-11.648c-0.136-0.817,0.813-3.494,1.545-3.113
			c3.243,1.688,4.15,6.282,12.652,9.965c1.098,0.757,1.482,5.014,2.781,5.062c1.306,0.048,4.084-0.727,5.195-1.411
			c1.11-0.684,0.868-4.306-0.213-4.993c-0.954-0.605-2.836-2.202-2.185-2.711l2.608-2.042c1.039,1.437,1.924,2.708,2.955,3.126
			c0.857,0.348,3.151-1.853,2.892-2.993c-0.663-2.927,1.621-6.093,3.702-8.814c1.369-1.79,2.126-5.365,3.699-6.45
			c5.424-3.74,14.061,4.612,17.323-1.264l1.985-3.577c0.475-0.857,3.772,0.263,3.79,1.242c0.031,1.656,0.558,3.992,1.279,4.929
			c0.598,0.778,3.734-0.216,3.843-1.257c0.277-2.643,2.655-5.804,5.265-6.395c0.502-0.855,1.569-3.359,2.423-3.217l3.236,0.536
			l4.54-9.934l5.312,5.573l3.182,0.545c0.432,0.074,0.241,1.944-0.052,2.39l-6.023,9.171c-2.687,4.091-3.71,6.475-1.605,12.087
			c-1.385,0.71-4.812,0.191-5.525-1.131c-2.871-5.32,1.823-8.733-3.989-10.366c-0.61,1.114-1.464,4.056-1.939,6.024l-7.485-1.761
			c-1.441-0.272-2.819,3.412-3.143,4.737l-1.598,6.536l5.056,7.888c1.34,2.09,7.239-1,8.562-2.703l7.591-0.382l1.767,3.343
			c0.375,0.71,2.859,0.736,3.74,0.596l4.146-0.659c2.313-0.367-3.367-6.478-0.841-13.214c1.32-3.52,3.169-8.98,7.608-8.963
			c3.028,0.011,6.39-1.15,6.009-3.694l-5.663-2.067c-1.239-0.452-1.915-3.624-1.439-5.154c1.498-4.819,8.046-8.581,13.287-6.504
			l1.287,4.069l-3.067,3.501c-0.671,0.996-0.059,4.442,1.11,4.759l4.206,0.613l1.643,7.248c-4.614,1.112-9.124,1.776-14.476,1.529
			c-2.234,2.972-3.999,8.99-1.274,13.162c8.032,3.246,14.522-2.561,11.444,4.241c-2.125-0.521-4.732-1.041-6.722-0.481
			c-2.622,0.737-5.825,8.231-4.936,11.484c0.406,1.487,2.709,3.31,4.323,4.365l4.932,3.221c0.238-5.363,0.039-7.275,3.824-10.312
			c1.881,5.469,0.082,10.314,0.423,15.234c0.185,2.666,1.655,5.508-0.079,8.188c-0.292,0.452-0.507,1.973-0.029,2.188l1.911,0.489
			l-2.415,14.001c-2.173-1.135-5.934-1.331-8.057-0.408c0.918,5.269,1.839,9.26-0.858,13.686l-7.89-5.503
			c-4.145-2.891,7.967-9.338,2.724-10.075l-3.042-0.428c-0.578-0.081-1.325-1.491-0.968-1.954l2.459-3.19
			c-0.298-0.463-3.516-0.242-3.834,0.653l-1.836,5.166l-7.595-0.575l-1.556-7.413c0.985-8.264-4.06-10.737,2.132-20.235
			c2.186-3.353,1.031-6.21-1.223-8.727c-2.506-2.799-4.496-3.741-8.579-3.835l-10.986-0.251l-4.4-0.916
			c-2.493-0.519-1.6,5.893-9.367,13.211c-2.602,2.451-1.159,8.433,0.581,11.483c0.162,0.818,0.234,3.036,0.889,2.991l4.911-0.332
			l-0.692,5.67l3.649,1.718c0.95,0.447,0.765,3.845,0.119,4.703c-5.241,6.961-10.401,3.362-15.959,5.037
			c2.082,4.066,0.812,10.009-3.053,10.498l-8.999,1.138l-0.902,4.413c-3.534,1.622-6.816,3.437-10.029,5.859l-6.474-1.169
			l-7.677-2.31c-2.841-0.855-5.169-2.267-7.978,0.948c5.985,3.127,7.541,10.5,4.762,14.675c-0.438,0.658-2.308,1.539-2.826,1.23
			c-2.672-1.591-1.338-8.669-8.431-7.344c-0.906,2.674-1.542,3.507-3.676,5.273c-1.836,1.519,1.27,3.928,3.137,5.598
			c2.455,2.195,2.969,7.521,3.732,11.828l-11.133,3.504c-1.402,5.46-5.09,4.52-9.452,5.342c-5.596,1.055-6.311,12.386-1.433,14.887
			l8.083,4.145c1.683-2.237,3.685-4.517,5.076-4.121c2.2,0.625,5.385,0.653,6.575-0.575c1.082-1.116,0.526-4.61-0.002-6.286
			l12.269-7.945c-2.697,5.684-3.122,9.83-0.419,14.591l4.296,7.568l8.333-0.577c-0.519-5.253-1.789-5.803-6.617-7.202l5.313-2.107
			c1.519,0.167,4.693,0.219,5.844-1.075c2.045,1.867,3.87,8.054,0.562,9.016c-3.304,0.961-5.066,1.661-7.501,3.807l-3.417,1.976
			c-0.801,0.463-1.035,3.436-0.218,3.375l3.729-0.497c0.525-0.07,1.757,1.42,1.433,1.835l-5.839,7.508
			c-2.211,2.844-2.592,4.302-1.592,7.655c0.298,1,0.292,3.951,1.189,4.439l4.426,2.407c-1.63,1.025-3.841,2.927-3.381,4.188
			c0.51,1.4,1.252,4.164,1.124,5.125c-2.808,0.765-7.458,0.728-9.071-0.159c-0.203-2.423-1.113-5.387-2.604-5.774
			c-5.141-1.332-10.284,3.039-10.67,8.099c-1.127,0.195-4.146,1.262-3.652,1.959l1.99,2.811c0.774,1.094,6.67-3.477,7.079-0.098
			c0.274,2.259,1.845,5.934,4.157,6.554c2.722,0.73,5.281-1.57,7.773-1.999c4.194-0.723,10.904-1.627,14.233-3.259
			c0.627-0.307,3.345,0.439,2.98,0.996l-2.366,3.613c-0.125,0.073,2.826,1.551,4.31,2.186c1.191,0.509,3.893-2.085,3.776-3.32
			c-4.985-6.4,0.245-11.346-5.838-16.257l3.187-1.788l4.715,5.06c4.201,4.509,9.434,4.037,13.732,0.466
			c4.96-4.12,9.021-9.252,7.362-14.038c-6.331,1.97-11.217,0.692-13.659-4.891c4.437-0.031,7.664,0.074,10.876-0.721
			c1.964-0.486,3.626-5.042,4.03-6.913c9.517-2.094,6.958-8.513,11.681-11.093c0.847-0.463,3.821,0.912,3.955,1.897l1.847,11.704
			l-3.956,6.566l-4.685,3.54l1.669,1.476c-0.308,0.512-1.264,1.363-1.828,1.57c-1.685,0.617-3.983,2.664-5.382,4.558l-3.848,5.205
			c-3.846,2.008-5.586,4.566-5.865,9.155l-4.421,2.963c0.045,2.247,0.111,4.513-0.131,5.562c-0.241,1.045-2.433,1.688-3.673,2.175
			c-4.358,1.711-6.175,5.837-4.298,9.771l-10.17,12.459l-0.845,1.562l-11.352,9.687l-10.468,8.584
			c-5.841,4.79-13.212,8.642-20.713,11.304c-24.749,8.784-52.554,0.915-72.095-17.198l-13.835-12.823l-7.735-8.343l-11.573-14.13
			l-12.658-17.402c-22.791-33.277-40.833-69.362-52.976-107.828l-0.53-1.057l-0.161-1.888l-1.135-4.226l1.6,0.211
			c0.602-6.726,5.282-11.237,10.147-15.38l7.451-6.344l-0.796,6.926c-0.158,1.375,2.089,3.265,3.132,4.659
			c0.688,0.92-0.035,3.731-0.21,5.305c-0.129,1.152,3.142,2.671,4.259,2.233c1.12-0.439,2.816-2.047,3.625-3.282
			c-2.113-3.418-3.693-8.337-0.279-10.965l3.751,8.255l1.208,4.502c0.272,1.014,2.987,0.957,4.204,1.048l11.207,0.842
			c7.765,0.583-0.261-6.562,5.554-10.002c6.445-3.812,7.83-11.212,5.314-17.892l3.403-5.29c2.708-4.211-4.564-8.864-8.195-7.69
			l-0.473-1.748l6.617-6.209c0.804-2.474,0.676-6.784,0.208-10.938l-11.274,5.322c-0.943,0.445-3.473,1.754-3.683,1.684
			c-0.278-10.754-6.104-13.317-6.962-11.97l-2.413,3.79l-16.097,1.459l-4.497,6.073c0.678,2.531,3.853,5.786,5.887,7.135
			c0.862,0.588,0.772,3.769-0.163,4.284c-1.12,0.618-3.684,1.354-5.058,1.445l-13.455,0.894l0.787-8.938
			c-3.434-2.628-4.768-6.531-4.594-11.213l0.375-10.063c0.088-2.364-1.186-6.115-1.901-8.23l5.636-4.186
			c-0.985-3.541-0.471-5.801,0.542-8.347c-0.601-1.368-1.714-4.071-1.573-5.404c0.396-3.762,7.972-2.863,10.516-8.352l-6.723-5.479
			c4.974-9.32,12.321-17.469,20.439-24.332c4.607-3.895,11.04-6.481,16.763-9.422l5.843-3.003l1.174-0.951l1.99-0.124
			c12.22-1.901,24.816-3.49,37.837-0.671c21.54,4.665,42.7,9.438,65.094,8.181l15.954-0.896L2108.824,658.541z M2009.769,732.179
			l3.287-8.417c1.478-3.785,1.333-7.347,0.878-11.599c-0.623-5.81-4.85-10.714-10.488-11.186c-5.55-0.465-10.634,3.79-11.948,9.654
			c-2.293,10.237,3.309,22.122,9.987,30.346C2005.5,738.644,2008.165,736.287,2009.769,732.179z M2144.383,753.982l6.589-1.4
			c0.458-0.922-0.408-4.745-1.531-5.738c-2.345-2.074-10.415-1.206-10.088,1.9l0.954,9.058c0.201,0.206,2.54,0.321,2.753-0.254
			L2144.383,753.982z M1924.194,756.169c0.726,0.172,2.54-1.092,2.541-1.851c0.001-0.758-0.634-2.363-1.382-2.236l-2.871,0.487
			c-0.789,0.134-2.264,2.66-1.468,2.849L1924.194,756.169z M1993.702,844.837c-0.058,0.511,0.102,2.664,0.319,3.189
			c-0.709-0.414-1.078,3.02-0.617,3.965l6.71,13.759c1.174,2.408,5.245,5.684,7.362,3.862c7.441-6.402,10.569-16.108,11.565-25.534
			c0.941-8.904-4.323-17.822-13.479-17.491c-8.258,0.298-14.103,7.361-13.643,15.504
			C1991.97,842.996,1992.929,845.4,1993.702,844.837z M2077.181,848.14l0.169,2.89c0.023,0.389,1.627-0.175,1.639-0.564l0.058-1.957
			C2079.058,848.121,2077.159,847.764,2077.181,848.14z M2102.793,894.195c1.201-0.096,3.729-0.937,4.688-1.33
			c0.769-0.316,0.931-3.332,0.181-3.704l-6.602-3.275c-8.516,2.481-7.466-3.96-15.474,0.478c-2.61,1.447-4.343,2.483-4.903,5.135
			c-0.97,4.596-1.012,7.562,1.995,10.303c2.888,2.632,5.945,1.616,10.351,1.454c1.76-0.065,4.344,0.359,5.28-0.615
			c2.699-2.808-0.99-8.009,0.638-8.139L2102.793,894.195z M2067.696,888.638c0.604,0.81,1.625,1.904,1.75,1.484l0.524-1.759
			C2070.095,887.944,2068.813,888.267,2067.696,888.638z M2068.492,895.251c-9.998-3.9-17.43,5.824-17.507,10.579
			c-0.054,3.328-0.492,8.34,0.374,10.726l4.416,12.175c-0.287,0.679-1.154,2.292-0.586,2.625l2.75,1.615l5.363,4.055
			c1.527,0.359,5.221-1.449,6.319-2.982c1.14,0.869,4.089,1.321,4.793,0.483l1.914-8.738c4.01-1.305,4.517-2.491,6.262-5.502
			c1.194-2.059,3.114-4.076,3.891-6.483c0.768-2.38-1.114-5.342-3.361-7.31l-5.15,2.901c0.026-3.067-1.385-7.122-3.198-10.149
			l2.979-7.063c0.202-0.389,0.102-2.64-0.258-2.387l-1.7,1.196c-2.405,1.691-4.391,2.916-7.846,2.436L2068.492,895.251z
			 M2140.875,925.449c-0.305-1.094-1.938-3.904-2.348-3.266l-2.503,3.898L2140.875,925.449z M2118.696,932.638
			c0.604,0.81,1.625,1.903,1.75,1.484l0.524-1.759C2121.095,931.944,2119.813,932.267,2118.696,932.638z"/>
		<path style="&st17;" d="M2080.001,190.187c9.09,0.29,18.562,0.68,27.983,2.706l29.951,6.442l12.271,3.883l12.911,4.246
			l12.712,5.876c42.013,19.419,77.63,49.821,103.627,88.028c0.76,1.117,2.692,2.334,3.597,2.882
			c1.641,5.698,5.244,11.371,8.728,16.887l4.218,5.895l0.319,2.739l15.057,36.107l-1.867,0.182
			c-0.406,0.028-0.933,1.497-0.529,1.562l2.572,0.238l1.71,4.604l-7.739,5.22c-1.294,0.926-2.501,3.738-2.639,5.226
			c-0.361,0.335-1.578,1.178-2.225,1.427l-6.999,2.696l-1.4-0.477c-0.362-1.864-1.248-4.367-2.072-6.307l-1.54-10.275l2.498-0.427
			l-2.795-7.996c-0.521-1.491-1.996-2.818-3.797-2.549c-7.5-17.273-16.403-34.564-28.403-50.123l-2.941-3.813l-4.72-6.379
			c-7.1-9.597-15.239-18.043-24.142-25.252l-18.712-15.151l-9.938-7.031l-21.161-11.882c-23.141-12.993-48.638-19.997-75.068-23.416
			l-17.47-1.656l-31.487,0.162l-16.577,1.64c-37.917,3.751-79.563,23.39-110.688,46.104l-4.492,4.114l-8.702,6.759
			c-43.12,37.681-71.647,90.993-80.266,147.024l-0.861,11.908l-0.928,5.937l0,6.058l-1.002,1.329l0.912,588.689
			c-0.001,5.249-6.553,8.808-10.478,9.376c-3.723,0.539-12.376-2.051-12.376-7.779l0.02-600.214c0-8.027,2.894-15.005,2.008-22.491
			l0.728-8.845c1.651-0.473,2.189-2.801,2.818-5.208l6.297-24.118l7.558-20.496c6.813-18.474,17.281-35.076,28.281-51.401
			l2.311-4.829l4.782-5.17l11.07-12.977l9.855-11.091c7.48-8.418,16.029-15.085,24.845-22.131
			c18.884-15.091,38.999-27.614,60.946-36.752c23.468-9.772,48.539-16.159,73.821-18.847
			C2053.514,189.655,2066.813,189.766,2080.001,190.187z"/>
		<path style="&st18;" d="M2022.076,383.949c8.488-2.997,19.879-6.392,22.946-14.806l1.194-0.637
			c6.396-3.821,13.099-20.904,14.781-29.164l3.418-16.781c3.067,4.368,1.903,8.897,3.015,13.056
			c5.181,19.373,12.884,36.205,30.964,45.017c5.897,2.874,11.615,4.42,17.929,6.226l7.284,2.084
			c-20.793,5.353-38.481,10.992-47.849,30.767c-5.738,11.593-8.546,22.87-10.768,36.318l-6.175-25.868
			c-1.675-7.019-5.56-13.071-10.035-19.206c-5.726-7.849-15.001-14.156-24.688-16.9l-17.744-5.027l9.929-3.034L2022.076,383.949z"/>
		<path style="&st19;" d="M1988.153,631.839l-3.313-0.548l-2.468-3.644c-11.624-7.399-20.681-17.502-26.366-29.462
			c-2.605-4.699-4.231-9.73-4.643-15.631c43.644-6.24,80.284,17.978,97.759,57.56l-16.38,1.34l-18.62-0.965l-16.529-5.061
			L1988.153,631.839z"/>
		<path style="&st20;" d="M1827.911,1034.022l0.09-590.018l0-6.058l0.928-5.937l0.861-11.908l1.484-0.017l-0.414,6.336l-0.63,9.631
			l-1.201,10.288l-0.065,588.415c-0.001,6.916-7.796,10.148-12.51,10.359c-4.979,0.224-13.399-3.361-13.399-10.512l-0.029-591.259
			l1.052-9.281l0.682-10.072l2.327-11.075c0.886,7.486-2.008,14.464-2.008,22.491l-0.02,600.214c0,5.728,8.653,8.318,12.376,7.779
			C1821.358,1042.831,1827.91,1039.271,1827.911,1034.022z"/>
		<path style="&st21;" d="M2300.05,1034.968l1.911,0.173c0,3.551,4.535,6.961,7.1,7.61c5.088,1.318,8.446,0.051,12.397-2.399
			c2.756-4.413,2.614-8.084,2.612-13.668l-0.285-594.288c-0.01-20.751-5.986-40.823-10.523-59.933l-1.71-4.604l-0.177-1.982
			l-15.057-36.107l-0.319-2.739l0.175-1.127l7.158,15.009l2.691,6.368l3.91,9.869c6.573,16.591,10.744,33.692,13.181,51.672
			l1.533,11.308l1.321,10.202l-0.041,605.311c0,6.612-8.929,9.555-13.352,9.57C2307.981,1045.227,2300.051,1040.93,2300.05,1034.968
			z"/>
		<polygon style="&st22;" points="2300.786,419.034 2301.012,420.357 2302.087,438.715 2301.979,441 2302.069,489.637 
			2302.009,514.756 2301.978,528 2301.974,531.004 2301.969,544.061 2301.961,1035.141 2300.05,1034.968 2299.971,433.469 
			2298.915,425.016 2297.645,414.266 2299.335,411.932 		"/>
		<path style="&st3;" d="M2168.524,911.33l-0.727-1.586l-0.144-2.097c0.564-0.207,1.52-1.058,1.828-1.57l3.016-5.016l3.956-6.566
			c18.162-30.144,32.196-62.947,40.722-97.132l2.415-14.001l1.726-11.392l0.77-15.972c0.434-8.997,0.023-17.738-1.837-25.944
			l-1.643-7.248l-2.25-8.872l-1.287-4.069c-6.314-19.972-20.606-38.737-39.643-47.685l-6.371-2.995
			c-7.262-3.413-15.162-4.215-23.326-4.688l-7.747-0.448l-3.99-0.053l-5.512,0.05l-1.485-0.136c2.388-2.203,5.536-1.216,9.363-1.281
			l14.244-0.243c44.987,6.224,68.9,43.031,72.902,86.066l0.157,30.53l-1.08,9.995l-1.02,6.075l-2.401,11.026l-2.445,11.581
			l-5.47,17.675C2200.653,855.992,2185.882,884.571,2168.524,911.33z"/>
		<path style="&st5;" d="M2224.349,273.433l-0.608,1.858c-25.159-22.792-55.202-39.768-88.093-49.807
			c-13.866-4.232-27.256-7.352-41.632-8.453l-10.062-0.77l-33.017-0.021l-12.795,1.02c-44.253,5.646-85.127,22.922-119.136,50.815
			l-0.249-1.758l4.492-4.114c31.125-22.714,72.771-42.353,110.688-46.104l16.577-1.64l31.487-0.162l17.47,1.656
			c26.43,3.419,51.927,10.422,75.068,23.416l21.161,11.882l9.938,7.031L2224.349,273.433z"/>
		<path style="&st6;" d="M1988.153,631.839l9.441,3.589l16.529,5.061l18.62,0.965l16.38-1.34
			c-17.475-39.582-54.115-63.8-97.759-57.56c0.411,5.902,2.038,10.932,4.643,15.631l-2.192,0.129l-4.595-13.473
			c-1.239-3.632,3.195-5.119,6.384-5.451c24.127-2.511,47.402,5.596,66.454,20.623c11.366,9.566,19.816,21.016,26.732,34.248
			c1.161,0.978,3.058,5.256,1.927,6.409c-3.35,3.417-19.405,4.019-28.658,2.414c-11.529-0.72-22.027-4.143-32.601-8.539
			L1988.153,631.839z"/>
		<path style="&st23;" d="M2150.718,519.499l-2.297,1.401c-0.28,0.17-0.618-1.179-0.703-1.536l-3.5-14.653
			c-3.482-14.577-23.986-15.848-26.316-18.324c-0.652-0.693,2.065-2.563,3.021-2.622c10.666-0.653,20.216-7.051,23.455-17.329
			l4.945-15.691c3.151,8.937,3.174,16.047,7.972,22.873c4.414,6.28,11.612,8.554,18.945,10.214l2.839,0.643
			c0.792,0.179,0.889,2.577,0.69,3.231C2159.771,489.941,2152.601,499.863,2150.718,519.499z M2173.284,486.359
			c-6.264-3.13-12.771-5.575-17.002-10.678c-3.328-4.013-4.722-9.223-7.571-14.666c-3.192,13.516-11.517,22.068-24.291,24.806
			c16.779,5.925,19.93,11.319,24.77,25.5C2154.528,494.742,2157.9,492.028,2173.284,486.359z"/>
		<path style="&st3;" d="M2021.863,382.553l0.214,1.396l-5.798,2.047l-9.929,3.034l17.744,5.027
			c9.687,2.744,18.963,9.051,24.688,16.9c4.475,6.135,8.36,12.187,10.035,19.206l6.175,25.868
			c2.222-13.448,5.031-24.725,10.768-36.318c9.368-19.775,27.056-25.414,47.849-30.767l-7.284-2.084
			c-6.314-1.806-12.032-3.352-17.929-6.226c-18.08-8.812-25.783-25.644-30.964-45.017c-1.112-4.159,0.052-8.688-3.015-13.056
			l-3.418,16.781l-1.988-0.425l4.017-21.527c0.182-0.978,2.117-3.152,2.512-2.511c2.733,4.434,2.502,26.352,14.059,46.694
			l4.948,7.067c1.978,2.825,5.821,5.21,8.94,6.896l9.917,5.362c7.326,2.837,17.572,4.818,25.497,6.324
			c4.822,6.186-13.699,2.958-29.783,11.737c-9.71,5.3-17.368,12.073-22.122,22.177c-5.698,12.109-8.381,25.364-10.322,38.757
			l-0.398,2.745c-0.081,0.562-2.751,0.064-2.845-0.496l-1.807-10.732c-2.38-14.131-5.586-28.273-14.436-39.52
			c-7.5-9.531-20.004-16.049-31.489-18.309l-16.222-3.191c-0.123-0.672,0.069-2.676,0.756-2.825l2.651-0.576L2021.863,382.553z"/>
		<path style="&st6;" d="M2126.998,653.909l1.485,0.136l-0.499,1.103l-10.357,1.4l-8.802,1.992l-22.865,4.125l-15.954,0.896
			c-22.395,1.257-43.554-3.516-65.094-8.181c-13.021-2.82-25.617-1.231-37.837,0.671l-0.128-1.27l12.166-2.473l17.862-0.011
			l20.408,3.521c19.772,4.537,39.195,6.218,59.676,5.117l23.814-3.093l20.838-4.28
			C2123.18,653.26,2125.833,653.661,2126.998,653.909z"/>
		<path style="&st23;" d="M1918.757,266.317l0.249,1.758l-8.171,6.701l-19.911,20.142c-20.026,22.416-35.23,47.72-46.188,75.739
			c-5.047,12.905-8.038,25.713-11.193,39.15l-1.349,5.745l-0.921,4.531l-1.484,0.017c8.619-56.032,37.146-109.343,80.266-147.024
			L1918.757,266.317z"/>
		<path style="&st7;" d="M2283.053,304.248c-0.905-0.547-2.837-1.765-3.597-2.882c-25.996-38.207-61.613-68.608-103.627-88.028
			l-12.712-5.876l0.375-1.538c29.362,10.858,55.454,28.32,79.086,49.545c14.449,12.978,26.152,27.72,37.573,43.336
			C2281.499,300.648,2282.194,302.458,2283.053,304.248z"/>
		<path style="&st4;" d="M1914.924,809.962l0.161,1.888l0.53,1.057c12.143,38.466,30.186,74.552,52.976,107.828l-0.886,1.592
			l-3.081-4.024c-23.129-34.962-40.172-68.64-51.793-108.442L1914.924,809.962z"/>
		<path style="&st9;" d="M1855.078,298.018l-2.311,4.829c-11,16.326-21.468,32.927-28.281,51.401l-7.558,20.496l-6.297,24.118
			c-0.628,2.406-1.166,4.735-2.818,5.208c6.837-38.339,23.248-74.899,46.188-106.239
			C1854.491,298.074,1854.997,298.105,1855.078,298.018z"/>
		<path style="&st4;" d="M2129.02,961.056l-3.595,4.382c-8.571,10.446-25.688,22.67-38.733,27.056
			c-26.97,9.069-55.387,0.302-75.2-18.936l-12.721-12.353l1.787-0.594l13.835,12.823c19.541,18.112,47.346,25.981,72.095,17.198
			c7.501-2.662,14.872-6.514,20.713-11.304l10.468-8.584L2129.02,961.056z"/>
		<path style="&st9;" d="M2173.95,579.619l-3.114,1.285l6.529-0.796l2.416,2.146l-1.531,3.808l-0.44-3.543
			c-0.096-1.06-3.904-0.504-4.73-0.331c-7.924-1.488-15.193-2.015-22.613,0.344c-17.786,2.355-33.016,10.736-45.746,22.315
			c-6.008,5.465-11.634,11.513-15.886,19.042l-9.071,16.061c11.722,2.44,23.585,2.425,33.848,0.417l-0.015,2.131l-5.553,0.719
			c-9.761,1.263-25.026,1.648-31.459-2.87l11.226-18.653C2104.693,593.643,2141.458,574.974,2173.95,579.619z"/>
		<path style="&st8;" d="M2080.051,602.786l-1.736-0.769l4.002-12.638c2.371-7.486,2.437-32.753,0.453-38.273l-5.516-15.353
			c-2.052-5.71-9.444-16.693-11.77-17.872c-0.875-0.443-3.841,0.69-4.472,1.782l-9.364,16.188l-1.812-0.184
			c3.31-7.816,7.602-14.352,14.399-20.184c6.519,4.038,10.169,10.018,13.474,16.862c9.566,19.813,10.725,41.995,4.805,63.217
			L2080.051,602.786z"/>
		<path style="&st6;" d="M2051.65,535.85c-9.023,21.573-9.205,46.014-0.45,67.834l6.742,14.646l6.504,9.555l7.973-12.346
			l5.895-13.521l1.736,0.769c-1.859,6.232-5.103,12.362-8.598,18.591c-1.963,3.499-3.932,6.987-8.339,7.933
			c-20.318-27.812-26.514-62.384-13.276-93.644L2051.65,535.85z"/>
		<path style="&st7;" d="M2040.343,189.801l0.055,1.248c-25.282,2.688-50.354,9.075-73.821,18.847l-0.528-1.806
			c21.151-9.014,43.525-15.227,66.866-18.25L2040.343,189.801z"/>
		<path style="&st4;" d="M2150.074,200.963l0.131,2.254l-12.271-3.883l-29.951-6.442c-9.422-2.026-18.893-2.416-27.983-2.706
			l2.009-2.048C2105.136,188.26,2127.996,194.098,2150.074,200.963z"/>
		<path style="&st4;" d="M1941.305,669.551c-8.118,6.863-15.465,15.012-20.439,24.332c-6.33,11.861-11.103,24.852-12.561,38.212
			l-2.031-0.023c3.634-24.836,14.213-49.31,34.488-64.371L1941.305,669.551z"/>
		<path style="&st7;" d="M2284.555,359l4.094,10.972l1.54,10.275c-8.848-26.975-21.293-52.317-38.645-75.033l1.667-0.15l2.941,3.813
			C2268.152,324.435,2277.055,341.727,2284.555,359z"/>
		<path style="&st7;" d="M1956.006,598.186c5.686,11.959,14.742,22.062,26.366,29.462l2.468,3.644
			c-13.489-6.872-24.435-19.242-31.026-32.976L1956.006,598.186z"/>
		<path style="&st6;" d="M1913.789,805.736l1.135,4.226l-2.093-0.101l-6.009-27.774l-0.902-10.978
			c-0.092-1.12,0.435-3.538,1.321-4.149l2.556,21.014L1913.789,805.736z"/>
		<path style="&st8;" d="M1966.576,209.896c-21.947,9.139-42.062,21.662-60.946,36.752c-8.816,7.045-17.365,13.713-24.845,22.131
			l-9.855,11.091l-11.07,12.977l-4.782,5.17c-0.081,0.087-0.586,0.056-1.077-0.187c28.576-39.039,67.344-70.689,112.048-89.74
			L1966.576,209.896z"/>
		<path style="&st3;" d="M2082.01,188.138l-2.009,2.048c-13.188-0.421-26.487-0.532-39.603,0.863l-0.055-1.248
			c1.496-0.649,4.41-1.859,6.518-1.848L2082.01,188.138z"/>
		<path style="&st4;" d="M2168.524,911.33c-9.926,15.302-20.657,30.096-33.067,44.061c-1.773,1.995-3.486,3.589-5.593,4.103
			l10.17-12.459l10.45-13.459l1.989-2.288l15.324-21.545L2168.524,911.33z"/>
		<path style="&st3;" d="M2115.763,642.092l0.317-2.208l5.001-1.491c6.358-1.023,12.593-2.929,18.456-6.776
			c17.806-8.53,30.192-23.838,37.278-41.733l1.061-1.904l0.374-1.919l1.531-3.808
			C2175.942,612.385,2146.642,636.299,2115.763,642.092z"/>
		<path style="&st8;" d="M2253.211,305.064l-1.667,0.15l-9.043-10.821l-18.759-19.102l0.608-1.858
			c8.903,7.209,17.041,15.655,24.142,25.252L2253.211,305.064z"/>
		<path style="&st7;" d="M2060.997,339.342c-1.683,8.26-8.385,25.343-14.781,29.164c5.353-9.401,10.786-18.83,12.793-29.589
			L2060.997,339.342z"/>
		<path style="&st4;" d="M1906.891,742.12l0.351,24.839c-0.886,0.611-1.413,3.03-1.321,4.149l-0.941-2.023v-29.172l0.943-1.918
			C1905.86,739.053,1906.527,741.062,1906.891,742.12z"/>
		<polygon style="&st7;" points="2293.66,387.032 2299.335,411.932 2297.645,414.266 2292.26,386.554 		"/>
		<path style="&st8;" d="M1966.947,654.781l0.128,1.27l-1.99,0.124c-0.386,0.024-1.047,0.458-1.174,0.951l-5.843,3.003
			c-5.723,2.941-12.156,5.527-16.763,9.422l-0.542-1.851C1948.585,661.889,1957.379,656.726,1966.947,654.781z"/>
		<path style="&st6;" d="M2022.076,383.949l-0.214-1.396c8.719-2.038,16.429-7.907,23.159-13.41
			C2041.955,377.557,2030.564,380.952,2022.076,383.949z"/>
		<polygon style="&st22;" points="1503.97,642.021 1502.982,640.079 1502.982,606.922 1503.993,604.982 		"/>
		<path style="&st5;" d="M2296.174,325.903l-0.175,1.127l-4.218-5.895c-3.484-5.516-7.087-11.189-8.728-16.887
			c4.071,4.467,7.388,11.322,10.574,17.065L2296.174,325.903z"/>
		<path style="&st8;" d="M2000.557,960.611l-1.787,0.594c-11.895-11.55-21.983-25.127-31.065-38.878l0.886-1.592l12.658,17.402
			l11.573,14.13L2000.557,960.611z"/>
		<polygon style="&st8;" points="2163.492,205.925 2163.117,207.463 2150.206,203.217 2150.074,200.963 		"/>
		<path style="&st6;" d="M1908.305,732.095l-1.414,10.026c-0.364-1.059-1.03-3.068-0.968-4.125l0.351-5.924L1908.305,732.095z"/>
		<polygon style="&st3;" points="2173.95,579.619 2177.365,580.107 2170.836,580.903 		"/>
		<polygon style="&st24;" points="2116.08,639.884 2115.763,642.092 2113.596,642.498 2113.611,640.367 		"/>
		<path style="&st25;" d="M2215.072,709.864c-5.241-2.077-11.789,1.685-13.287,6.504c-0.476,1.529,0.2,4.702,1.439,5.154
			l5.663,2.067c0.381,2.545-2.98,3.706-6.009,3.694c-4.44-0.017-6.289,5.443-7.608,8.963c-2.526,6.737,3.154,12.847,0.841,13.214
			l-4.146,0.659c-0.881,0.14-3.364,0.115-3.74-0.596l-1.767-3.343l-7.591,0.382c-1.324,1.704-7.223,4.793-8.562,2.703l-5.056-7.888
			l1.598-6.536c0.324-1.325,1.702-5.009,3.143-4.737l7.485,1.761c0.475-1.968,1.329-4.91,1.939-6.024
			c5.812,1.633,1.118,5.046,3.989,10.366c0.713,1.322,4.14,1.841,5.525,1.131c-2.104-5.612-1.081-7.996,1.605-12.087l6.023-9.171
			c0.293-0.446,0.484-2.316,0.052-2.39l-3.182-0.545l-5.312-5.573l-4.54,9.934l-3.236-0.536c-0.854-0.141-1.921,2.362-2.423,3.217
			c-2.61,0.591-4.988,3.752-5.265,6.395c-0.109,1.042-3.244,2.035-3.843,1.257c-0.721-0.937-1.249-3.273-1.279-4.929
			c-0.018-0.979-3.315-2.098-3.79-1.242l-1.985,3.577c-3.261,5.876-11.899-2.476-17.323,1.264c-1.573,1.085-2.331,4.66-3.699,6.45
			c-2.081,2.72-4.365,5.886-3.702,8.814c0.259,1.141-2.035,3.341-2.892,2.993c-1.032-0.418-1.916-1.689-2.955-3.126l-2.608,2.042
			c-0.651,0.509,1.232,2.106,2.185,2.711c1.081,0.686,1.323,4.309,0.213,4.993c-1.111,0.684-3.889,1.459-5.195,1.411
			c-1.3-0.048-1.684-4.306-2.781-5.062c-8.503-3.682-9.41-8.277-12.652-9.965c-0.732-0.381-1.681,2.297-1.545,3.113l1.939,11.648
			c0.415,1.811-3.313,4.145-5.165,4.803l-2.162,0.768c-0.457,0.162,0.271,1.245,0.645,1.615c0.948,0.291,3.289,1.091,3.01,1.798
			l-1.29,3.265c-0.334,0.846-2.412,2.365-3.346,2.3c-1.122-0.078-2.422-2.11-3.406-3.576c-0.779-1.161-4.301,0.633-4.341,2.012
			c-0.041,1.441,1.146,4.287,2.317,5.036c1.578,1.008,4.262-0.106,5.887-1.778c1.918-1.974,7.717,0.028,7.229,3.318
			c-0.521,3.507-5.957,6.786-7.837,9.091c-2.348,3.206,2.394,5.639,4.834,5.272c3.878-0.583,5.253-1.164,6.393-6.695
			c1.659,0.951,3.393,2.232,4.944,3.636l1.953,1.768c0.438,0.396,1.52-1.62,1.189-2.109c-0.772-1.143-1.715-3.851-1.341-5.103
			c0.375-1.252,2.87-3.25,4.014-2.603l3.247,1.837c2.325,1.316,3.506-6.358,8.985-4.903l0.371,12.383
			c2.9-2.235,5.199-4.945,8.469-4.841c1.633,0.052,1.708,4.512,0.88,5.889c-1.158,1.925-3.08,2.769-6.307,2.604l-2.408,5.679
			l-8.052-1.975l4.457,5.174c-1.577,2.428-2.34,4.485-1.498,5.697c0.939,1.352,1.757,2.722,1.575,3.507
			c-0.181,0.783-1.763,2.263-2.531,1.996l-3.834-1.337c-0.896-0.312-1.83,2.224-2.223,3.091l-4.838,1.725
			c-0.855,0.43-2.427,1.745-3.359,1.852c-3.249,0.374-0.768-7.309-3.141-9.376c-2.146-1.869-7.675-0.549-10.957-4.123
			c-1.222-1.332-1.802-6.095-0.388-7.243l2.123-1.722c0.436-0.354-0.203-1.929-0.754-2.032c-0.551-0.104-2.114-0.004-2.62,0.246
			l-3.061,1.511c-0.996,0.492-10.903-6.963-6.338-10.861c1.571-1.342,4.32-1.087,4.501-5.127l-10.555,2.355
			c-2.093,12.117,5.158,16.715,3.966,21.698c-0.397,1.659-2.874,4.319-4.32,4.651c-6.601-3.379-8.392,7.4-18.449-0.676
			c6.91-9.012,11.935-20.75,10.15-32.45c-1.164-7.631-7.972-11.246-14.796-10.774c-6.123,0.424-11.044,5.747-11.522,12.189
			l-2.318-1.169c-0.61-0.389-0.457-2.9-0.053-3.493l4.377-6.421l-0.164-13.501l-8.669-9.613c-2.52-2.794-0.595-6.024,0.542-8.876
			l4.638-11.632l5.36,1.779c0.98-9.938,9.728-11.749,8.508-13.7l-1.853-2.965c-2.632-4.21,7.344-6.413,17.743-2.483
			c-1.532-2.626-3.015-4.904-3.249-6.504c-0.687-4.695,8.982-2.541,10.063-4.928c0.419-0.926,0.836-3.012,1.092-4.403l1.281-6.947
			c5.099,2.839,7.975,4.443,11.783,4.837l4.023-6.581c-1.655-0.77-3.912-3.919-3.264-5.325c3.93-3.914,13.195,4.54,15.268,9.811
			c0.401,1.02,0.019,4.476-1.022,4.731c-4.709,1.155-9.852-2.657-12.752,0.774c9.722,2.754,10.776,10.625,19.341,12.822l5.534-1.595
			c0.301-4.053,6.237-9.092,7.591-9.427c1.12-0.277,3.822,0.885,5.31,1.379l5.1-6.771c5.046,0.663,7.728,4.39,10.382,8.979
			l3.84-4.157c3.157-1.227,6.687-3.19,8.585-4.946c-13.16-8.945,3.69-6.809,7.378-19.492
			C2194.466,671.127,2208.757,689.892,2215.072,709.864z M2105.772,695.954l-5.648-3.725l-10.361-1.094l-5.22,5.059l13.608,1.452
			C2100.109,697.854,2102.25,697.219,2105.772,695.954z M2127.615,739.859c6.952-8.822,11.312-20.474,8.713-31.448
			c-0.683-2.884-5.446-6.758-8.334-7.24c-7.211-1.206-12.873,4.228-13.636,11.449c-0.867,8.209,2.844,16.851,6.593,24.305
			C2121.81,738.629,2126.512,741.259,2127.615,739.859z M2085.376,727.079l-3.813-10.955c-2.247-0.438-5.443,0.801-6.25,2.695
			c-0.855,2.008-0.146,6.317,1.727,6.674L2085.376,727.079z M2064.492,745.244c4.517,1.033,7.916-5.526,8.665-8.851l-3.541-5.539
			l-14.464,6.468c-1.678,0.75-3.312,2.591-4.471,4.763L2064.492,745.244z"/>
		<path style="&st25;" d="M2217.177,797.363c-8.526,34.185-22.56,66.988-40.722,97.132l-1.847-11.704
			c-0.134-0.985-3.107-2.36-3.955-1.897c-4.722,2.579-2.164,8.999-11.681,11.093c-0.404,1.871-2.066,6.428-4.03,6.913
			c-3.213,0.795-6.439,0.69-10.876,0.721c2.443,5.583,7.328,6.86,13.659,4.891c1.659,4.786-2.402,9.918-7.362,14.038
			c-4.298,3.571-9.531,4.043-13.732-0.466l-4.715-5.06l-3.187,1.788c6.083,4.91,0.853,9.857,5.838,16.257
			c0.117,1.235-2.585,3.83-3.776,3.32c-1.484-0.635-4.435-2.113-4.31-2.186l2.366-3.613c0.365-0.557-2.353-1.303-2.98-0.996
			c-3.329,1.631-10.04,2.536-14.233,3.259c-2.492,0.43-5.051,2.729-7.773,1.999c-2.312-0.62-3.883-4.295-4.157-6.554
			c-0.409-3.378-6.305,1.192-7.079,0.098l-1.99-2.811c-0.494-0.698,2.525-1.765,3.652-1.959c0.387-5.06,5.53-9.431,10.67-8.099
			c1.491,0.386,2.402,3.351,2.604,5.774c1.612,0.887,6.263,0.924,9.071,0.159c0.128-0.961-0.614-3.724-1.124-5.125
			c-0.459-1.261,1.751-3.163,3.381-4.188l-4.426-2.407c-0.897-0.488-0.891-3.439-1.189-4.439c-1-3.352-0.62-4.811,1.592-7.655
			l5.839-7.508c0.323-0.416-0.908-1.905-1.433-1.835l-3.729,0.497c-0.816,0.061-0.583-2.912,0.218-3.375l3.417-1.976
			c2.435-2.146,4.198-2.846,7.501-3.807c3.308-0.962,1.483-7.149-0.562-9.016c5.498-6.176,9.728-16.505,10.07-25.38
			c0.283-7.365-2.128-12.001-8.177-15.577c-3.482-2.059-9.797-1.588-12.08,0.748c-0.409,0.418-0.852,2.486-0.166,2.225l-2.136,1.226
			c-9.984,7.153-2.447,27.153,6.645,37.833l-5.313,2.107c4.828,1.399,6.098,1.95,6.617,7.202l-8.333,0.577l-4.296-7.568
			c-2.703-4.761-2.278-8.908,0.419-14.591l-12.269,7.945c0.528,1.677,1.084,5.171,0.002,6.286c-1.19,1.228-4.376,1.2-6.575,0.575
			c-1.391-0.395-3.393,1.884-5.076,4.121l-8.083-4.145c-4.878-2.501-4.163-13.833,1.433-14.887c4.363-0.822,8.05,0.119,9.452-5.342
			l11.133-3.504c-0.762-4.307-1.277-9.633-3.732-11.828c-1.867-1.67-4.974-4.078-3.137-5.598c2.134-1.766,2.77-2.599,3.676-5.273
			c7.094-1.326,5.759,5.753,8.431,7.344c0.519,0.309,2.388-0.572,2.826-1.23c2.779-4.175,1.223-11.548-4.762-14.675
			c2.809-3.215,5.137-1.803,7.978-0.948l7.677,2.31l6.474,1.169c3.212-2.422,6.494-4.237,10.029-5.859l0.902-4.413l8.999-1.138
			c3.865-0.489,5.135-6.433,3.053-10.498c5.558-1.674,10.718,1.925,15.959-5.037c0.646-0.858,0.831-4.256-0.119-4.703l-3.649-1.718
			l0.692-5.67l-4.911,0.332c-0.655,0.044-0.727-2.173-0.889-2.991c-1.74-3.05-3.183-9.032-0.581-11.483
			c7.766-7.318,6.874-13.73,9.367-13.211l4.4,0.916l10.986,0.251c4.083,0.093,6.073,1.036,8.579,3.835
			c2.254,2.517,3.409,5.374,1.223,8.727c-6.192,9.498-1.147,11.97-2.132,20.235l1.556,7.413l7.595,0.575l1.836-5.166
			c0.318-0.896,3.536-1.116,3.834-0.653l-2.459,3.19c-0.357,0.463,0.39,1.873,0.968,1.954l3.042,0.428
			c5.243,0.737-6.869,7.184-2.724,10.075l7.89,5.503c2.698-4.426,1.777-8.417,0.858-13.686
			C2211.243,796.031,2215.004,796.227,2217.177,797.363z M2173.968,795.903c8.067-9.964,10.742-20.604,9.996-31.759
			c-2.527-6.272-8.83-10.477-15.498-7.447C2155.249,762.703,2161.012,787.063,2173.968,795.903z"/>
		<path style="&st14;" d="M1968.69,761.125c-3.625-3.64-7.534-7.149-12.324-7.257c-5.557-0.125-10.77,3.34-12.492,9.116
			c-2.915,9.776,0.153,21.152,6.994,28.142l1.658,3.481c0.468,0.983,2.108,2.126,3.178,2.338c1.248,0.247,4.638-0.908,5.266-2.118
			l6.462-12.436c3.16-6.082,2.715-13.213,1.731-19.519c3.631-1.174,10.903,3.479,8.195,7.69l-3.403,5.29
			c2.516,6.68,1.131,14.08-5.314,17.892c-5.816,3.44,2.211,10.585-5.554,10.002l-11.207-0.842c-1.217-0.091-3.932-0.034-4.204-1.048
			l-1.208-4.502l-3.751-8.255c-3.414,2.629-1.835,7.547,0.279,10.965c-0.809,1.235-2.504,2.842-3.625,3.282
			c-1.118,0.438-4.388-1.081-4.259-2.233c0.176-1.574,0.898-4.385,0.21-5.305c-1.043-1.395-3.29-3.284-3.132-4.659l0.796-6.926
			l-7.451,6.344c-4.866,4.143-9.545,8.655-10.147,15.38l-1.6-0.211l-3.991-17.762l-2.556-21.014l-0.351-24.839l1.414-10.026
			c1.457-13.36,6.23-26.35,12.561-38.212l6.723,5.479c-2.544,5.49-10.12,4.59-10.516,8.352c-0.14,1.333,0.972,4.037,1.573,5.404
			c-1.013,2.545-1.527,4.806-0.542,8.347l-5.636,4.186c0.715,2.115,1.989,5.866,1.901,8.23l-0.375,10.063
			c-0.175,4.681,1.16,8.585,4.594,11.213l-0.787,8.938l13.455-0.894c1.374-0.091,3.938-0.828,5.058-1.445
			c0.935-0.515,1.025-3.697,0.163-4.284c-2.034-1.349-5.209-4.604-5.887-7.135l4.497-6.073l16.097-1.459l2.413-3.79
			c0.858-1.347,6.684,1.216,6.962,11.97c0.21,0.07,2.74-1.239,3.683-1.684l11.274-5.322c0.468,4.154,0.596,8.464-0.208,10.938
			L1968.69,761.125z"/>
		<path style="&st25;" d="M2220.251,730.054c1.86,8.206,2.271,16.947,1.837,25.944l-0.77,15.972l-1.726,11.392l-1.911-0.489
			c-0.479-0.215-0.263-1.736,0.029-2.188c1.733-2.68,0.264-5.522,0.079-8.188c-0.341-4.92,1.458-9.765-0.423-15.234
			c-3.785,3.036-3.586,4.948-3.824,10.312l-4.932-3.221c-1.614-1.054-3.917-2.878-4.323-4.365
			c-0.889-3.253,2.314-10.746,4.936-11.484c1.99-0.559,4.597-0.04,6.722,0.481c3.078-6.802-3.411-0.995-11.444-4.241
			c-2.725-4.172-0.959-10.19,1.274-13.162C2211.127,731.829,2215.637,731.166,2220.251,730.054z"/>
		<path style="&st25;" d="M2102.793,894.195l-3.847,0.306c-1.628,0.13,2.061,5.331-0.638,8.139c-0.936,0.974-3.519,0.55-5.28,0.615
			c-4.406,0.163-7.463,1.179-10.351-1.454c-3.007-2.741-2.965-5.707-1.995-10.303c0.56-2.652,2.293-3.688,4.903-5.135
			c8.008-4.439,6.959,2.002,15.474-0.478l6.602,3.275c0.75,0.372,0.588,3.389-0.181,3.704
			C2106.521,893.258,2103.994,894.099,2102.793,894.195z"/>
		<path style="&st25;" d="M2169.057,659.184l-6.972,4.079c0.275,3.38-0.085,9.058-3.331,10.341
			c-3.946,1.561-9.714-1.056-12.111-3.155l3.214-2.861c1.27-0.924,2.208-3.967,2.689-5.629c0.314-1.085,0.015-3.59-1.098-3.847
			l-4.041-0.934l-1.676-2.682C2153.896,654.969,2161.795,655.771,2169.057,659.184z"/>
		<path style="&st3;" d="M1968.69,761.125l0.473,1.748c0.984,6.306,1.429,13.437-1.731,19.519l-6.462,12.436
			c-0.629,1.21-4.018,2.365-5.266,2.118c-1.07-0.212-2.71-1.355-3.178-2.338c2.658,0.527,5.631-0.13,7.307-2.835
			c8.28-13.369,12.442-30.893-0.055-35.172c-4.57-1.565-10.323-0.141-12.779,4.396c-3.145,5.809-2.488,13.015-0.193,19.192
			l4.063,10.937c-6.841-6.99-9.909-18.366-6.994-28.142c1.722-5.776,6.935-9.242,12.492-9.116
			C1961.156,753.976,1965.065,757.485,1968.69,761.125z"/>
		<path style="&st3;" d="M2067.202,803.033c-10.849,1.393-17.063-18.952-16.167-31.035c0.478-6.442,5.399-11.765,11.522-12.189
			c6.824-0.472,13.632,3.143,14.796,10.774C2079.137,782.282,2074.112,794.02,2067.202,803.033z M2075.398,781.17
			c0.979-3.476,0.762-7.603-0.349-11.093c-1.93-6.061-7.445-9.133-13.46-8.036c-12.318,2.248-11.223,21.921-0.512,36.901
			C2066.084,805.944,2072.143,792.72,2075.398,781.17z"/>
		<path style="&st4;" d="M1994.021,848.026l4.575,11.074c1.61,3.898,3.521,7.069,7.282,9.016
			c8.489-7.985,14.267-23.748,9.694-33.483c-2.309-4.915-7.847-7.269-12.186-6.143c-5.345,1.387-8.415,5.086-9.062,10.82
			l-0.623,5.527c-0.773,0.563-1.733-1.841-1.784-2.748c-0.459-8.143,5.385-15.206,13.643-15.504
			c9.157-0.331,14.42,8.587,13.479,17.491c-0.996,9.426-4.124,19.132-11.565,25.534c-2.118,1.822-6.188-1.453-7.362-3.862
			l-6.71-13.759C1992.943,851.046,1993.312,847.611,1994.021,848.026z"/>
		<path style="&st25;" d="M2069.62,934.045c0.812-1.134,1.052-4.07,1.139-5.461c0.034-0.554,0.688-1.551,1.17-2.046
			c4.28-4.399,5.985-10.536,6.042-17.143l5.15-2.901c2.247,1.968,4.129,4.93,3.361,7.31c-0.777,2.407-2.698,4.424-3.891,6.483
			c-1.746,3.011-2.253,4.197-6.262,5.502l-1.914,8.738C2073.709,935.366,2070.76,934.914,2069.62,934.045z"/>
		<path style="&st25;" d="M2167.654,907.647l0.144,2.097l-15.324,21.545l-3.047-0.204c-0.338-0.023-0.406,0.552-0.208,0.815
			l1.266,1.678l-10.45,13.459c-1.877-3.933-0.06-8.06,4.298-9.771c1.24-0.487,3.432-1.13,3.673-2.175
			c0.242-1.049,0.176-3.315,0.131-5.562l4.421-2.963c0.278-4.588,2.019-7.147,5.865-9.155l3.848-5.205
			C2163.671,910.311,2165.969,908.264,2167.654,907.647z"/>
		<path style="&st8;" d="M2068.492,895.251c1.712,0.668,5.332,2.409,6.281,3.993c1.813,3.027,3.224,7.082,3.198,10.149
			c-0.057,6.607-1.761,12.744-6.042,17.143l2.739-9.925c1.46-4.576,1.565-8.507-0.103-13.185c-1.544-4.331-6.501-7.865-10.824-7.44
			c-8.452,0.831-12.637,9.313-11.533,15.502c1.672,9.371,5.086,17.116,11.714,24.164l6.837-7.07
			c-0.086,1.391-0.327,4.327-1.139,5.461c-1.098,1.533-4.792,3.341-6.319,2.982l-5.363-4.055l-2.164-4.24l-4.416-12.175
			c-0.865-2.386-0.428-7.397-0.374-10.726C2051.062,901.076,2058.493,891.352,2068.492,895.251z"/>
		<path style="&st25;" d="M2144.383,753.982l-1.323,3.566c-0.213,0.575-2.552,0.46-2.753,0.254l-0.954-9.058
			c-0.327-3.106,7.743-3.974,10.088-1.9c1.123,0.993,1.988,4.816,1.531,5.738L2144.383,753.982z"/>
		<path style="&st25;" d="M2117.627,656.549l-1.895,4.902c2.714,0.876,4.793,6.846,2.212,8.216
			c-3.561,1.889-5.042-3.413-6.113-5.241l-3.006-5.885L2117.627,656.549z"/>
		<path style="&st25;" d="M2074.773,899.244c-0.949-1.584-4.57-3.325-6.281-3.993l-0.543-1.825c3.455,0.48,5.441-0.746,7.846-2.436
			l1.7-1.196c0.359-0.253,0.46,1.998,0.258,2.387L2074.773,899.244z"/>
		<path style="&st25;" d="M2218.608,722.806l-4.206-0.613c-1.169-0.316-1.781-3.763-1.11-4.759l3.067-3.501L2218.608,722.806z"/>
		<path style="&st24;" d="M2145.731,654.497l1.676,2.682c-0.186,0.746-0.553,2.242-0.348,2.881c-3.546-0.878-7.53-2.844-9.075-6.012
			L2145.731,654.497z"/>
		<path style="&st24;" d="M2152.547,661.96c-0.482,1.662-1.419,4.704-2.689,5.629l-3.214,2.861l-1.549-1.11
			c-0.419-0.3,0.764-1.697,1.165-2.019l2.49-1.994l-1.689-5.267L2152.547,661.96z"/>
		<path style="&st14;" d="M1924.194,756.169l-3.181-0.752c-0.796-0.188,0.679-2.715,1.468-2.849l2.871-0.487
			c0.748-0.127,1.383,1.478,1.382,2.236C1926.734,755.077,1924.92,756.34,1924.194,756.169z"/>
		<path style="&st24;" d="M2133.995,653.996c0.051,1.05-1.417,2.956-2.474,3.199s-2.858-1.144-3.537-2.046l0.499-1.103
			L2133.995,653.996z"/>
		<polygon style="&st25;" points="2172.499,901.061 2169.482,906.077 2167.813,904.601 		"/>
		<path style="&st25;" d="M2057.938,932.972l-2.75-1.615c-0.568-0.333,0.299-1.946,0.586-2.625L2057.938,932.972z"/>
		<path style="&st25;" d="M2140.875,925.449l-4.851,0.632l2.503-3.898C2138.936,921.545,2140.569,924.355,2140.875,925.449z"/>
		<path style="&st25;" d="M2077.181,848.14c-0.022-0.376,1.877-0.02,1.866,0.37l-0.058,1.957c-0.011,0.389-1.616,0.953-1.639,0.564
			L2077.181,848.14z"/>
		<path style="&st25;" d="M2118.696,932.638c1.117-0.372,2.398-0.694,2.273-0.275l-0.524,1.759
			C2120.321,934.542,2119.301,933.449,2118.696,932.638z"/>
		<path style="&st25;" d="M2067.696,888.638c1.117-0.372,2.398-0.694,2.273-0.275l-0.524,1.759
			C2069.321,890.542,2068.301,889.449,2067.696,888.638z"/>
		<path style="&st6;" d="M1963.91,657.126c0.128-0.492,0.788-0.926,1.174-0.951L1963.91,657.126z"/>
		<path style="&st6;" d="M1915.615,812.907l-0.53-1.057L1915.615,812.907z"/>
		<path style="&st25;" d="M2313.261,372.463c4.537,19.11,10.513,39.183,10.523,59.933l0.285,594.288
			c0.003,5.584,0.144,9.255-2.612,13.668c-3.951,2.45-7.309,3.717-12.397,2.399c-2.564-0.649-7.1-4.059-7.1-7.61l0.007-491.08
			l3.546-4.61l2.256-3.155c0.502-0.702-1.222-2.67-1.991-3.237l-3.805-2.055l0.004-3.004c0.795,0.085,2.408-0.074,2.722-0.762
			l1.492-3.267c0.738-1.616,1.878-4.484,1.438-6.105c-0.447-1.644-3.84-3.02-5.62-3.109l0.06-25.12l7.837-5.619
			c-2.091-2.139-3.403-3.478-3.846-4.592c-0.487-1.223,1.783-3.326,2.769-4.412l4.005-4.413c2.318,1.553,3.641,4.894,4.359,8.394
			l2.698,13.141l2.076-0.266l0.044-40.848l0.012-11.162l-8.253,1.961l6.721-10.575c2.268-3.569-0.103-10.735-0.697-15.406
			c0.581-2.695-1.555-2.062-1.845-0.356c-0.284,0.99-1.226,2.81-1.623,2.446l-2.396-2.203c1.932-2.822,4.282-6.149,4.178-9.474
			c-0.067-2.154-3.035-5.194-4.748-5.35c-1.897-0.174-4.734,1.499-6.162,3.154c-8.104,9.395-3.656,13.108-4.655,13.974l-1.759,1.004
			l-1.451-7.102l-5.675-24.9l6.999-2.696c0.641,5.824-4.525,10.26-1.497,11.067c4.681,1.248,10.493,0.526,14.443-1.784
			c2.936-1.717,2.247-7.753-0.373-8.506l-4.727,0.583l-5.622-2.787c0.138-1.488,1.345-4.301,2.639-5.226L2313.261,372.463z
			 M2321.575,547.51c1.182-0.905,0.836-5.675-0.328-6.14c-8.221-0.861,5.322-5.869-1.378-12.933
			c-10.833,4.65-5.25,10.378-9.44,14.865l-3.191,3.417c-0.744,0.796,0.99,4.393,1.259,3.791l7.983-0.128L2321.575,547.51z
			 M2322.058,652.367l-0.381-13.926c-3.404,2.823-5.274,9.516-4.213,11.577C2318.018,651.093,2320.338,652.044,2322.058,652.367z
			 M2312.087,638.93c-2.214,0.78-3.684,2.27-4.524,4.095c-0.518,1.125-0.068,2.901,1.63,4.969
			C2311.089,645.321,2311.717,643.59,2312.087,638.93z"/>
		<polygon style="&st23;" points="1827.911,1034.022 1826.999,445.334 1828,444.004 		"/>
		<path style="&st26;" d="M2300.66,384.336c0.647-0.249,1.864-1.092,2.225-1.427l5.622,2.787l4.727-0.583
			c2.62,0.753,3.309,6.789,0.373,8.506c-3.95,2.31-9.762,3.032-14.443,1.784C2296.135,394.596,2301.301,390.16,2300.66,384.336z"/>
		<path style="&st25;" d="M2288.649,369.972L2284.555,359c1.8-0.269,3.275,1.058,3.797,2.549l2.795,7.996L2288.649,369.972z"/>
		<path style="&st23;" d="M1828.001,437.946l0.928-5.937L1828.001,437.946z"/>
		<path style="&st25;" d="M2311.375,365.877l0.177,1.982l-2.572-0.238c-0.405-0.065,0.123-1.534,0.529-1.562L2311.375,365.877z"/>
		<path style="&st26;" d="M2322.012,451.022l-0.044,40.848l-2.076,0.266l-2.698-13.141c-0.719-3.5-2.041-6.841-4.359-8.394
			l-4.005,4.413c-0.986,1.086-3.256,3.189-2.769,4.412c0.443,1.114,1.755,2.453,3.846,4.592l-7.837,5.619l-0.09-48.636l7.118-1.123
			l4.875,5.043C2316.579,447.615,2319.008,450.224,2322.012,451.022z"/>
		<path style="&st16;" d="M2322.012,451.022c-3.004-0.798-5.433-3.407-8.039-6.102l-4.875-5.043l-7.118,1.123l0.108-2.285
			c4.696-0.554,4.342-4.707,9.734-2.292c3.125-2.461,0.792-7.413-0.034-10.927l-2.101-8.938l-8.674,3.799l-0.226-1.322l1.759-1.004
			c0.999-0.866-3.449-4.579,4.655-13.974c1.427-1.655,4.264-3.327,6.162-3.154c1.713,0.157,4.681,3.197,4.748,5.35
			c0.104,3.325-2.247,6.652-4.178,9.474l2.396,2.203c0.397,0.365,1.339-1.456,1.623-2.446c0.29-1.707,2.426-2.34,1.845,0.356
			c0.594,4.671,2.965,11.837,0.697,15.406l-6.721,10.575l8.253-1.961L2322.012,451.022z"/>
		<path style="&st25;" d="M2302.087,438.715l-1.075-18.358l8.674-3.799l2.101,8.938c0.826,3.514,3.16,8.466,0.034,10.927
			C2306.428,434.008,2306.782,438.161,2302.087,438.715z"/>
		<path style="&st26;" d="M2301.978,528l0.031-13.244c1.781,0.089,5.173,1.465,5.62,3.109c0.441,1.621-0.7,4.489-1.438,6.105
			l-1.492,3.267C2304.386,527.926,2302.773,528.085,2301.978,528z"/>
		<path style="&st26;" d="M2301.969,544.061l0.005-13.057l3.805,2.055c0.769,0.567,2.493,2.535,1.991,3.237l-2.256,3.155
			L2301.969,544.061z"/>
		<path style="&st13;" d="M2173.284,486.359c-15.384,5.669-18.756,8.383-24.094,24.962c-4.84-14.181-7.991-19.575-24.77-25.5
			c12.774-2.739,21.099-11.29,24.291-24.806c2.85,5.443,4.243,10.652,7.571,14.666
			C2160.513,480.784,2167.02,483.229,2173.284,486.359z"/>
		<path style="&st24;" d="M2178.25,586.061l-0.374,1.919l-1.061,1.904c-7.086,17.895-19.472,33.202-37.278,41.733
			c-5.863,3.847-12.098,5.753-18.456,6.776l-6.208-5.954l-5.046-9.268c-0.637-1.17-3.341-3.447-2.743-4.584l2.429-4.615
			l-4.792-9.125c12.73-11.58,27.96-19.961,45.746-22.315c7.42-2.359,14.689-1.832,22.613-0.344c0.826-0.174,4.635-0.729,4.73,0.331
			L2178.25,586.061z"/>
		<path style="&st1;" d="M2121.081,638.393l-5.001,1.491l-2.468,0.483c-10.263,2.009-22.126,2.023-33.848-0.417l9.071-16.061
			c4.252-7.529,9.878-13.577,15.886-19.042l4.792,9.125l-2.429,4.615c-0.598,1.137,2.106,3.414,2.743,4.584l5.046,9.268
			L2121.081,638.393z"/>
		<path style="&st15;" d="M2078.315,602.017l-5.895,13.521l-7.973,12.346l-6.504-9.555l-6.742-14.646
			c-8.756-21.819-8.573-46.261,0.45-67.834l9.364-16.188c0.631-1.091,3.597-2.225,4.472-1.782
			c2.326,1.179,9.718,12.162,11.77,17.872l5.516,15.353c1.983,5.52,1.917,30.787-0.453,38.273L2078.315,602.017z"/>
		<path style="&st0;" d="M2152.474,931.289l-1.989,2.288l-1.266-1.678c-0.198-0.263-0.131-0.837,0.208-0.815L2152.474,931.289z"/>
		<path style="&st9;" d="M2176.815,589.884l1.061-1.904L2176.815,589.884z"/>
		<path style="&st16;" d="M2064.492,745.244l-13.812-3.16c1.159-2.172,2.793-4.013,4.471-4.763l14.464-6.468l3.541,5.539
			C2072.408,739.718,2069.009,746.277,2064.492,745.244z"/>
		<path style="&st16;" d="M2105.772,695.954c-3.523,1.265-5.663,1.901-7.621,1.692l-13.608-1.452l5.22-5.059l10.361,1.094
			L2105.772,695.954z"/>
		<path style="&st16;" d="M2085.376,727.079l-8.336-1.586c-1.873-0.357-2.582-4.666-1.727-6.674c0.807-1.895,4.003-3.133,6.25-2.695
			L2085.376,727.079z"/>
		<path style="&st3;" d="M2126.118,868.625c-1.152,1.294-4.325,1.242-5.844,1.075c-9.092-10.68-16.63-30.68-6.645-37.833
			l-3.006,9.172c1.438,8.381,3.822,15.573,7.101,23.281c1.138,2.675,6.618,4.384,8.079,1.486l5.07-10.066
			c3.49-6.928,4.825-15.287,0.705-22.39c-3.268-5.634-10.909-5.524-15.812-2.709c-0.686,0.261-0.243-1.807,0.166-2.225
			c2.283-2.336,8.598-2.807,12.08-0.748c6.049,3.576,8.461,8.213,8.177,15.577C2135.846,852.12,2131.616,862.449,2126.118,868.625z"
			/>
		<path style="&st26;" d="M2321.575,547.51l-5.096,2.872l-7.983,0.128c-0.268,0.602-2.002-2.995-1.259-3.791l3.191-3.417
			c4.19-4.487-1.394-10.215,9.44-14.865c6.7,7.064-6.843,12.072,1.378,12.933C2322.411,541.834,2322.757,546.605,2321.575,547.51z"
			/>
		<path style="&st26;" d="M2322.058,652.367c-1.72-0.323-4.04-1.275-4.594-2.349c-1.062-2.06,0.809-8.754,4.213-11.577
			L2322.058,652.367z"/>
		<path style="&st26;" d="M2312.087,638.93c-0.37,4.66-0.998,6.391-2.893,9.065c-1.698-2.068-2.148-3.844-1.63-4.969
			C2308.403,641.201,2309.873,639.71,2312.087,638.93z"/>
	</g>
</g>
</svg>
