<?xml version="1.0" encoding="UTF-8"?>
<svg id="Layer_1" data-name="Layer 1" xmlns="http://www.w3.org/2000/svg" viewBox="0 0 1030 1085">
  <defs>
    <style>
      .cls-1 {
        fill: #cd1d16;
      }

      .cls-2 {
        fill: #cc1610;
      }

      .cls-3 {
        fill: #ce1912;
      }

      .cls-4 {
        fill: #ab1615;
      }

      .cls-5 {
        fill: #a40e0e;
      }

      .cls-6 {
        fill: #ce2119;
      }

      .cls-7 {
        fill: #ce1710;
      }

      .cls-8 {
        fill: #bc2e2e;
      }

      .cls-9 {
        fill: #a91211;
      }

      .cls-10 {
        fill: #cb1812;
      }

      .cls-11 {
        fill: #c91913;
      }

      .cls-12 {
        fill: #b22222;
      }

      .cls-13 {
        fill: #c91812;
      }

      .cls-14 {
        fill: #ae1311;
      }

      .cls-15 {
        fill: #ba2a29;
      }

      .cls-16 {
        fill: #cd1e16;
      }

      .cls-17 {
        fill: #aa1413;
      }

      .cls-18 {
        fill: #ae1817;
      }

      .cls-19 {
        fill: #b22d2d;
      }

      .cls-20 {
        fill: #b22523;
      }

      .cls-21 {
        fill: #cf1f16;
      }

      .cls-22 {
        fill: #cb1b14;
      }

      .cls-23 {
        fill: #ca1812;
      }

      .cls-24 {
        fill: #cd1912;
      }

      .cls-25 {
        fill: #c91813;
      }

      .cls-26 {
        fill: #a51212;
      }
    </style>
  </defs>
  <path class="cls-13" d="M574.18,28.28l7.89,1.32,9.11,1.64,12.01,1.94,27.53,6.52,8.94,3.06,22.62,6.6,17.77,6.94,14.52,6.09,5,2.26,16.56,8.03,16.95,9.41,5.47,2.39,3.09,2.18,3.76,2.75,12.88,7.75,9.02,5.78,3.89,3.27,20.52,14.77,19.65,15.72c3.74,2.99,6.72,7.72,11.14,9.08l22.49,23.46,8.6,8.98,7.4,8.64c.4.47,2.22,1.24,2.66.86l.56,1.03-.58,1.09,7.44,8.51,3.69,4.5,3.98,5.06,3.47,4.66,5.21,7.16,10.43,14.94,10.36,15.89,29.38,53.7-5.5,4c3.49,6.13,7.46,4.32,8.5,7.02.77,1.99.26,3.47-.53,5.75-.83,2.41,2.32,4.74,5.61,4.65l-.64,10.84c.97,2.3,5.43,4.89,7.09,6.91,2.49,3.03-2.09,7.08-4.88,7.55-2.32.39-3.42.52-4.9-.49-2.58-1.77-1.75-6.59-.43-11.26.74-2.63-3.22-3.68-5.28-4.13-3.53-.77-2.48-5.59-1.03-7.69,2.15-3.12,1.19-6.51-1.91-8.09-7.07-3.6-4.55-10.72-7.25-12.4-1.55-.97-4.7-1.72-6.82-1.76l-3.04-5.65-8.57-15.86-4.52-8.23-6.07-10.07-11.5-17.98-5.29-6.83c-.95-1.22-2.13-2.3-3-2.89l-1.02-.69.4-.94c-1.68-4.95-5.6-8.86-8.97-13.14l-8.51-10.84-4.13-4.66c-1.81-1.82-2.65-3.67-4.44-5.55l-12.4-13-13.99-14.54c-4.13-4.3-7.26-8.95-12.18-12.64l-4.52-3.39-11.54-11.12c-.36-.34-2.5-.4-2.53-.34-.59-2.13-2.36-3.16-4.31-4.83l-6.06-5.21-23.08-16.47-24.46-15.72-22.77-12.44-6.57-4.04-15.26-6.85-19.49-8.43c-16.09-6.96-32.97-11.04-49.75-15.95-1.54-.85-3.37-1.69-5.17-2.06l-27.44-5.57-7.02-1.16-12.42-1.64-14.84-1.63-23.81-1.41-42.6.22-9.03.84-10.54.96-14.04,1.64-6.4,1-7.67,1.18c-11.08,1.7-22.03,3.45-32.82,6.79l-14.9,4.61-14.55,4.26-12.81,4.3-11.94,5.01-17.62,7.24-7.8,3.73-10.65,5.67c-8.1,4.31-16.26,8.12-24.07,12.97l-14.09,8.77c-6.61,4.11-12.63,8.43-18.89,12.95-5.83,4.22-11.62,7.97-17.12,12.65l-20.74,17.6c-4.81,4.08-9.55,8.05-13.91,12.37l-9.92,9.83-7.74,7.77-15.11,16.83-6.36,7.87c-.6.75-2.33,1.87-3.1,2.23-8.13-.69-9.6-6.49-13.71-9.06.1-.47.71-2.14,1.16-2.63l6.16-6.66,8.17-9.33,14.08-15.2,7.76-8.68c4.19-3.22,8.12-6.86,11.56-11.04l14.26-12.29,9.79-8.4,14.77-11.78,16.1-11.4,8.01-5.9,15.82-9.75c7.44-4.58,14.4-8.95,22.57-12.62,4.45-2,9.51-4.69,10.62-8.09l.72.49c2.3-.31,4.87-1.22,7.41-2.33l22.46-9.78,16.56-6.97,17.54-5.81,12.46-3.44,6.81-2.17,8.33-2.46,29.05-6.12,6.49-.79,8.13-1.4,10.01-1.32,17.15-1.56,14.94-.62,7.2-1.42,31.24-.18c1.88.78,4.33,1.46,6.49,1.56l17.3.77,19.8,2.01Z"/>
  <path class="cls-6" d="M937.6,304.26l.52.69,9.81,22.9,8.03,20.3,2.36,8.27c-2.17.79-4.37-.14-5.29-2.11-.29-.62-.51-1.34-.79-1.33l-1.86.08c-1.39,4.34-1.76,9.88-1.31,14.03l6.79,2.01,2.54-6.87c.25-.67,1.49-2.24,2-2.14l7.34,23.68,7.1,25.67,3.76,15.85,9.24,56.45,2.86,32.45.52,9.11-.15,51.2-2.64,33.97-.93,7.73c-6.37,53.2-19.82,104.89-42.15,153.58l-9.07,19.78-9.83,19.67-12.55,21.81-9.23,14.6-7.71,11.34-7.07,9.93-11.73,15.38-11.05,13.63-9.09,10.54-8.36,9.65-16.1,16.7-14.44,13.51-9.21,8.02-12.5,10.38-4.06,4.93-.83-.33-1.23-.24-1.39-5.11c.12-.82,2.24-.07,3.76,1.13.69-.04,2.6-1.35,3.34-2.23s.44-3.31.16-4.74l5.26,1.12-1.56-6.19-7.91-5.28,6.46-5.63,13.97-12.34,9.95-10.19c.31-.32.95-1.7.82-1.96l.82-.75c1.7-.28,2.97-1.55,4.42-3.02l12.29-12.46,3.32-4.7,13.35-15.28,5.83-7.47c.96-1.24,1.71-2.44,1.99-3.73,1.89-.81,3.08-2.5,4.5-4.49l6.54-9.13,16.34-23.54,9.93-15.82c17.76-30.67,32.32-62.58,43.69-96.22l5.44-16.11,11.2-43.65,6.91-38.07,4.16-42.59c1.89-19.33,1.76-38.08.39-57.36l-1.98-27.9-2.6-23.65c-3.57-24.4-8.15-48.16-14.88-71.45l-5.28-18.27-.63-2.18c-.08-.29-.87-.23-1.01-.37.26-2.77-1.57-7.69-2.76-10.89l-3.8-10.2-17.14-41.92-5.55-11.32c2.11.04,5.27.79,6.82,1.76,2.69,1.68.18,8.79,7.25,12.4,3.1,1.58,4.06,4.97,1.91,8.09-1.45,2.1-2.5,6.92,1.03,7.69,2.07.45,6.02,1.5,5.28,4.13-1.32,4.67-2.15,9.49.43,11.26,1.48,1.02,2.58.88,4.9.49,2.79-.47,7.38-4.52,4.88-7.55-1.66-2.02-6.13-4.61-7.09-6.91l.64-10.84c-3.29.09-6.44-2.24-5.61-4.65.79-2.28,1.29-3.76.53-5.75-1.04-2.7-5.01-.89-8.5-7.02l5.5-4Z"/>
  <path class="cls-16" d="M166.98,212.68l-.41,2.21c-1.94,1.22-3.13,3.29-4.62,5.3l-3.41,4.6-2.98-2.24-1.08-.93c-.33-.29-1.99.58-1.83.99l2.6,5.56-2.83,3.91-3.38,5.49-9.27,12.85-9.68,14.85-9.86,16.5c-1.58,2.65-2.7,6.08-4.5,8.64-1.12,1.59-1.61,2.9-1.62,4.42l-.11.44c-.41-.16-1.85,1.14-2.18,1.82l-7.13,14.28c-20.6,41.24-34.89,84.68-43.68,129.97l-4.79,28.4-1.68,13.19-1.45,12.43-1.55,24.68-.7,4.1.23,46.34,3.66,42.92,6.74,41.19,8.49,34.94,7.38,24.56,7.83,21.57,7.63,19.61,8.89,19.79,5.41,11.04,9.73,18.57,5.59,9.51,4.12,7.62-7.94,3.74-1.57,8.56-.75,1.52-3.52-5.99c-.41-.69-1.94-2.08-2.76-1.84l-1.63-3.86-2.21-4.94-9.23-17.19c-12.58-23.44-23.13-47.34-31.39-72.23l-5.35-16.12c-7.92-23.86-13.22-48.52-17.74-73.66-.07-.41-.27-1.65-.25-1.7.01-.03-.7.11-1.1.15l-.56-7.56-1.67-15.95-3.07-29.99-1.33-6.8.85-10.35-.31-13.4c-.13-5.64-.55-11.39-.28-16.95l.59-12.44-.76-10.53c.44-.09,1.31-1.96,1.33-2.58l.28-6.62.95-12.92,1.76-15.33,3.4-22.79,4.32-22.76c7.97-41.95,28.08-99.57,48.1-137.23l9.69-18.22,6.86-12.08,8.88-14.17,11.76-17.6,12.94-18.13c2.45-3.44,5.83-6.97,8.44-10.2,4.12,2.56,5.59,8.37,13.71,9.06ZM119.76,816.51c-.2-.76-1.1-2.12-1.66-2.82l-1.34-1.66c-1.14-1.41-8.13,5.8-5.29,13.87,4.87-.24,8.55-8.4,8.29-9.39Z"/>
  <path class="cls-11" d="M137,836.03l-.08.16c-.14.3-.16,1.3.16,1.45l1.99.5-.37.76c.19.57.8,1.91,1.31,2.64l10.17,14.58,8.01,10.89,10.8,13.7c3.22,4.08,6.26,7.78,10.15,11.22l3.07,4.28,8.86,9.3,7.36,7.4,3.83,5.02,24.87,22.79,3.98,2.62,6.11,6.05,15.63,11.65,14.79,10.57,6.35,4.3,15.89,10.35,13.74,7.69,5.74,3.92,28.15,13.71,21.97,9.2,11.29,3.8,4.41,1.95,10.12,3.81,16.49,4.71,33.13,7.75,16.54,3.37,11.86,1.34,17.27,1.55,10.33,1.06,44.61.13,17.19-1.47c3.46-.3,6.63-.67,9.11-2.39l.69.53c4.65.76,9.74-.46,14.92-1.08l9.01-1.07-.03,1.31c.02.48,1.83.56,2.3.44l19.16-4.92c1.29-.33,3.97.37,4.6,1.31.7,1.03.69,3.12.57,4.6l-.18,6.61-8.23,1.79-9.13,1.67-7.55,1.48-12.93,2.64-10.05,1.23-17.13,1.42-13.93.77-10,.73-20.84-.1-21.74-1.41-17.98-1.39-10.05-1.23-12.97-2.61-7.72-1.48-10.42-1.97-31.62-7.75-15.69-4.99-24.57-8.88-12.41-4.87-4.6-2.6-31.01-15.1-5.11-3.07-23.17-13.65-16.99-10.97-5.3-3.73-9.05-6.69-13.75-10.61-13.98-11.57-10.72-9.64-10.72-9.85-11.01-11.17-13.28-14.56-6.9-5.44-.78-.87v-1.12c-.03-2.39-2.88-4.31-4.64-6.41l-4.14-4.96-5.06-6.57-13.59-18.14-9.74-13.82-2.5-3.52-5.6-9.52.75-1.52,1.57-8.56,7.94-3.74,7.07,10.73c1.02,1.54,1.98,3,3.38,3.52Z"/>
  <path class="cls-20" d="M898.14,857.96l-1.18-.98,7.71-11.34,9.23-14.6,12.55-21.81,9.83-19.67,9.07-19.78c22.34-48.69,35.78-100.38,42.15-153.58l.93-7.73,2.64-33.97.15-51.2-.52-9.11-2.86-32.45-9.24-56.45-3.76-15.85-7.1-25.67-7.34-23.68-2.09-3.67-2.36-8.27-8.03-20.3-9.81-22.9,1.06-.63c1.15,2.68,2.96,5.6,4.13,8.48l3.79,9.35,3.5,7.87,2.24,5.42,4.83,12.6c17.4,45.36,27.85,92.43,32.52,140.9l1.09,11.32.74,8.22.86,12.25v56.55s-.82,9.87-.82,9.87l-.81,9.09-.88,9.68-1.89,15.34c-4.91,39.79-14.02,78.39-28.25,115.9l-7.69,20.28-5.15,12.19-12.65,26.67-5.16,9.61-3.23,5.84-2.63,5.53-9.33,16.08-8.61,13.46-7.64,11.15Z"/>
  <path class="cls-11" d="M778.53,980.4l-15.93,11.02-5.73,4.16-14.33,8.58-14.36,8.42-27.55,13.08-7.14,4.07-12,4.57-21.08,7.65-11.41,4.27-6.55,2.15-19.91,4.94-.18-1.55,13.99-3.68,12.34-3.55c.41-.12.9-2.09.97-2.51.09-.57,1.87.22,2.54.47l6.76-2.11,27.98-10.43c-3.66-1.36-7.4,2.94-9.87.59l-7.44-7.08c1.23-2.42,4.45-2.63,7.07-1.92s3.57,1.42,4.61,4.46c5.21-2.9-3.15-4.41.24-8.02l1.49-2.29,3.4-1.49-.19,1.35c-1.21,1.65-1.42,4.05-1.06,6.48.55,3.76,2.1,5.78,6.01,6.26,2.78.34,4.72-2.45,6.33-5.29,2.52-4.45,11.89,1.27,16.38-6.63,3.84-1.74,10.95-.81,13.64-5.88.87-1.65,2.04-2.57,3.69-3.66l6.72-4.48c1.18.43,3.71,1.18,4.16.38l1.89-3.41c2.29-.6,4.87-2.12,6.27-3.31,3.02-.09,4.88-.87,6.74-3.69l3.19-4.84,1.67-2.94c.91-1.6,7.83,3.7,10.79-2.24s-5.89-5.44-4.83-13.28c2.76,1.12,6.03,3.17,8.92,5.3l-1.33,5.79,3.14.33Z"/>
  <path class="cls-18" d="M612.86,1054.13l9.49-2.38.18,1.55-27.2,6.23-17.97,3.28-19.05,2.27-9.65.84-13.44.68-39.9.06-14.02-.72-11.26-.88-28.41-3.53-8.76-2.01-60-15.26c-1.1-.67-3.04-1.96-4.17-2.33-13.08-4.35-25.62-8.64-37.86-14.71l-31.77-15.76-12.04-6.95-15.24-9.3-16.19-10.76,1.41-.66,16.99,10.97,23.17,13.65,5.11,3.07,31.01,15.1,4.6,2.6,12.41,4.87,24.57,8.88,15.69,4.99,31.62,7.75,10.42,1.97,7.72,1.48,12.97,2.61,10.05,1.23,17.98,1.39,21.74,1.41,20.84.1,10-.73,13.93-.77,17.13-1.42,10.05-1.23,12.93-2.64,7.55-1.48,9.13-1.67,8.23-1.79Z"/>
  <path class="cls-9" d="M144.83,213.82l-12.94,18.13-11.76,17.6-8.88,14.17-6.86,12.08-9.69,18.22c-20.02,37.65-40.13,95.27-48.1,137.23l-4.32,22.76-3.4,22.79-1.76,15.33-.95,12.92-1.66.13.59-6.55.82-9.03.77-7.45,1.05-8.32c4.76-37.76,12.82-74.42,25.65-110.21l5.89-16.42,8.87-22.19,11.11-24.1,5.77-11.55c6.76-13.53,14.16-26.3,22.52-38.91l10.19-15.37c5.24-7.9,10.65-15.49,16.34-22.61l.75,1.34Z"/>
  <path class="cls-4" d="M574.2,26.88v1.4s-19.81-2.01-19.81-2.01l-17.3-.77c-2.16-.1-4.61-.78-6.49-1.56l-31.24.18-7.2,1.42-14.94.62-17.15,1.56-10.01,1.32-8.13,1.4.08-1.72,24.67-3.23,5.65-1.37,12.19-.93,14.06-.75c11.16-.6,22.23-.48,33.17.08l14.41.74,9.22.47,4.98,1.27,13.82,1.87Z"/>
  <path class="cls-4" d="M898.14,857.96l-14.21,19.52-13.32,16.84c-4.97,6.29-9.54,12.04-15.62,17.39l-3.34,4.93-12.89,13.32-9.17,8.71-12.75,11.84-13.45,11.22-10.03,7.92,4.06-4.93,12.5-10.38,9.21-8.02,14.44-13.51,16.1-16.7,8.36-9.65,9.09-10.54,11.05-13.63,11.73-15.38,7.07-9.93,1.18.98Z"/>
  <path class="cls-17" d="M108.36,823.91c-.55.05-1.88-1.18-2.19-1.74l-9.75-17.93-9.35-18.68-7.57-16.35-15.55-39.3,1.59-.35c8.26,24.89,18.8,48.79,31.39,72.23l9.23,17.19,2.21,4.94Z"/>
  <polygon class="cls-18" points="939.18 304.32 938.12 304.95 937.6 304.26 908.22 250.56 897.87 234.68 887.44 219.74 882.22 212.58 878.76 207.92 879.22 206.53 890.52 221.46 898.34 232.48 910.33 250.79 919.06 265.88 928.15 282.22 937.11 299.5 939.18 304.32"/>
  <path class="cls-9" d="M190.6,161.12l-.35-1.24,7.47-7.36c11.49-11.32,30.69-27.75,43.78-37.21l14.85-10.74c6.86-4.96,14.5-8.6,21.44-13.74l4.62-3.42,25.93-14.32,5.78-3.25c-1.11,3.4-6.17,6.09-10.62,8.09-8.17,3.67-15.13,8.04-22.57,12.62l-15.82,9.75-8.01,5.9-16.1,11.4-14.77,11.78-9.79,8.4-14.26,12.29c-3.44,4.18-7.37,7.82-11.56,11.04Z"/>
  <path class="cls-26" d="M822.53,145.78c-4.41-1.36-7.4-6.09-11.14-9.08l-19.65-15.72-20.52-14.77-3.89-3.27-9.02-5.78-12.88-7.75-3.76-2.75-3.09-2.18.31-1.11,7.81,4.82,22.23,13.85,4.51,3.62,20.86,15.19,14.17,11.4,9.95,8.8c1.82,1.61,2.91,3.44,4.12,4.73Z"/>
  <path class="cls-17" d="M60.19,713.44l-1.46.2-3.43-11.27-6.71-25.13-4.58-20.7-2.7-13.81-.2-4.5c.4-.04,1.11-.18,1.1-.15-.02.05.18,1.29.25,1.7,4.51,25.14,9.82,49.8,17.74,73.66Z"/>
  <path class="cls-14" d="M639.67,40.92v1.85s-8.94-3.06-8.94-3.06l-27.53-6.52-12.01-1.94-9.11-1.64-7.89-1.32v-1.4c20.84,2.82,41.7,6.82,62.26,12.32l3.23,1.72Z"/>
  <path class="cls-17" d="M378.82,43.92l-.03,1.52-17.54,5.81-16.56,6.97-22.46,9.78c-2.54,1.11-5.11,2.02-7.41,2.33l24.46-11.54,5.21-2.86c11.45-4.71,22.81-8.45,34.32-12.01Z"/>
  <path class="cls-14" d="M442.02,28.73l-.08,1.72-6.49.79-29.05,6.12-8.33,2.46-6.81,2.17-12.46,3.44.03-1.52,9.84-3.04,9.15-3.14c14.9-3.44,29.41-7.06,44.2-9Z"/>
  <path class="cls-9" d="M694.75,61.12l-.16,1.28-14.52-6.09-17.77-6.94-22.62-6.6v-1.85c15.28,4.07,30.34,9.28,45.05,15.43l10.03,4.77Z"/>
  <path class="cls-5" d="M190.6,161.12l-7.76,8.68-14.08,15.2-8.17,9.33-6.16,6.66c-.46.49-1.06,2.16-1.16,2.63-2.61,3.23-5.98,6.76-8.44,10.2l-.75-1.34,13.58-17,11.75-13.86,10.59-11.4c3.4-3.66,6.92-7.05,10.26-10.34l.35,1.24Z"/>
  <path class="cls-4" d="M40.54,630.67c-.62-.03-1.41-1.77-1.51-2.57l-2.81-21.91-.75-8.4-.74-8.11-.87-9.9c.15.02.57-1.3.62-1.85l1.33,6.8,3.07,29.99,1.67,15.95Z"/>
  <path class="cls-5" d="M863.67,187.73c-.44.38-2.26-.39-2.66-.86l-7.4-8.64-8.6-8.98-22.49-23.46c1.69.52,3.35,1.29,4.73,2.75l6.77,7.19,13.54,13.56,12.88,14.24,3.22,4.2Z"/>
  <polygon class="cls-4" points="738.88 83.38 738.57 84.48 733.1 82.1 716.15 72.69 699.59 64.65 694.58 62.4 694.75 61.12 710.95 68.1 721.53 73.86 738.88 83.38"/>
  <path class="cls-25" d="M783.32,958.55l1.98,4.64,2.47,4.98c.28.56.99,2.42,1.5,2.12l2.02-1.2,1.23.24-4.51,4.02-9.49,7.06c0-1.67,1.24-3.08,2.5-3.96l5.75-3.97-3.86-6.93c-3.07-1.57-3.68-3.93-3-7h3.4Z"/>
  <polygon class="cls-26" points="257.03 983.8 255.61 984.46 250.48 981.2 246.02 977.61 226.03 962.33 207.97 947.05 189.58 930.01 175.11 914.87 162.32 900.54 169.22 905.97 182.49 920.54 193.5 931.71 204.22 941.56 214.94 951.2 228.92 962.77 242.68 973.38 251.73 980.07 257.03 983.8"/>
  <path class="cls-9" d="M34.74,537.23c-.26,5.56.15,11.31.28,16.95l-1.74,1.89c-.2-6.54-.2-13.22,0-19.76l1.46.92Z"/>
  <path class="cls-5" d="M116.28,835.61l5.6,9.52c-.53.33-2.07-.88-2.55-1.67l-9.34-15.68c.83-.24,2.36,1.15,2.76,1.84l3.52,5.99Z"/>
  <path class="cls-5" d="M161.55,898.55l-.83.21-3.22-4.05-13.88-17.27-7.17-9.44-11.7-16.51c-.46-.64-.83-2.42-.37-2.85l9.74,13.82,13.59,18.14,5.06,6.57,4.14,4.96c1.76,2.11,4.6,4.02,4.65,6.41Z"/>
  <polygon class="cls-4" points="65.54 729.56 63.95 729.91 58.73 713.64 60.19 713.44 65.54 729.56"/>
  <polygon class="cls-4" points="35.02 554.18 35.33 567.58 33.63 567.52 33.28 556.07 35.02 554.18"/>
  <polygon class="cls-4" points="35.33 524.79 34.74 537.23 33.28 536.31 33.63 524.86 35.33 524.79"/>
  <path class="cls-9" d="M35.33,567.58l-.85,10.35c-.05.55-.47,1.87-.62,1.85l-.23-12.26,1.7.06Z"/>
  <path class="cls-4" d="M36.18,505.06l-.28,6.62c-.03.62-.89,2.49-1.33,2.58-.02-.31-.72-.95-.77-.86l.72-8.22,1.66-.13Z"/>
  <path class="cls-9" d="M34.57,514.26l.76,10.53-1.7.07.17-11.46c.04-.09.74.55.77.86Z"/>
  <polygon class="cls-26" points="879.22 206.53 878.76 207.92 874.78 202.85 871.08 198.36 863.65 189.85 864.23 188.75 870.65 195.52 875.79 201.69 879.22 206.53"/>
  <polygon class="cls-26" points="161.54 899.67 160.72 898.76 161.55 898.55 161.54 899.67"/>
  <path class="cls-17" d="M793.85,146.81l-9.17-6.49-4.19-3.91-21.24-15-18.5-11.7-9.46-6.18-7.21-4.19-20.03-10.44-16.7-7.79-15.22-6.18-6.01-2.82c-16.58-6.59-33.17-10.62-50.29-15.49-20.38-5.8-41.11-8.66-62.36-10.45l-11.33-.95-10.82-.64c-10.82-.64-21.6-.63-32.28.08l-12.47.83c-24.27,1.62-48.32,4.55-71.72,10.88l-27.81,7.52-23.49,7.67-2.42,1.85c-12.31,4.63-24.87,9.39-36.48,15.78-10.1,5.56-20.14,10.07-29.82,16.15l-23.22,14.56-9.61,6.9c-5.13,3.69-10.28,7.13-15.11,11.04l-18.5,14.99-17.29,15.64-5.77,5.66c-4.06,3.98-7.92,7.93-11.78,12.05l-9.92,10.57-9.86,11.47c-2.24,2.6-4.69,5.03-7.2,6.68l.41-2.21c.77-.36,2.49-1.48,3.1-2.23l6.36-7.87,15.11-16.83,7.74-7.77,9.92-9.83c4.36-4.32,9.1-8.29,13.91-12.37l20.74-17.6c5.5-4.67,11.29-8.43,17.12-12.65,6.25-4.52,12.28-8.84,18.89-12.95l14.09-8.77c7.8-4.85,15.97-8.66,24.07-12.97l10.65-5.67,7.8-3.73,17.62-7.24,11.94-5.01,12.81-4.3,14.55-4.26,14.9-4.61c10.79-3.34,21.74-5.09,32.82-6.79l7.67-1.18,6.4-1,14.04-1.64,10.54-.96,9.03-.84,42.6-.22,23.81,1.41,14.84,1.63,12.42,1.64,7.02,1.16,27.44,5.57c1.8.37,3.63,1.21,5.17,2.06,16.78,4.91,33.66,8.99,49.75,15.95l19.49,8.43,15.26,6.85,6.57,4.04,22.77,12.44,24.46,15.72,23.08,16.47,6.06,5.21c1.95,1.67,3.72,2.7,4.31,4.83Z"/>
  <polygon class="cls-17" points="919.65 305.15 925.2 316.47 942.34 358.38 940.68 358.36 924.44 318.87 922.06 313.69 914.66 298.96 906.37 283.66 901.93 275.66 903.52 275.41 908.04 283.64 916.61 299.5 919.65 305.15"/>
  <path class="cls-26" d="M903.52,275.41l-1.59.25-7.2-11.67-9.92-15.47-7.15-10.87c.87.59,2.05,1.66,3,2.89l5.29,6.83,11.5,17.98,6.07,10.07Z"/>
  <path class="cls-26" d="M859.57,212.04l-.48,1.37-6.5-7.29-3.37-4-14.83-16.43-23.55-23.72-4.07-3.55,1.14-.15,4.52,3.39c4.93,3.69,8.05,8.34,12.18,12.64l13.99,14.54,12.4,13c1.79,1.88,2.63,3.73,4.44,5.55l4.13,4.66Z"/>
  <path class="cls-5" d="M877.05,236.02l-.4.94-12.93-17.25-4.62-6.31.48-1.37,8.51,10.84c3.36,4.28,7.29,8.19,8.97,13.14Z"/>
  <path class="cls-5" d="M807.91,158.27l-1.14.15-6.17-5.37-6.76-6.23c.03-.07,2.17,0,2.53.34l11.54,11.12Z"/>
  <path class="cls-26" d="M876.65,236.96l.4-.94-.4.94Z"/>
  <path class="cls-17" d="M866.15,870.26c.28-1.28,1.19-2.79,2.19-4.17l11.44-15.76,11.01-16.04,11.33-18.15,8.82-15.78,8.13-15.81c27.17-52.82,43.91-115.34,51.67-174.46l.84-9.02.8-8.92.85-13.1.69-13.47v-36.33s-.68-12.63-.68-12.63l-.84-13.09-.82-10.56c-1.73-22.28-5.56-43.78-10.66-65.55l-3.59-15.35-3.04-11.62,1.54-.16c6.73,23.28,11.31,47.04,14.88,71.45l2.6,23.65,1.98,27.9c1.37,19.28,1.5,38.03-.39,57.36l-4.16,42.59-6.91,38.07-11.2,43.65-5.44,16.11c-11.37,33.64-25.93,65.55-43.69,96.22l-9.93,15.82-16.34,23.54-6.54,9.13c-1.42,1.98-2.62,3.68-4.5,4.49Z"/>
  <path class="cls-1" d="M791.29,969.09l-2.02,1.2c-.51.3-1.22-1.56-1.5-2.12l-2.47-4.98-1.98-4.64,1.13-1.55c.22-.3-.78-.62-1.7-1.07l10.2-8.15,7.91,5.28,1.56,6.19-5.26-1.12c.28,1.44.6,3.85-.16,4.74s-2.66,2.19-3.34,2.23c-1.52-1.2-3.64-1.95-3.76-1.13l1.39,5.11ZM795.3,956.86l-5.42-1.58c-1.43,2.13-1.11,5.52.96,6.28s5.38-1.9,4.47-4.7Z"/>
  <polygon class="cls-5" points="823.32 919.63 813.37 929.82 799.4 942.16 792.94 947.78 782.75 955.93 778.84 958.39 773.15 962.61 766.17 967.93 765.14 967.7 764.31 968.56 764.14 969.18 760.26 971.27 760 969.93 770.07 962.75 790.55 947.31 806.59 933.68 822.42 919.23 823.32 919.63"/>
  <path class="cls-24" d="M958.32,356.42l2.09,3.67c-.51-.1-1.75,1.47-2,2.14l-2.54,6.87-6.79-2.01c-.45-4.15-.08-9.69,1.31-14.03l1.86-.08c.29-.01.5.71.79,1.33.92,1.97,3.12,2.91,5.29,2.11Z"/>
  <path class="cls-26" d="M824.95,916.92l2.68-3.83,13.92-14.17,3.3-4.02,6.52-7.43,4.38-5.43,6.14-7.75c1.29-1.63,2.72-3.24,4.25-4.03-.29,1.29-1.03,2.5-1.99,3.73l-5.83,7.47-13.35,15.28-3.32,4.7-12.29,12.46c-1.45,1.47-2.72,2.73-4.42,3.02Z"/>
  <path class="cls-9" d="M955.82,400.29l-1.54.16-1.28-4.29-4.29-14.7.18-1.98c.14.14.92.08,1.01.37l.63,2.18,5.28,18.27Z"/>
  <path class="cls-5" d="M942.34,358.38l3.8,10.2c1.19,3.2,3.01,8.12,2.76,10.89l-.18,1.98-8.03-23.1,1.67.03Z"/>
  <path class="cls-26" d="M823.32,919.63l-.9-.4,1.71-1.56c.13.26-.5,1.64-.82,1.96Z"/>
  <path class="cls-18" d="M114,295.26l-1.1,2.86-4.73,9.3-6.09,12.21-5.59,13.28-3,6.78-6.36,15.82-2.96,8.39-4.45,12.36-9.88,34.01c-7.42,25.54-10.99,51.59-14.69,77.63l-.83,9.78-.75,9.05-.71,10.69-.39,13.16-.83,1.59v29.64s.81,1.6.81,1.6l.79,10.61c-.92,3.89-.5,7.78.77,11.52-.68,3.64-.37,7.25.45,10.79l.85,8.22.8,7.14c4.58,40.9,14.46,80.61,28.85,119.15l2.49,6.66,7.56,18.8,5.45,12.57,5.64,11.49,7.82,15.13,4.5,8.74-1.6.38-9.73-18.57-5.41-11.04-8.89-19.79-7.63-19.61-7.83-21.57-7.38-24.56-8.49-34.94-6.74-41.19-3.66-42.92-.23-46.34.7-4.1,1.55-24.68,1.45-12.43,1.68-13.19,4.79-28.4c8.79-45.29,23.08-88.73,43.68-129.97l7.13-14.28c.34-.68,1.78-1.98,2.18-1.82Z"/>
  <path class="cls-18" d="M114.11,294.83c.01-1.52.5-2.83,1.62-4.42,1.8-2.55,2.92-5.99,4.5-8.64l9.86-16.5,9.68-14.85,9.27-12.85,3.38-5.49,2.83-3.91,3.29-3.38,3.41-4.6c1.49-2.01,2.68-4.09,4.62-5.3-.2,1.07-.83,3.28-1.51,4.15l-11.56,14.82-11.28,15.79-7.17,10.89-5.71,9.16-7.62,12.76-5.06,8.79-2.56,3.58Z"/>
  <path class="cls-23" d="M119.76,816.51c.26.99-3.41,9.16-8.29,9.39-2.84-8.07,4.15-15.28,5.29-13.87l1.34,1.66c.56.7,1.46,2.06,1.66,2.82Z"/>
  <path class="cls-4" d="M137,836.03c-1.4-.52-2.37-1.98-3.38-3.52l-7.07-10.73-4.12-7.62-5.59-9.51,1.6-.38,10.88,18.55,6.77,10.41c.36.56,1.13,2.33.91,2.81Z"/>
  <path class="cls-13" d="M158.54,224.78l-3.29,3.38-2.6-5.56c-.16-.41,1.49-1.28,1.83-.99l1.08.93,2.98,2.24Z"/>
  <path class="cls-1" d="M683.02,1015.67l-1.49,2.29c-3.39,3.6,4.97,5.12-.24,8.02-1.04-3.04-1.96-3.75-4.61-4.46s-5.84-.5-7.07,1.92l7.44,7.08c2.47,2.35,6.21-1.94,9.87-.59l-27.98,10.43-6.76,2.11c-.67-.25-2.45-1.04-2.54-.47-.06.42-.56,2.39-.97,2.51l-12.34,3.55-13.99,3.68-9.49,2.38.18-6.61c.12-1.48.13-3.56-.57-4.6-.64-.95-3.32-1.64-4.6-1.31l-19.16,4.92c-.47.12-2.28.04-2.3-.44l.03-1.31,9.58-2.44c18.61-4.73,37.16-8.07,54.97-14.77l22.82-8.58,4.47-1.97,4.73-1.35Z"/>
  <path class="cls-14" d="M561.83,1046.41c-2.48,1.72-5.66,2.09-9.11,2.39l-17.19,1.47-44.61-.13-10.33-1.06-17.27-1.55-11.86-1.34-16.54-3.37-33.13-7.75-16.49-4.71-10.12-3.81-4.41-1.95.65-1.44,5.76,2.01,8.21,3.15c19.68,7.55,40.26,10.35,60.62,14.8l19.93,3.18,8.79.79,12.36.72,13.56.78,26.2-.02,15.21-.74,10.66-.74,9.09-.68Z"/>
  <path class="cls-14" d="M678.28,1017.02l-4.47,1.97-22.82,8.58c-17.81,6.7-36.36,10.04-54.97,14.77l-9.58,2.44-9.01,1.07c-5.18.62-10.28,1.85-14.92,1.08l19.04-3.8,61.78-14.54c1.87-1.41,3.96-2.2,6.62-3.08l11.08-3.68,17.11-6.32.14,1.51Z"/>
  <polygon class="cls-17" points="371.42 1023.16 370.77 1024.6 359.48 1020.8 337.51 1011.6 309.36 997.89 303.61 993.97 289.87 986.28 273.99 975.93 267.64 971.63 252.84 961.06 237.22 949.41 231.11 943.35 231.51 942.1 239 948.45 258.73 963.31 280.6 978.3 307.77 994.5 317.15 999.95 341.73 1011.49 371.42 1023.16"/>
  <path class="cls-26" d="M231.51,942.1l-.4,1.25-3.98-2.62-24.87-22.79-3.83-5.02-7.36-7.4-8.86-9.3-3.07-4.28c-3.89-3.44-6.93-7.14-10.15-11.22l-10.8-13.7-8.01-10.89-10.17-14.58c-.51-.73-1.12-2.07-1.31-2.64l11.19,14.14,9.81,13.25,10.73,13.75,3.62,4.59,6.67,7.34,6.69,8.05,13.67,14.38,8.35,7.82,9.11,8.85,12.97,11.03Z"/>
  <path class="cls-4" d="M139.07,838.15l-1.99-.5c-.31-.15-.3-1.15-.16-1.45.93.21,2.52,1.21,2.15,1.95Z"/>
  <path class="cls-25" d="M764.14,969.18c.19.17.94.8.87.76-.09-.05.7-.23.96-.32l1.83-.63c-1.05,7.84,7.85,7.23,4.83,13.28s-9.88.65-10.79,2.24l-1.67,2.94-3.19,4.84c-1.86,2.82-3.72,3.6-6.74,3.69-1.4,1.19-3.99,2.7-6.27,3.31l-1.89,3.41c-.44.8-2.97.04-4.16-.38l-6.72,4.48c-1.64,1.1-2.82,2.02-3.69,3.66-2.68,5.08-9.8,4.15-13.64,5.88-4.5,7.9-13.86,2.19-16.38,6.63-1.61,2.84-3.55,5.63-6.33,5.29-3.92-.48-5.47-2.5-6.01-6.26-.35-2.43-.14-4.83,1.06-6.48l7.07-3.07,1.85-1.07c.39-.22.35-1.31.12-1.89l23.8-11.53,6.91-4.42,16.66-9.71,8.74-6.06,8.88-6.5,3.88-2.09Z"/>
  <path class="cls-1" d="M778.84,958.39l1.08.16c-.68,3.07-.06,5.43,3,7l3.86,6.93-5.75,3.97c-1.26.87-2.51,2.29-2.5,3.96l-3.14-.33,1.33-5.79c-2.89-2.13-6.16-4.18-8.92-5.3l-1.83.63.19-1.68,6.99-5.33,5.69-4.22Z"/>
  <polygon class="cls-4" points="760 969.93 760.26 971.27 751.38 977.78 742.64 983.84 725.98 993.55 719.06 997.96 695.27 1009.5 690.61 1012.1 686.42 1014.19 683.02 1015.67 678.28 1017.02 678.14 1015.52 687.34 1011.24 705.59 1002.6 721.79 994.06 740.41 983.19 748.51 977.53 760 969.93"/>
  <path class="cls-1" d="M695.27,1009.5c.23.58.27,1.67-.12,1.89l-1.85,1.07-7.07,3.07.19-1.35,4.19-2.08,4.66-2.6Z"/>
  <path class="cls-6" d="M782.75,955.93c.92.45,1.92.76,1.7,1.07l-1.13,1.55h-3.4s-1.08-.16-1.08-.16l3.9-2.46Z"/>
  <path class="cls-7" d="M517.83,581.11c-.07.62-.34,1.99.11,1.99h2.68s6,4.68,6,4.68c2.7-2.24,4.37-4.45,5.83-7.31l2.19-.74c-.18.73,1.33,1.55,2.13,1.66.75.11,1.35-1.69,1.24-2.41l10.46-2.01,3.2,6.51c.74,1.55,2.38,3.64,4.24,2.83,1-.47,1.35-3.97.51-4.71l-3.15-2.74,2.17-3.27,8.9-2.37.17,1.91c.06.47,1.51.44,2.09.42l11.64-.27c3.86-.09,7.21.34,9.17,5.16l-5.43-1.34-4.49,7.76,6.3,1.31,3.8,1.36c1.05.38,3.74-1.23,3.78-2.32l.27-5.99,5.54-4.16,5.97,2.85c-1.83,8.59-12.75,8.34-11.4,12.72.38,1.24,2.23,2.28,4.4,3.93-2.74,2.88-9.81,5.21-12.06,3.01-1.48-1.46-3.94-3.07-5.44-2.56-1.78.6-3.06,3.65-3.28,5.63l-6.17-1.41-3.26,3.48c-.94,1.01-1.81,3.39-2.22,4.86-4.04,2.68-9.35.87-11.93-3.53-4.2-7.14-8.48-3.2-9.68-7.95l10.53,1.09c1.53.16,2.26-4.49,1.3-5.81-3.58-4.92-8.75-9.75-11.82-7.24-1.47,1.21.93,3.55,3.6,5.99l-3.79,4.68c-2.65.63-6.4-1.49-9.97-3.66-.53,1.17-.92,3.21-1.29,4.71l-1.07,4.38c-.24.97-2.58,1.28-3.99,1.27-2.21,0-4.23,1.68-4.1,3.84.13,1.96,1.38,2.78,3.81,4.98-1.58-.07-3.19-.38-5.15-.88-6.51-1.67-11.51.59-10.95,1.73l1.57,3.21c.72,1.47-1.92,3.94-4.02,4.76l-2.42,7.59c-.14.43-1.58,1.56-1.91,1.27l-2.82-2.44-5.17,14.56c.63,2.93,3.69,6.6,5.99,7.9l1.04-3.69c.18-.63,1.54-1.13,2.33-1.47l9.22-4.02,3.09-2.05c1.6,2.67,3.39,4.51,5.47,4.79-.66-2.54-1.16-5.27.07-6.14,1.78-1.26,5.82,1.07,5.54,2.69l-.5,2.88c-.13.74,1.99,2.19,2.78,2.2l11.74.19c4.97-5.21-.18-11.93,4.65-10.38l-.87,2.68c-.2.62,1.55,1.51,2.33,1.99s-.08,2.68-.91,3.43l-6.49,5.83c-1.25,1.13-5.2.92-6.25,2.32-1.66,2.23-2.16,4.26-2.42,7.2l-.58,6.62-6.88-1.71c-1.38-.34-2.91-2.27-2.96-3.87l-.38-14.29-7.45,8.71c-3.76-2.04-7.53-3.51-10.89-3.87l.45,15.51-4.92,6.39,3.07,3.63.2,4.99c-2.33.69-5.55,2.86-6.59,5.54-2.74,7.08-7.67,6.6-8,5.52l-.73-2.32c-.2-.64-.92-1.85-1.36-2.32-1.88-2.05-1.02,5.48-5.24,10.61-1.1,1.68,2.6,5.95,4.74,6.11,7.32-1.94,9.93-9.59,17.28-14.56,1.1,1.63.81,3.27,0,4.4l-5.22,7.28c3.79.4,5.92.99,8.17,3.81l-4.44,5.1c-.28.59,1.9,1.54,2.72,1.37,4.25-.84,1.04-7.24,6.95-9.87,1.74-.05,4.95.07,6.51.7l4.67,1.89c1.21.49,3.27-1.47,4.68-2.61l5.25.5c5.09-5.04-1.88-11.74-.85-22.16l8.76-2.53c-.07,2.88-1.59,3.32-3.28,4.76-2.63,2.24.02,6.26,2.12,7.76l2.29,1.64c.59.43,2.1-1.12,2.83-1.19l2.57-.23c.47-.04.88,1.55.52,1.85l-1.87,1.54c-1.27,1.05-.13,4.78,1.11,5.94,1.63,1.53,3.86,2.09,6.62,2.4,4.44.49,1.79,11.21,4.28,9.32l2.68-2.03,2.67-.84c.78-.25,1.01-2.08,1.28-3.69l5.84,2.23,1.72-2.52c.41-.6-.97-2.02-1.54-2.68-1.99-2.31,1.01-5.33-.31-6.44l-3.22-2.7,7.07,1.41,2.21-5.1c3.05.47,7.26-4.16,4.99-7.07-2.33-.73-4.74,2.45-7.16,5.1l-.41-11.15c-4.36-2-6.09,3.92-7.38,2.85l-2.23-1.86c-1.47-1.22-5.85,2.09-5.34,3.92,1.01,1.81,2,3.63,1.82,5.28l-5.81-4.6c-.63,1.88-1.25,4.47-2.46,5.29-1.27.86-4.62.64-6.22-.08-.95-.43-1.18-3.59-.34-4.28,1.68-1.37,5.08-4.13,6.02-6.15.48-1.02-1.19-3.75-2.28-4.01-3.77-.9-6.05,4.02-8.3,2.07-.74-.65-1.59-2.5-1.94-3.84-.26-.98,1.32-3.49,2.3-3.41s2.18,1.8,2.93,2.86c.52.73,2.77.11,3.38-.56.72-.8,2.04-3.27,1.17-3.82l-2.87-1.81,6.66-4.26c-1.13-4.02-1.68-6.62-1.95-10.1l-.22-2.79c-.05-.61,2.18-1.17,2.48-.64l1.35,2.37,7.89,6.99,1.65,4.12c2.37-.35,5.68-1.21,6.57-2.59.22-.9-.09-3.93.67-4.25l3.49-1.46c-1.74-4.03.04-7.95,3.89-9.52l-.53-5.2,7.53-.42c2.73-.15,4.29,1.35,5.02,3.99l.46,1.65c.46,1.65,1.16-2.74,3.85-2.76,1.36,0,2.04,1.21,1.82,2.7-.14.93-1.87,1.97-2.77,1.84l-3-.44c-.59-.09-1.59,1.78-1.58,1.96l3.78,7.82.69-4.53c3.98,1.13,6.66,4.65,7.17,9.43l3.18-2.75c.72-.62,3.62,1.24,4.47.78l6.12-3.3-.64,4.79,4.39-.09c1.34-.03,2.87.18,3.52-.39,1.85-1.62-.44-4.71.09-12.29.61-8.65,9.01-8,10.78-9.71s-3.44-2.1-4.74-4.12c-.64-1-.52-3.54.17-4.88,1.83-3.52,6.21-4.78,9.65-4.42l1.06,3.3c-2.56.49-3.74,5.4-1.85,7.23.74.71,3.24,1.26,4,1.09l.98,5.7c-3.72,1.92-7.58,3.47-11.45.61l-2.61,4.53c-1.21,2.1-1.42,4.61.01,6.76,1.15,1.72,3.65,1.96,6.42,2.49.17.55-1.51,1.21-3.31,1.5l-2.4,7.7c-1.1,3.53,1.37,5.26,3.62,6.5l4.57,3.03c-.02-4.25-1.19-6.67,3.26-9.15l.26,13.04c.04,1.89.57,4.85.01,6.28l-.8,2.07c-.2.51,1.01,1.25,1.84,1.38l-1.79,11.47-6.77-.34c.83,5.15,1.34,7.5-.26,12.18-3.17-1.57-7.19-5.73-6.51-7.23s2.03-2.55,4.46-4.31l-4.75-2.65-.69-3.87c-2.03.63-2.86,2.25-2.81,5.31l-6.21-1.27-1.78-5.97-.22-9.26c-.1-4.25,2.45-9.21,3.41-13.64l-5.56-5.53-4.43.39c-2.77-1.43-5.65-1.26-8.37-.24l-2.9-1.08c-2.28-.85-2.26,4.41-8.14,10.92-2.54,2.81-.57,10.35,2.67,14.61l1.35,3.99c.3.9,2.39,1.26,3.99,1.69-.4,7.39-7,5.68-13.47,7.12,1.65,3.38.95,8.73-2.44,9.6l-5.34.09c-1.38.02-2.7,2.82-3.18,4.24l-7.55,4.7-7.46-1.38-9.15-2.7c.1,6.59,5.35,5.42,2.97,12.78-.36,1.12-.96,2.81-1.68,3.25-2.48,1.51-4.35-7.6-7.06-5.47l-4.6,3.6c-1.17.92.69,4.13,3.02,4.13l3.38,10.97-9.35,2.8-2.54,4.31-6.31-.17c-2.41,2.23-3.66,5.39-3.11,8.36.66,3.63,2.25,5.45,5.97,7.04l2.58,1.1c.71.3,1.91-1.14,2.52-2.06,2.26-3.42,4.69-.76,7.34-1.99,1.9-.88.87-5.41,1.61-5.69l2.05-.79,6.61-5.89c-1.85,5.4-2.04,6.79.43,10.51l2.68,5.77,1.27,2.54c.28.56,2.16.59,2.76.77l1.81.54c1.94.58-2.6,1.01-3.97,2.73-.52.65-.42,3.42.17,3.31l3.37-.55c.57-.09.91,2.25.42,2.54l-2.19,1.28-2.13,3.99c-1.7,2.38-1.5,4.65-.58,7.29l.42,2.94c.1.7,2.12,1.1,2.93,1.37.46.16.94,1.59.55,1.85l-1.99,1.34.28,5.83c-1.9,2.05-7.15,2.59-8.87.39-.69-.88-2.07-3.79-3.13-3.38-2.96,1.13-5.49,4.85-5.69,7.55,3.15.23,5.02.94,5.86,3.64,1.74,5.63,10.46-2.12,13.26,2.85l.96,1.7c.17.31,1.4-.5,1.26-.83l-.89-2.14c5.16-4.94,11.24-1.1,9.47-8.33l-1.46-5.96,9.19,5.43c.69.41,2.82,1.11,3.42.63l2.56-2.02c2.95-2.33,6.62-4.8,6.78-9.39.11-3.1-5.66-2.35-8.18-5.55l9.26-2.86c.75.01,3.06-.16,2.8-.78l-1.18-2.82c-.23-.54-.57-2.07,0-2.21l3.22-.77,6.16-8.61c3.73,2.56,4.48,7.85,2.21,12.32l1.79.06-3.19,5.65-2.8,2.24c-.22.24-.81,1.29-.84,1.38-.01.06,1.05.57,1.18.55l-3.1,5.06-1.06-1.02c-.29-.29-1.11.87-1.41,1.21l-4.96,5.8c-1.26,1.48-2.41,3.25-2.96,4.99-.7,2.22-1.76,3.5-2.89,5.24-1.79,2.77-3.21,5.45-5.84,7.49-2.17,1.67-2.89,4.38-1.88,6.63l-3.57,4.25c-4.6,5.47-8.94,10.54-14.06,15.33l-7.4,6.93c-2.33,2.18-4.89,4.04-7.51,5.31l-5.15,2.5c-9.64,4.68-12.65,2.55-15.25,5.33l.76-3.62c.19-.62.35-2.03.23-2.62-.15-.74-2.29-.48-2.71.17-.52.79-1.64,2.13-2.4,2.32-.9.23-2.37-.91-3.71-2.33l-8.44,2.54c-.81.24-2.3,2.04-2.38,2.99-2.39-1.02-5.98-1.33-8.69-1.65l-.95-1.66,1.43-3.7c.31-.79-.94-2.53-1.72-2.92s-2.86-.35-3.68.02l-5.17,3.04c-5.48-3.18-9.94-7.72-14.81-11.82.76-.69.94-2.55.72-3.41-.55-2.12-5.15-3.14-5.21-2.03l-.11,1.94-.93.16-1.6-1.66.06-.85,1.28-.84c.46-.3-.22-2.02-.59-2.42-3.49-3.74,1.82-4.56,2.01-9.59.05-1.26-2.04-3.17-2.95-3.23l-2.85,2.86c-3.23-.98-5.82-1.52-8.54-1.39l-1.8-2.45-.26-4.39,1.95-1.53c.51-.4.44-2.57.34-3.26l-.69-4.4-6.39,2.04-2.89.81-2.53-3.01-4.42-6.46-3.54-6.19-4.2-6.65-11.92-21.54-5.73-11.51-7.1-16.73-6.3-16.56-5.97-19.89,1.38.06c-.34-.02,0-7.13,6.82-12.13,2.72-2,4-3.63,6.41-6.78l1.59,1.62c-2.92,3.82,0,6.08.9,9.23.47,1.66.42,4.22,1.46,4.91,1.33.88,5.53-.14,5.27-1.56l-1.25-6.96c-.11-.61-.06-1.73.02-2.26s2.1.4,2.07.89l-.22,3.09,2.6,1.87-.47,3.66c-.1.76,2.23,1.13,3.04,1.19l11.41.77c.64.04,2.34-.32,2.89-.58s-.25-1.86-.41-2.46l-.74-2.76c-.4-1.5,9.21-3.79,7.19-15.47-.88-5.1,5.4-8.54,1.19-11.89-1.47-1.17-3.21-1.93-5.42-1.66-.06-.56-.39-1.44-.58-1.75l5.58-5.48-.02-9.47-9.29,4.35c-.97.45-2.84,2.07-3.23,2.2.14-9.43-4.84-11.81-5.62-10.64l-2,3-13.71,1.6c-1.82,2.33-3.37,5.01-2.76,6.88.72,2.2,2.92,3.66,4.98,4.91.29,1.07-.8,3.61-1.84,3.73l-3.89.45-10.22.87.98-8.18c-8.04-3.42-.56-13.3-5.32-25.19,1.3-.47,3.49-1.26,4.29-2.04s-.15-3.63-.57-4.75l2.66-3.96c-1.54-1.4-2.82-2.75-2.76-3.83.23-3.81,5.52-3.25,9.33-6.83l-6.25-5.25c1.24-2.55,2.54-5.44,4.69-7.88l11.14-12.64c6.32-5.95,14.75-8.69,22.67-11.86l2.83-2.74.88.49,7.5-.42c6.98-.4,13.82-.4,20.39,1.51,17.56,5.09,35.64,7.8,53.62,7.01ZM467.05,640.86l3.57-10.71c1.13-3.4.12-9.83-1.85-12.65-2.5-3.57-6.01-4.76-9.58-3.81-8.56,2.27-9.16,14.6-4.47,24.14.92,3.8,3.09,6.56,5.75,9.99,2.93-1.57,5.5-3.71,6.59-6.95ZM583.19,659.09c1.6-1.86-.56-6.7-2.64-7.64-2.45-1.11-8.61-.16-8.01,2.74,1.38,6.58.87,9.9,2.51,9.07,2.93-1.48,1.43-4.51,8.14-4.17ZM396.47,661.2c1.63-.1,2.98-.64,2.82-1.28-.19-.74-.63-1.87-1.23-2.14-.45-.2-1.88.12-2.27.42l-2.06,1.6c-.44.34,2.18,1.42,2.74,1.39ZM473.84,705.34c1.68.11,4.12,0,4.11-.73v-4.2s-4.16,1.18-4.16,1.18c-.96.27-.92,3.69.04,3.75ZM465.78,722.09c-3.27-.67-7.56,1.36-9.74,3.48-4.56,4.43-3.56,12.3-2.89,12.44h1.02c-.04.45-.02,2,.18,2.49l-1.3,1.05,3.77,8.84,2.93,6.15c.53,1.11,2.82,2.85,4.05,2.95,4.34.36,10.3-13.99,10.56-18.2l.71-11.37c.44-6.98,5.01-12.39,11.63-15.2-.11-6.27,3.49-6.45,3.89-10.68.03-.36-1.52-.25-1.83-.07l-4.87,2.93c-3.12,1.87-4.1,4.7-4.48,7.92-3.28.3-8.58.85-11.74,2.13-1.22.5-2.05,4.03-1.9,5.13ZM492.46,719.89l5.01-4.76c.56-.53-1.17-3.43-1.73-2.88l-3.7,3.67-1.72,2.01c-.39.46,1.7,2.4,2.15,1.97ZM523.32,743.38c.36-.28,1.15-1.85.84-2.27l-1.06-1.46c-.3-.41-2.29.97-1.94,1.36l2.16,2.37ZM538.6,783.63c-.35-6.67,11.31-.29,9.7-7.82l-9.76-1.58c-3.38-.55-5.26-1.58-8.74-.21l-3.4,1.35c-.39.16-1.96,7.27-.8,8.12l3.66,2.7c.71.52,1.81,1.65,2.42,1.51l2.66-.58,3.71-.05c.68,0,.61-2.46.56-3.44ZM516.73,775.82c0-.5-.41-.91-.91-.91s-.91.41-.91.91.41.91.91.91.91-.41.91-.91ZM514.95,779.91c-3.9,0-7.5.25-10.01,3.07-6.76,7.6-4.45,18.68,1.05,28.18,1.34,2.31,3,5.32,5.92,6.56,1.21.52,3.31-2.06,4.02-3.21l4.49.85,1.4-7.94,4.62-1.06-.73-4.76,3.27-1.67c.8-.41,2.03-7.86-2.32-9.02l-3.5,2.55-.94-5.79.06-2.34c.01-.49-1.11-.54-1.68-.4-.09-.19-.17-.81-.12-1.01.26-1.07,1.06-2.86,1.75-3.96l1.31-2.09c.27-.44-1.43-1.23-1.8-.81-1.24,1.37-4.59,2.84-6.77,2.85Z"/>
  <path class="cls-10" d="M524.84,172.36l22.19,2.11,26,5.56,8.8,2.45,7.23,2.7,3.12,1.8,4.88,2.35c9.08,4.37,18.16,8,26.34,13.9l19.43,13.3,1.73,2.67c5.57,4.34,12,9.36,16.8,14.83l14.93,17,10.09,13.91,3.78,5.71,8.41,14.84,3.25,4.97,1.66,4.88,7.39,18.22,7.08,23.67-5.52-.4,2.86-5.38c-3.49.58-7.4,3.59-7.62,7.11l-1.79,1.4-5.86,2.01-1.05-.75-1.65-4.87-1.3-9.14,1.37-.18c.43-.05.3-1.52.13-1.92l-2.21-5.2c-.3-.72-1.75-1.97-2.64-1.62l-7.92-18.14-8.54-15.16-4.64-7.64-8.4-11.35-4.37-5.37-7.3-8.42-8.3-8.25c-9.98-9.93-21.37-17.78-33.51-25.38l-5.12-3.21-19.63-8.95-10.44-4.27c-10.56-4.32-21.83-6.67-33.12-7.79l-12.87-1.27-24.24-.18-13.88.94-10.4,1.74-18.06,3.92-8.68,3.38-15.84,6.37c-6.38,2.57-12.29,5.47-17.98,9.24l-22.71,15.03-2.81,3.27c-4.71,3.48-11.4,8.95-15.86,14-5.23,5.92-10.42,10.88-14.9,17.18l-10.95,15.39-9.82,17.22-8.62,18.44-2.95,7.72c-4.17,11.05-7.21,21.99-9.18,33.29l-.21,3.26c-.43.32-.68,1.76-.7,2.45l-.08,2.48-.94,2.53c-.58,2.52-.71,5.44-.45,8.11l-1.07,7.34v4.97s-.82,1.09-.82,1.09l.75,509.03c0,4.3-5.33,7.21-8.62,7.69-3.03.44-10.13-1.69-10.13-6.38V384.91c0-5.94,2.44-11.47,1.58-16.66,2.05-12.05,3.77-24.31,7.97-36.3l5.08-14.51,6.65-16.33,4.12-8.28,3.15-5.87,10.32-16.85,2.61-5.27,3.85-4.57,9.11-11.35c9.51-11.85,20.19-21.89,31.84-31.22l6.43-5.15,14.2-9.7c9.1-6.22,19.12-10.56,29.37-15.13l11.05-4.93c15.01-4.32,30.1-8.73,45.67-9.73l9.73-.62,22.74-.06Z"/>
  <path class="cls-22" d="M496.49,326.47l1.14-.49c4.5-3.92,6.81-9.86,8.72-15.77l2.98-9.22,2.69-14.3c2.36,3.1,1.57,6.2,2.25,9.39,2.83,13.24,7.93,26.28,17.79,35.42,7.86,7.29,18.18,9.1,28.78,11.98-11.67,2.89-27.87,9.37-34,17.81-8.52,11.74-11.97,25.54-14.25,40.31-.89-2.58-1.17-5.32-1.78-7.98l-2.71-11.82c-.98-4.26-2.28-8.16-4.56-11.97l-4.61-7.73c-4.42-7.4-12.79-11.81-20.9-14.34l-13.5-4.2c11.6-3.63,28.21-6.77,31.97-17.11Z"/>
  <path class="cls-19" d="M300.11,365.79l.84,2.46c.86,5.19-1.58,10.72-1.58,16.66v517.71c0,4.7,7.1,6.82,10.14,6.38,3.28-.48,8.61-3.39,8.62-7.69l.07-510.12v-4.97c.87-2.11,1.28-5.2,1.07-7.34-.27-2.67-.13-5.59.45-8.11.61-.36.92-1.81.94-2.53l.08-2.48.7-2.45.21-3.26,1.72-.5-2.67,16.82-.61,7.58-1.03,9.17-.11,509.49c0,5.61-7.49,7.86-10.97,7.81-3.79-.06-10.24-3.08-10.24-8.63l-.02-511.13.85-8.46.51-7.48,1.04-8.92Z"/>
  <path class="cls-15" d="M708.17,907c5,2.07,10.43,3.37,14.47-.74,2.82-2.87,2.31-6.7,2.31-10.97l-.03-512.94-1.51-14.97-3.66-23.31-1.8-6.82-7.08-23.67-7.39-18.22-1.66-4.88c-.07-.2.03-.87.37-.84,1.31,2.58,3.31,5.65,4.08,8.32.56,1.94.99,3.47,1.77,5.15l2.17,4.66,2.96,7.86c5.53,14.69,9.05,29.83,11.07,45.75l1.11,8.76,1.2,9.04v522.77c0,6.15-7.61,9.09-12.04,8.48-3.33-.46-4.45-1.43-6.34-3.41Z"/>
  <path class="cls-8" d="M700.02,341.98l1.65,5.28c.1.35.47,1.22.77,1.21l1.18-.19-.31,1.88c-.35.64-.55,2.49-.31,3.76l3.02,16.02.44,3.52.86,13.8-.42,8.85v34.46s.02,21.87.02,21.87v25.79s0,85.64,0,85.64v3.18s-.01,333.1-.01,333.1l1.28,6.86c-.98-1.02-2.92-3.06-2.92-5.26v-505.38s-.57-18.29-.57-18.29l-.6-6.09-4.25-24.46-.88-6.29,1.05.75Z"/>
  <path class="cls-26" d="M643.21,243.97l-.56,1.26-7.81-6.63-6.76-5.74-8.97-6.36-13.28-8.35c-6.92-4.35-14.68-7.79-22.59-10.78l-13.2-4.98c-10.58-3.99-22.13-6.25-33.67-7.17l-8.28-.66h-27.81s-8.28.7-8.28.7c-10.64.9-21.22,2.85-31.25,6.57l-14.85,5.51c-8.15,3.03-16.01,6.44-23.21,11.1-8.07,5.22-16.43,9.41-23.63,15.73l-3.59,3.16-1.56-.52,2.81-3.27,22.71-15.03c5.69-3.77,11.6-6.67,17.98-9.24l15.84-6.37,8.68-3.38,18.06-3.92,10.4-1.74,13.88-.94,24.24.18,12.87,1.27c11.29,1.12,22.57,3.47,33.12,7.79l10.44,4.27,19.63,8.95,5.12,3.21c12.13,7.59,23.53,15.45,33.51,25.38Z"/>
  <path class="cls-4" d="M541.62,859.23l-.18-1.32c2.62-1.27,5.19-3.13,7.51-5.31l7.4-6.93c5.12-4.8,9.45-9.86,14.06-15.33l3.57-4.25,8.02-10.51,12.98-19.82,3.1-5.06,2.46-4.18,3.19-5.65,6.47-11.39,4.85-9.89c10.01-20.4,17.16-41.61,22.41-63.32l1.79-11.47,1.54-9.84.58-13.95c.33-8-.28-15.54-1.55-22.94l-.98-5.7-2.15-8.32-1.06-3.3-3.41-8.79c-3.12-8.04-8.13-14.26-13.76-20.72-4.32-4.96-9.62-8.62-15.31-11.33l-5.97-2.85-3.09-1.47.44-1.43c10.49,4.46,18.14,7.81,26.29,17.14,4.91,5.63,9.02,11.43,12.07,18.25l3.59,8.04,1.81,6.46c2.03,7.21,4.25,14.12,4.28,21.77l.12,26.66-.73,7.42c-1.17,11.96-4.12,23.48-7.64,34.85l-2.56,8.27-5.5,14.91-5.11,12.03-8.33,17.81-10.22,18.7-9.36,15.27-10.91,16.17-8.97,11.33-4.33,5.79-6.11,5.88-8.1,8.43-4.72,4.2-8.5,5.7Z"/>
  <path class="cls-14" d="M594.54,574.16l-.44,1.43-6.64-1.69c-7.5-1.91-15.91-2.59-23.11-.67l-8.9,2.37-6.97,1.38-10.46,2.01-3.37.75-2.19.74-14.62.64c-17.99.79-36.06-1.92-53.62-7.01-6.57-1.9-13.41-1.9-20.39-1.51l-7.5.42c.3-.95,3.12-1.96,4.39-1.95l17.45.11c5.14.03,10.29,1.57,14.96,3.03,21.29,6.68,55.57,6.78,77.27-.02,13.41-4.2,32.08-5.16,44.15-.02Z"/>
  <path class="cls-12" d="M585.43,443.94l-2.82,12.74-1.96.9-3.01-13.5c-1.9-8.54-10.19-12.91-18.64-14.05-.95-.13-2.73-1.58-3.04-2.45-1.19-3.28,14.56-.53,20.45-13.58l5.5-16.46,4.11,15.3c3.16,11.75,20.41,12.54,20.54,13.61l.36,2.94c-9.13.94-19.45,5.33-21.49,14.54ZM581.3,449.96c2.3-6.3,3.88-11.06,7.21-15.46l13.02-6.84c-6.02-3.17-12.65-4.54-15.16-10.25l-4.96-11.32c-3.63,11.74-7.98,18.29-20.03,20.83l4.51,2.96c9.09,3.04,13.52,10.35,15.4,20.09Z"/>
  <path class="cls-18" d="M496.49,326.47c-3.76,10.34-20.37,13.47-31.97,17.11l13.5,4.2c8.11,2.52,16.48,6.93,20.9,14.34l4.61,7.73c2.28,3.81,3.58,7.72,4.56,11.97l2.71,11.82c.61,2.66.89,5.4,1.78,7.98,2.27-14.77,5.72-28.56,14.25-40.31,6.13-8.44,22.33-14.93,34-17.81-10.59-2.88-20.91-4.7-28.78-11.98-9.86-9.14-14.96-22.19-17.79-35.42-.68-3.18.11-6.28-2.25-9.39l-2.69,14.3-1.78-.1,3.53-19.33c.09-.49.81-1.68,1.06-2.06s1.59,1.04,1.69,1.64l2.76,16.33,4.5,15.41c1.79,6.13,7.51,14.61,12.57,17.87l10.12,6.51,21.67,5.2c.39-.64-.24,2.1-.65,2.6l-10.81,2.32-8.55,3.11c-6.55,2.39-13.4,6.68-17.75,12.39-6.66,8.76-11.12,22.99-12.6,34.03l-1.11,8.28-.51,2.08c-.11.45-1.58.42-1.81.02s-.79-1.66-.87-2.15l-1.77-12.25-4.16-16.13-5.41-11.04c-3.94-8.04-12.31-12.33-20.62-15.44l-7.17-2.68-12.8-2.8c-.15-.57-.01-2.23.55-2.35l2.18-.46,17.8-4.43c5.99-1.49,10.57-5.59,14.97-9.62l2.12-1.47Z"/>
  <path class="cls-18" d="M467.87,562.19l.96-1.27c2.17.86,5.09.9,7.58.98l8.35.26,14.95-1.16c-5.16-11.88-12.67-24.57-22.59-31.99l-3.88-4.11c-15.48-11.9-34.27-16.25-53.67-13.54.48,5.04,1.7,8.99,3.42,13.1l-1.65.29-4.04-12.05,2.02-4.08c8.44-1.5,16.88-1.72,24.91.87,11.56,3.72,22.85,7.34,31.86,15.69,5.31,4.92,10.74,9.73,14.47,15.8l8.84,14.4c.94,1.53,2.78,5.03.96,6.53-2.81,2.31-14.92,2.74-22.28,1.71l-10.21-1.43Z"/>
  <path class="cls-12" d="M393.91,236.82l1.56.52-4.9,3.96c-4.35,3.52-7.84,7.33-11.63,11.37l-9.9,10.56c-9.5,11.96-17.88,23.88-24.99,37.4-9.91,18.86-17.38,37.9-20.71,58.91l-1.72.5c1.98-11.29,5.01-22.24,9.18-33.29l2.95-7.72,8.62-18.44,9.82-17.22,10.95-15.39c4.48-6.3,9.67-11.26,14.9-17.18,4.46-5.05,11.15-10.51,15.86-14Z"/>
  <path class="cls-17" d="M340.85,264.83l-2.61,5.27-10.32,16.85-3.15,5.87-4.12,8.28-6.65,16.33-5.08,14.51c-4.2,12-5.93,24.26-7.97,36.3l-.84-2.46c2.43-20.94,8.38-41.21,17.14-60.73,3.45-7.68,6.33-14.96,10.86-22.05l11.84-18.48.9.31Z"/>
  <path class="cls-4" d="M526.36,524.54c-1.39,7.11-5.08,12.96-8.04,19.19-1.42,3-3.42,6.11-6.37,7.66-3.98-2.79-5.18-6.64-7.27-10.55-11.86-22.25-13.93-48.6-3.88-71.99l6.02-10.6,5.09-5.12c3.03,1.97,5.79,4.43,7.38,7.56,2.53,5,5.73,9.7,6.88,15.12l3.29,15.53-.06,17.69-3.04,15.5ZM523.32,528.65l3.28-11.12c3.03-13.93,2.07-35.66-4.67-48.03l-6.91-12.66c-.49-.9-3.32-2.33-3.92-1.51-4.93,6.65-9.52,13.76-11.78,21.83-4.89,17.53-4.56,36.12,2.02,52.95l6.67,14.03,4.05,6.12c2.53-2.91,4.46-5.93,5.92-9.3l5.33-12.31Z"/>
  <path class="cls-4" d="M583.29,508.4l1.39,2.54c-12.52,2-25.24,6.11-34.72,15.16-4.19,4-9.2,7.54-12.28,12.24l-9.18,14.02c-1.81,2.76-2.95,5.76-3.54,8.71,15.91,2.4,24.95,1.98,38.33-3.19,8.31-3.21,15.8-6.98,22.82-12.5l.4,1.31-6.9,4.98-12.88,7.03c-9.75,5.33-22.32,6.52-33.56,5.32l-7.36-.79c-.81-.09-2.56-.91-3.09-1.44s.02-2.58.44-3.26l12.53-20.26c3.12-5.05,7.81-8.61,12.09-12.65,8.73-8.24,20.09-13.16,31.73-15.73l3.78-1.49Z"/>
  <path class="cls-9" d="M435.44,572.53l-2.83,2.74c-7.91,3.17-16.35,5.91-22.67,11.86l-11.14,12.64c-2.15,2.44-3.45,5.33-4.69,7.88-3.81,7.83-7.05,15.79-8.63,24.74l-1.44,8.13-1.74.02c1.57-8.63,2.89-17.73,6.73-25.92l4.29-9.14c2.65-5.65,7.25-10.51,11.38-15.5,6.08-7.34,14.84-11.09,23.38-15.14,2.34-1.11,5.43-2.2,7.36-2.31Z"/>
  <path class="cls-9" d="M394.59,724.19l6.3,16.56,7.1,16.73,5.73,11.51,11.92,21.54,4.2,6.65,3.54,6.19-.59,1.4-3.02-4.47-8.88-14.73-9.29-17.08c-7.85-14.44-13.71-29.27-18.86-44.5l1.85.19Z"/>
  <path class="cls-26" d="M691.57,270.33l-1.41.33-3.78-5.71-10.09-13.91-14.93-17c-4.8-5.47-11.23-10.49-16.8-14.83l-1.73-2.67-19.43-13.3c-8.18-5.9-17.26-9.53-26.34-13.9l-4.88-2.35.24-1.84,10.48,5.02c7.62,3.65,15.45,7.2,22.18,12.08l18.69,13.55,9.08,8.05,6.59,5.62,14.38,16.05,11.01,14.44,6.73,10.38Z"/>
  <path class="cls-26" d="M422.99,524.47c1.94,4.65,4.65,8.47,7.86,12.26l5.33,6.31c6.7,7.92,16.51,11.5,26.04,15.27l6.6,2.61-.96,1.27c-11.18-2.45-27.69-11.26-34.48-19.57-4.68-5.72-9.79-11.12-12.05-17.86l1.65-.29Z"/>
  <path class="cls-11" d="M541.44,857.91l.18,1.32-4.21,2.25c-3.14,1.68-6.34,3.63-9.56,4.64-11.84,3.7-24.17,3.47-34.43-1.26l.28-1.34c2.71.32,6.3.63,8.69,1.65,5.56,2.37,12.49,1.99,18.66.56,2.6-2.78,5.61-.65,15.25-5.33l5.15-2.5Z"/>
  <path class="cls-18" d="M586.5,546.7l-.4-1.31,3.89-4.57c7.68-9.02,13.32-17.29,15.23-29.47l-5.77-.65c-5.19-.58-10.01-.52-14.78.24l-1.39-2.54c11.82-1.57,25.3-2.42,23.17,6.04-3.25,12.89-10.58,23.93-19.96,32.25Z"/>
  <path class="cls-9" d="M582.49,181.24l-.66,1.24-8.8-2.45-26-5.56-22.19-2.11,2-1.75c19.13,1,37.45,4.9,55.65,10.63Z"/>
  <path class="cls-3" d="M461.71,840.63l-.78.04-.45-1.1-3.43-4.86-4.16-4.99-2.81-3.7c2.72-.13,5.31.41,8.54,1.39l2.85-2.86c.91.05,3,1.97,2.95,3.23-.19,5.03-5.5,5.85-2.01,9.59.38.4,1.05,2.11.59,2.42l-1.28.84Z"/>
  <path class="cls-5" d="M446.7,182.78l-11.05,4.93c-10.25,4.57-20.27,8.91-29.37,15.13l-14.2,9.7-6.43,5.15c-11.66,9.33-22.34,19.38-31.84,31.22l-9.11,11.35-3.85,4.57-.9-.31,12.38-16.46,12.62-13.48c3.79-4.05,7.54-7.63,11.7-11.31l6.48-5.74,16.1-11.83,5.67-4.13c5.84-4.26,12.59-7.14,19.12-10.31l13.26-6.44,9.16-3.51.28,1.47Z"/>
  <path class="cls-14" d="M388.62,704.3l5.97,19.89-1.85-.19c-4.75-14.04-8.33-28.36-10.27-43.49l-.36-6.42.95-4.06,1.12,10.18,4.44,24.09Z"/>
  <polygon class="cls-26" points="692.67 318.29 696.02 327.21 697.32 336.35 695.25 330.63 687.43 309.78 681.02 296.53 672.51 281.88 657.27 260.91 658.8 260.64 663.17 266.01 671.57 277.36 676.21 285 684.75 300.15 692.67 318.29"/>
  <path class="cls-26" d="M492.37,171.82v1.23c-15.57,1-30.66,5.41-45.66,9.73l-.28-1.47c12.81-4.9,26.07-7.55,39.84-9.2l6.1-.29Z"/>
  <polygon class="cls-18" points="507.62 170.58 518.29 170.58 526.84 170.61 524.84 172.36 502.1 172.42 492.37 173.05 492.37 171.82 497.55 170.54 507.62 170.58"/>
  <path class="cls-9" d="M468.8,846.48c4.86,4.1,9.33,8.64,14.81,11.82,2.85,1.65,5.95,3.17,9.14,3.56l.95,1.66-.28,1.34c-8.23-3.79-16.59-7.73-23.2-14.54l-6.2-6.38.16-.95,4.61,3.49Z"/>
  <path class="cls-26" d="M509.33,300.99l-2.98,9.22c-1.91,5.91-4.22,11.85-8.72,15.77l5.09-10.99,4.82-14.1,1.78.1Z"/>
  <path class="cls-9" d="M382.87,648.81l.18,21.22-.95,4.06-.79-1.54v-25.56s.79-1.57.79-1.57c-.04.88.51,2.51.77,3.39Z"/>
  <polygon class="cls-5" points="658.8 260.64 657.27 260.91 647.82 250.98 642.65 245.23 643.21 243.97 651.51 252.22 658.8 260.64"/>
  <polygon class="cls-8" points="52.46 563.43 51.65 561.83 51.65 532.19 52.48 530.59 52.46 563.43"/>
  <path class="cls-4" d="M702.19,289.64c-.34-.03-.44.64-.37.84l-3.25-4.97-8.41-14.84,1.41-.33,7.19,12.56,3.43,6.74Z"/>
  <path class="cls-5" d="M440.33,812.84c1.98,3.85,4.75,7.87,7.95,10.73l1.8,2.45,2.81,3.7,4.16,4.99,3.43,4.86-3.9-2.98-4.44-5.37-11.18-14.29-8.17-12.16.59-1.4,4.42,6.46,2.53,3.01Z"/>
  <polygon class="cls-5" points="592.42 185.15 592.18 186.99 589.06 185.19 581.83 182.49 582.49 181.24 592.42 185.15"/>
  <path class="cls-5" d="M518.29,170.58h-10.67s.06-1.19.06-1.19c.04-.31,1.14-.48,1.47-.48h7.61c.33,0,1.43.17,1.47.48l.07,1.19Z"/>
  <path class="cls-14" d="M384.05,640.52l-1.18,8.29c-.26-.88-.81-2.51-.77-3.39l.21-4.89,1.74-.02Z"/>
  <polygon class="cls-5" points="461.66 841.48 460.94 840.67 461.71 840.63 461.66 841.48"/>
  <polygon class="cls-5" points="464.03 843.94 463.26 843.14 464.19 842.99 464.03 843.94"/>
  <path class="cls-6" d="M795.3,956.86c.91,2.79-2.35,5.47-4.47,4.7s-2.39-4.14-.96-6.28l5.42,1.58Z"/>
  <path class="cls-11" d="M765.97,969.62c-.27.09-1.05.27-.96.32.06.04-.68-.59-.87-.76l.18-.62.82-.86,1.03.24-.19,1.68Z"/>
  <path class="cls-1" d="M764.31,968.56l.82-.86-.82.86Z"/>
  <path class="cls-24" d="M635.64,620.76c-3.43-.35-7.82.9-9.65,4.42-.7,1.34-.82,3.88-.17,4.88,1.3,2.03,6.52,2.39,4.74,4.12s-10.17,1.06-10.78,9.71c-.53,7.58,1.76,10.67-.09,12.29-.65.57-2.19.36-3.52.39l-4.39.09.64-4.79-6.12,3.3c-.85.46-3.76-1.4-4.47-.78l-3.18,2.75c-.51-4.78-3.19-8.3-7.17-9.43l-.69,4.53-3.78-7.82c-.01-.18.99-2.04,1.58-1.96l3,.44c.9.13,2.64-.91,2.77-1.84.22-1.48-.46-2.7-1.82-2.7-2.69.02-3.39,4.41-3.85,2.76l-.46-1.65c-.73-2.64-2.29-4.14-5.02-3.99l-7.53.42.53,5.2c-3.86,1.58-5.63,5.5-3.89,9.52l-3.49,1.46c-.76.32-.46,3.35-.67,4.25-.89,1.37-4.2,2.24-6.57,2.59l-1.65-4.12-7.89-6.99-1.35-2.37c-.3-.53-2.53.03-2.48.64l.22,2.79c.27,3.48.81,6.08,1.95,10.1l-6.66,4.26,2.87,1.81c.87.55-.45,3.02-1.17,3.82-.6.67-2.86,1.29-3.38.56-.75-1.06-1.95-2.78-2.93-2.86s-2.56,2.44-2.3,3.41c.36,1.34,1.2,3.2,1.94,3.84,2.25,1.96,4.53-2.97,8.3-2.07,1.08.26,2.75,2.99,2.28,4.01-.94,2.02-4.35,4.78-6.02,6.15-.84.69-.61,3.85.34,4.28,1.59.72,4.95.94,6.22.08s1.83-3.41,2.46-5.29l5.81,4.6c.18-1.64-.82-3.47-1.82-5.28-.51-1.83,3.87-5.14,5.34-3.92l2.23,1.86c1.29,1.07,3.02-4.84,7.38-2.85l.41,11.15c2.43-2.65,4.83-5.83,7.16-5.1,2.27,2.9-1.93,7.53-4.99,7.07l-2.21,5.1-7.07-1.41,3.22,2.7c1.32,1.11-1.68,4.13.31,6.44.56.66,1.95,2.08,1.54,2.68l-1.72,2.52-5.84-2.23c-.27,1.61-.5,3.44-1.28,3.69l-2.67.84-2.68,2.03c-2.49,1.89.16-8.83-4.28-9.32-2.76-.3-4.99-.87-6.62-2.4-1.23-1.16-2.38-4.89-1.11-5.94l1.87-1.54c.37-.3-.04-1.89-.52-1.85l-2.57.23c-.72.06-2.23,1.61-2.83,1.19l-2.29-1.64c-2.09-1.5-4.74-5.52-2.12-7.76,1.68-1.44,3.21-1.88,3.28-4.76l-8.76,2.53c-1.03,10.42,5.94,17.12.85,22.16l-5.25-.5c-1.4,1.13-3.47,3.1-4.68,2.61l-4.67-1.89c-1.56-.63-4.77-.75-6.51-.7l.85-2.53,1.86,1.98c4.95-4.71,7.24-10.44,8.82-16.91,1.16-4.75,1.35-9-1.15-13.68-2.71-5.06-10.5-6.64-14.67-1.98-3.16,3.53-3.19,9.2-2.88,13.27-.09.09-1.09-.47-1.1-.83l-.2-4.99-3.07-3.63,4.92-6.39-.45-15.51c3.37.35,7.14,1.82,10.89,3.87l7.45-8.71.38,14.29c.04,1.6,1.58,3.52,2.96,3.87l6.88,1.71.58-6.62c.26-2.94.75-4.97,2.42-7.2,1.05-1.41,5-1.2,6.25-2.32l6.49-5.83c.83-.75,1.7-2.94.91-3.43s-2.53-1.37-2.33-1.99l.87-2.68c-4.83-1.55.32,5.17-4.65,10.38l-11.74-.19c-.8-.01-2.91-1.46-2.78-2.2l.5-2.88c.28-1.62-3.76-3.94-5.54-2.69-1.23.87-.73,3.6-.07,6.14-2.08-.28-3.87-2.13-5.47-4.79l-3.09,2.05-9.22,4.02c-.79.34-2.15.85-2.33,1.47l-1.04,3.69c-2.29-1.3-5.36-4.97-5.99-7.9l5.17-14.56,2.82,2.44c.33.29,1.78-.85,1.91-1.27l2.42-7.59c2.1-.82,4.74-3.29,4.02-4.76l-1.57-3.21c-.56-1.14,4.44-3.4,10.95-1.73,1.96.5,3.57.8,5.15.88-2.43-2.21-3.68-3.03-3.81-4.98-.14-2.16,1.88-3.85,4.1-3.84,1.41,0,3.75-.3,3.99-1.27l1.07-4.38c.37-1.5.76-3.54,1.29-4.71,3.57,2.17,7.31,4.29,9.97,3.66l3.79-4.68c-2.67-2.44-5.08-4.78-3.6-5.99,3.06-2.51,8.24,2.33,11.82,7.24.96,1.32.23,5.96-1.3,5.81l-10.53-1.09c1.21,4.75,5.48.81,9.68,7.95,2.58,4.39,7.89,6.21,11.93,3.53.41-1.47,1.27-3.86,2.22-4.86l3.26-3.48,6.17,1.41c.22-1.98,1.5-5.03,3.28-5.63,1.5-.51,3.96,1.11,5.44,2.56,2.25,2.2,9.32-.13,12.06-3.01-2.17-1.65-4.02-2.7-4.4-3.93-1.35-4.38,9.57-4.13,11.4-12.72,5.7,2.72,10.99,6.37,15.31,11.33,5.63,6.46,10.65,12.69,13.76,20.72l3.41,8.79ZM544.46,609.87c-.32-4.52-4.71-6.16-7.87-4.48-2.79-1.73-5.05-.73-6.68,1.6l-1.97,1.18c-.41.24.64,1.94,1.11,1.95l6.32.2c2.96.09,6.5.87,9.09-.45ZM564.03,647.57l5.65-11.63c2.47-5.09,3.24-12.62.66-17.61-1.76-3.39-5.82-5.43-8.84-4.89s-6.06,2.53-7.21,5.73c-3.04,8.39,0,16.19,3.9,24.89.87,1.94,2.95,2.88,5.85,3.53ZM529.5,635.94l-3.36-9.03c-2.14-1.04-4.9.61-5.37,2.66-.43,1.9.37,4.73,2.31,5,1.36.19,3.51.08,3.85.85l1.29,2.9c.71.02,1.55.06,1.56.02.02-.06-.17-2.11-.28-2.41Z"/>
  <path class="cls-24" d="M637.46,696.27c-5.24,21.7-12.39,42.91-22.41,63.32l-4.85,9.89-6.47,11.39-1.79-.06c2.26-4.47,1.52-9.76-2.21-12.32l-6.16,8.61-3.22.77c-.57.14-.23,1.67,0,2.21l1.18,2.82c.26.62-2.05.79-2.8.78l-9.26,2.86c2.52,3.2,8.29,2.45,8.18,5.55-.17,4.59-3.84,7.06-6.78,9.39l-2.56,2.02c-.6.47-2.72-.22-3.42-.63l-9.19-5.43,1.46,5.96c1.77,7.23-4.3,3.39-9.47,8.33l.89,2.14c.14.33-1.09,1.14-1.26.83l-.96-1.7c-2.8-4.97-11.52,2.78-13.26-2.85-.83-2.7-2.71-3.42-5.86-3.64.2-2.71,2.74-6.43,5.69-7.55,1.06-.4,2.45,2.5,3.13,3.38,1.72,2.21,6.97,1.66,8.87-.39l-.28-5.83,1.99-1.34c.38-.26-.09-1.69-.55-1.85-.8-.27-2.83-.67-2.93-1.37l-.42-2.94c-.92-2.64-1.12-4.91.58-7.29l2.13-3.99,2.19-1.28c.49-.29.15-2.63-.42-2.54l-3.37.55c-.58.11-.69-2.66-.17-3.31,1.37-1.72,5.91-2.15,3.97-2.73l-1.81-.54c-.6-.18-2.48-.21-2.76-.77l-1.27-2.54-2.68-5.77c-2.47-3.72-2.28-5.11-.43-10.51l-6.61,5.89-2.05.79c-.74.28.29,4.81-1.61,5.69-2.65,1.23-5.08-1.43-7.34,1.99-.61.92-1.81,2.36-2.52,2.06l-2.58-1.1c-3.71-1.59-5.3-3.41-5.97-7.04-.54-2.97.71-6.14,3.11-8.36l6.31.17,2.54-4.31,9.35-2.8-3.38-10.97c-2.33,0-4.19-3.21-3.02-4.13l4.6-3.6c2.71-2.12,4.58,6.98,7.06,5.47.72-.44,1.32-2.14,1.68-3.25,2.38-7.36-2.87-6.19-2.97-12.78l9.15,2.7,7.46,1.38,7.55-4.7c.48-1.42,1.8-4.21,3.18-4.24l5.34-.09c3.39-.86,4.09-6.22,2.44-9.6,6.48-1.43,13.08.28,13.47-7.12-1.6-.43-3.69-.8-3.99-1.69l-1.35-3.99c-3.24-4.26-5.21-11.8-2.67-14.61,5.88-6.5,5.85-11.77,8.14-10.92l2.9,1.08c2.72-1.01,5.6-1.19,8.37.24l4.43-.39,5.56,5.53c-.96,4.43-3.51,9.39-3.41,13.64l.22,9.26,1.78,5.97,6.21,1.27c-.05-3.06.78-4.69,2.81-5.31l.69,3.87,4.75,2.65c-2.43,1.76-3.76,2.77-4.46,4.31s3.34,5.66,6.51,7.23c1.6-4.68,1.1-7.03.26-12.18l6.77.34ZM605.05,690.78l2.93-6.67c2.33-5.31,3.26-11.87,1.52-17.46-1.06-3.41-5.26-5.77-7.95-5.89-3.38-.15-6.56,1.68-8.38,4.66-6.4,10.51,5.15,31.25,8.96,29.21.96-.51,2.29-2.44,2.91-3.84ZM554.17,725.49l-1.76,1.01c-6.28,3.55-4.01,16.86.39,24.79l4.09,7.42c-.96-.14-2.95.27-3.8.74s-.35,3.76.64,3.74l3.22-.06c.87-.02,1.7,2.35,2.06,3.05l4.91.64c1.26-3.27,1.16-6.62-1.36-8.37,7.39-9.34,12.31-27.03,4.06-33.81-4.08-3.35-9.46-3.9-12.79-.55-.28.28-.08.95.32,1.39Z"/>
  <path class="cls-21" d="M433.78,665.28c-3.94-3.13-5.94-6.73-12.55-5.86-3.03.4-6.87,3.38-8.03,7.24-2.4,8.02.31,18.91,5.69,24.72.25.75,1.13,2.03,1.58,2.54.03.12.24.9.51.99l1.53.51.7.23c3.97,1.46,5.81-4.25,8.28-9.32,2.75-5.65,3.49-13.62,2.88-19.3,2.2-.27,3.95.49,5.42,1.66,4.21,3.35-2.07,6.79-1.19,11.89,2.02,11.68-7.59,13.98-7.19,15.47l.74,2.76c.16.6.97,2.21.41,2.46s-2.26.62-2.89.58l-11.41-.77c-.81-.05-3.14-.43-3.04-1.19l.47-3.66-2.6-1.87.22-3.09c.03-.48-1.99-1.41-2.07-.89s-.13,1.65-.02,2.26l1.25,6.96c.25,1.42-3.95,2.44-5.27,1.56-1.04-.69-.99-3.25-1.46-4.91-.9-3.14-3.82-5.4-.9-9.23l-1.59-1.62c-2.41,3.15-3.69,4.79-6.41,6.78-6.81,5-7.17,12.11-6.82,12.13l-1.38-.06-4.44-24.09-1.12-10.18-.18-21.22,1.18-8.29,1.44-8.13c1.59-8.95,4.82-16.91,8.63-24.74l6.25,5.25c-3.81,3.58-9.1,3.02-9.33,6.83-.06,1.09,1.21,2.43,2.76,3.83l-2.66,3.96c.42,1.12,1.37,3.97.57,4.75s-3,1.58-4.29,2.04c4.75,11.89-2.73,21.77,5.32,25.19l-.98,8.18,10.22-.87,3.89-.45c1.03-.12,2.13-2.66,1.84-3.73-2.06-1.25-4.26-2.72-4.98-4.91-.62-1.87.94-4.55,2.76-6.88l13.71-1.6,2-3c.78-1.17,5.77,1.2,5.62,10.64.39-.13,2.26-1.75,3.23-2.2l9.29-4.35.02,9.47-5.58,5.48Z"/>
  <path class="cls-24" d="M639.83,638.07c1.27,7.4,1.88,14.94,1.55,22.94l-.58,13.95-1.54,9.84c-.83-.12-2.04-.87-1.84-1.38l.8-2.07c.55-1.43.02-4.39-.01-6.28l-.26-13.04c-4.46,2.49-3.28,4.9-3.26,9.15l-4.57-3.03c-2.25-1.24-4.72-2.98-3.62-6.5l2.4-7.7c1.8-.28,3.48-.94,3.31-1.5-2.77-.53-5.26-.76-6.42-2.49-1.44-2.15-1.23-4.66-.01-6.76l2.61-4.53c3.87,2.86,7.73,1.31,11.45-.61ZM635.96,650.74l-2.56,1.88,1.82,2.48,2.56-1.88-1.82-2.48Z"/>
  <path class="cls-3" d="M500.94,680.62c.01.35,1.02.92,1.1.83l.11,1.5c-.46.64-.95,1.88-.74,2.58.33,1.06,1.46,2.73,2.27,2.57l.08.78-1.08.56c-.25.13.09,1.05.38,1.07l1.27.05.79.76c-.67.31-1.06,2.67-.37,3.16l2.77,1.96,2.53,2.33-.85,2.53c-5.91,2.62-2.7,9.02-6.95,9.87-.82.16-2.99-.78-2.72-1.37l4.44-5.1c-2.25-2.81-4.38-3.41-8.17-3.81l5.22-7.28c.81-1.14,1.11-2.77,0-4.4-7.35,4.97-9.96,12.62-17.28,14.56-2.13-.16-5.84-4.43-4.74-6.11,4.23-5.12,3.37-12.65,5.24-10.61.44.48,1.16,1.68,1.36,2.32l.73,2.32c.34,1.08,5.26,1.56,8-5.52,1.04-2.68,4.25-4.85,6.59-5.54Z"/>
  <path class="cls-24" d="M538.6,783.63c.05.99.12,3.43-.56,3.44l-3.71.05-2.66.58c-.61.13-1.71-.99-2.42-1.51l-3.66-2.7c-1.16-.85.41-7.96.8-8.12l3.4-1.35c3.48-1.38,5.36-.34,8.74.21l9.76,1.58c1.62,7.53-10.05,1.15-9.7,7.82Z"/>
  <path class="cls-24" d="M594.09,575.59l3.09,1.47-5.54,4.16-.27,5.99c-.05,1.09-2.74,2.7-3.78,2.32l-3.8-1.36-6.3-1.31,4.49-7.76,5.43,1.34c-1.96-4.82-5.31-5.25-9.17-5.16l-11.64.27c-.58.01-2.02.04-2.09-.42l-.17-1.91c7.2-1.91,15.62-1.23,23.11.67l6.64,1.69Z"/>
  <path class="cls-3" d="M475.09,729.93c-2.5-3.38-5.15-6.98-9.3-7.83-.15-1.11.68-4.64,1.9-5.13,3.16-1.28,8.46-1.83,11.74-2.13.38-3.23,1.36-6.05,4.48-7.92l4.87-2.93c.31-.18,1.87-.29,1.83.07-.4,4.23-4,4.41-3.89,10.68-6.62,2.82-11.2,8.22-11.63,15.2Z"/>
  <path class="cls-18" d="M433.78,665.28c.19.32.52,1.19.58,1.75.61,5.68-.13,13.65-2.88,19.3-2.47,5.07-4.31,10.79-8.28,9.32l3.43-4.2c5.83-10.43,10.13-25.46.2-29.73-3.62-1.56-8.5-.71-10.75,2.92-2.96,4.76-2.46,11.04-.66,16.39l3.46,10.35c-5.38-5.81-8.09-16.69-5.69-24.72,1.15-3.86,4.99-6.84,8.03-7.24,6.62-.87,8.62,2.73,12.55,5.86Z"/>
  <path class="cls-14" d="M465.78,722.09c4.15.85,6.81,4.45,9.3,7.83l-.71,11.37c-.26,4.21-6.23,18.56-10.56,18.2-1.23-.1-3.52-1.84-4.05-2.95l-2.93-6.15-3.77-8.84,1.3-1.05,3.77,9.2c1.32,3.23,2,7.08,6.07,7.86,2.18-.97,3.8-4.66,5.01-7.11,3.36-6.79,6.02-14.57,2.77-21.74-1.7-3.76-6.71-6.03-9.94-5.06-4.29,1.29-7.04,4.24-7.42,8.96l-.43,5.41h-1.02c-.67-.14-1.68-8.01,2.89-12.44,2.19-2.12,6.48-4.15,9.74-3.48Z"/>
  <path class="cls-24" d="M515.93,814.52c2.01-3.24,4.11-7.64,5.44-11.45.98-2.8,2.26-6.65,1.78-9.6l3.5-2.55c4.36,1.16,3.12,8.61,2.32,9.02l-3.27,1.67.73,4.76-4.62,1.06-1.4,7.94-4.49-.85Z"/>
  <path class="cls-18" d="M506.85,783.02l-3.32,5.13c-2.73,10.07,1.02,20.64,8.39,27.46,4.04-4.04,6.58-8.3,7.73-12.82l1.71.29c-1.33,3.8-3.43,8.2-5.44,11.45-.71,1.15-2.81,3.73-4.02,3.21-2.92-1.25-4.58-4.25-5.92-6.56-5.5-9.5-7.8-20.58-1.05-28.18l1.9.04Z"/>
  <path class="cls-3" d="M521.05,865.73c-6.17,1.43-13.1,1.81-18.66-.56.08-.95,1.57-2.75,2.38-2.99l8.44-2.54c1.35,1.42,2.81,2.56,3.71,2.33.75-.19,1.88-1.53,2.4-2.32.42-.65,2.56-.91,2.71-.17.12.59-.04,2-.23,2.62l-.76,3.62Z"/>
  <path class="cls-24" d="M594.99,795.76l-12.98,19.82-8.02,10.51c-1.01-2.25-.28-4.96,1.88-6.63,2.64-2.04,4.05-4.71,5.84-7.49,1.13-1.74,2.19-3.02,2.89-5.24.55-1.74,1.7-3.51,2.96-4.99l4.96-5.8c.29-.34,1.12-1.5,1.41-1.21l1.06,1.02Z"/>
  <path class="cls-24" d="M583.19,659.09c-6.7-.34-5.2,2.69-8.14,4.17-1.64.83-1.13-2.49-2.51-9.07-.61-2.89,5.56-3.85,8.01-2.74,2.08.94,4.24,5.78,2.64,7.64Z"/>
  <path class="cls-3" d="M448.28,823.57c-3.2-2.87-5.97-6.88-7.95-10.73l2.89-.81,6.39-2.04.69,4.4c.11.68.18,2.85-.34,3.26l-1.95,1.53.26,4.39Z"/>
  <path class="cls-5" d="M514.95,779.91l5.51,4.03c-.05.2.03.82.12,1.01l1.62,2.73.94,5.79c.48,2.96-.8,6.8-1.78,9.6l-1.71-.29,1.23-4.83c1.68-6.56-1.22-13.99-6.14-15.94-2.57-1.02-5.51-.07-7.9.99l-1.9-.04c2.51-2.82,6.11-3.06,10.01-3.07Z"/>
  <path class="cls-3" d="M532.45,580.47c-1.46,2.85-3.13,5.07-5.83,7.31l-6-4.67h-2.68c-.46,0-.19-1.38-.11-2l14.62-.64Z"/>
  <path class="cls-3" d="M555.44,575.6l-2.17,3.27,3.15,2.74c.84.74.49,4.24-.51,4.71-1.86.81-3.5-1.27-4.24-2.83l-3.2-6.51,6.97-1.38Z"/>
  <path class="cls-3" d="M492.75,861.85c-3.19-.39-6.3-1.9-9.14-3.56l5.17-3.04c.82-.37,2.9-.42,3.68-.02s2.03,2.13,1.72,2.92l-1.43,3.7Z"/>
  <path class="cls-24" d="M638.85,632.37c-.76.18-3.26-.37-4-1.09-1.89-1.83-.71-6.73,1.85-7.23l2.15,8.32Z"/>
  <path class="cls-3" d="M492.46,719.89c-.45.42-2.54-1.51-2.15-1.97l1.72-2.01,3.7-3.67c.56-.55,2.29,2.35,1.73,2.88l-5.01,4.76Z"/>
  <path class="cls-24" d="M520.47,783.94l-5.51-4.03c2.18,0,5.53-1.47,6.77-2.85.37-.41,2.07.37,1.8.81l-1.31,2.09c-.69,1.11-1.49,2.89-1.75,3.96Z"/>
  <path class="cls-3" d="M473.84,705.34c-.96-.06-1-3.48-.04-3.75l4.14-1.18v4.2c.02.72-2.42.83-4.1.73Z"/>
  <path class="cls-3" d="M468.8,846.48l-4.61-3.49.11-1.94c.06-1.11,4.66-.09,5.21,2.03.22.85.05,2.72-.72,3.41Z"/>
  <path class="cls-21" d="M396.47,661.2c-.56.03-3.18-1.05-2.74-1.39l2.06-1.6c.39-.3,1.83-.62,2.27-.42.59.27,1.04,1.4,1.23,2.14.16.64-1.19,1.18-2.82,1.28Z"/>
  <path class="cls-3" d="M538.01,578.99c.11.73-.48,2.52-1.24,2.41-.8-.11-2.31-.93-2.13-1.66l3.37-.75Z"/>
  <path class="cls-24" d="M523.32,743.38l-2.16-2.37c-.35-.39,1.64-1.77,1.94-1.36l1.06,1.46c.31.42-.48,1.99-.84,2.27Z"/>
  <path class="cls-24" d="M522.21,787.68l-1.62-2.73c.57-.14,1.69-.1,1.68.4l-.06,2.34Z"/>
  <path class="cls-24" d="M600.55,786.52l-2.46,4.18c-.13.02-1.19-.49-1.18-.55.02-.1.62-1.14.84-1.38l2.8-2.24Z"/>
  <circle class="cls-24" cx="515.82" cy="775.82" r=".91"/>
  <path class="cls-3" d="M717.95,337.25l1.8,6.82,3.66,23.31,1.51,14.97.03,512.94c0,4.27.52,8.09-2.31,10.97-4.04,4.1-9.46,2.8-14.47.74l-1.28-6.86v-333.1c1.24-.96,4.58-1.33,5.04-.05l1.67,4.6,1.5-9.1c.13-.77-.46-2.84-1.08-2.57s-1.77,1.24-2.13,1.83l-1.75,2.9c-.45.75-2.66-.38-3.24-.8v-85.64s2.92-3.89,2.92-3.89l1.87-3.33c.52-.92-1.28-3.03-1.93-4.41-1.59-3.35,4.27-11.81,1.57-12.78l-4.43-1.38v-21.87c1.68.32,3.88-.8,4.82-2.3l1.39-2.21c.48-.76-3.46-4.16-2.62-5.48.53-.84,2.03-2.27,2.93-2.98l2.22-1.75c.59-.46,2.64,1.13,2.82,2.04l3.04,15.8h1.76s.06-35.91.06-35.91l.02-10.17-6.28,1.8-.08-1.87c-.02-.45,1.63-.57,1.86-.95l3.17-5.56c1.39-2.45,1-15.85-2.88-17.07l.83-4.69c.33-1.85-1.9-4.8-3.64-4.98-3.07-.31-4.9,1.52-6.48,3.84-4.94,7.26-1.64,10.23-2.47,10.99l-1.37.83-3.02-16.02c-.24-1.26-.04-3.11.31-3.76,5.33,1.36,11.35-.07,15.31-3.86l-1.76-6.09-4.49.83-4.7-2.47c.22-3.52,4.13-6.52,7.62-7.11l-2.86,5.38,5.52.4ZM722.94,480.66c.78-.94.51-4.6.2-5.22l-3.12-1.82c3.54-1.57,3.6-3.49,3.38-6.22-.08-.97-1.3-3.22-2.2-3.11-1.28.16-6.52,3.46-6.17,6.37.72,6.05-4.08,6.96-4.84,11.95-.12.77,1.68,1.97,2.48,1.87,2.03-.12,5.11-.23,7.07.05l3.22-3.87ZM723.28,571.94l-.08-13.86c-3.46,3.19-5.07,6.95-4.56,11.36l4.64,2.49Z"/>
  <polygon class="cls-12" points="318.11 901.32 317.36 392.29 318.18 391.19 318.11 901.32"/>
  <path class="cls-2" d="M703.3,350.16l.31-1.88,1.08-3.5,1.18-4.82,1.79-1.4,4.7,2.47,4.49-.83,1.76,6.09c-3.96,3.79-9.98,5.22-15.31,3.86Z"/>
  <path class="cls-3" d="M705.87,339.96l-1.18,4.82-1.08,3.5-1.18.19c-.29.01-.67-.86-.77-1.21l-1.65-5.28,5.86-2.01Z"/>
  <path class="cls-3" d="M696.02,327.21l-3.35-8.92c.89-.35,2.33.9,2.64,1.62l2.21,5.2c.17.41.3,1.88-.13,1.92l-1.37.18Z"/>
  <path class="cls-12" d="M318.18,386.22l1.07-7.34c.21,2.14-.2,5.23-1.07,7.34Z"/>
  <path class="cls-12" d="M319.7,370.77l.94-2.53c-.02.72-.33,2.18-.94,2.53Z"/>
  <path class="cls-12" d="M320.72,365.76c.02-.69.28-2.12.7-2.45l-.7,2.45Z"/>
  <path class="cls-2" d="M709.98,387.02c1.72-.08,4.25,1.41,5.41,2.86l4.54,5.62c.74.91,2.45,2.16,3.38,2.27l-.06,35.91h-1.76s-3.04-15.81-3.04-15.81c-.18-.91-2.23-2.5-2.82-2.04l-2.22,1.75c-.91.71-2.4,2.14-2.93,2.98-.83,1.32,3.1,4.72,2.62,5.48l-1.39,2.21c-.94,1.5-3.15,2.63-4.83,2.3v-34.46s.41-8.85.41-8.85l2.67-.24Z"/>
  <path class="cls-3" d="M709.98,387.02l-2.67.24-.86-13.8.82-2.45c1.7-.47,4.37-1.55,5.21-2.78l2.05,5.79,1.77,7.6c.12.5.04,1.76-.21,2.13-1.01,1.49-4.74-.2-5.24.84l-.87,2.43Z"/>
  <path class="cls-2" d="M719.96,359.25c-.14-.14-1.85.74-2.2,1.25l-5.28,7.72c-.84,1.23-3.51,2.31-5.21,2.78l-.82,2.45-.44-3.52,1.37-.83c.84-.76-2.46-3.73,2.47-10.99,1.58-2.32,3.41-4.15,6.48-3.84,1.74.18,3.97,3.13,3.64,4.98Z"/>
  <path class="cls-2" d="M706.9,478.22v-25.79s4.43,1.38,4.43,1.38c2.69.97-3.16,9.43-1.57,12.78.66,1.38,2.45,3.49,1.93,4.41l-1.87,3.33-2.92,3.89Z"/>
  <path class="cls-2" d="M706.9,567.05v-3.18c.58.42,2.79,1.54,3.24.8l1.75-2.9c.36-.6,1.52-1.56,2.13-1.83s1.2,1.79,1.08,2.57l-1.5,9.1-1.67-4.6c-.46-1.27-3.81-.91-5.03.05Z"/>
  <path class="cls-1" d="M581.3,449.96c-1.88-9.75-6.31-17.05-15.4-20.09l-4.51-2.96c12.05-2.54,16.4-9.09,20.03-20.83l4.96,11.32c2.5,5.72,9.14,7.08,15.16,10.25l-13.02,6.84c-3.33,4.4-4.91,9.16-7.21,15.46Z"/>
  <path class="cls-3" d="M468.83,560.92l-6.6-2.61c-9.53-3.77-19.35-7.35-26.04-15.27l-5.33-6.31c-3.21-3.79-5.92-7.61-7.86-12.26-1.72-4.12-2.94-8.07-3.42-13.1,19.4-2.71,38.19,1.64,53.67,13.54l3.88,4.11c9.92,7.41,17.43,20.11,22.59,31.99l-14.95,1.16-8.35-.26c-2.49-.08-5.41-.12-7.58-.98Z"/>
  <path class="cls-23" d="M523.32,528.65l-5.33,12.31c-1.46,3.37-3.39,6.39-5.92,9.3l-4.05-6.12-6.67-14.03c-6.58-16.84-6.92-35.42-2.02-52.95,2.25-8.08,6.85-15.18,11.78-21.83.61-.82,3.43.62,3.92,1.51l6.91,12.66c6.75,12.37,7.71,34.1,4.67,48.03l-3.28,11.12Z"/>
  <path class="cls-24" d="M586.1,545.39c-7.02,5.52-14.51,9.29-22.82,12.5-13.39,5.18-22.42,5.59-38.33,3.19.59-2.95,1.74-5.96,3.54-8.71l9.18-14.02c3.08-4.7,8.09-8.24,12.28-12.24,9.48-9.05,22.2-13.17,34.72-15.16,4.77-.76,9.59-.82,14.78-.24l5.77.65c-1.92,12.17-7.55,20.45-15.23,29.47l-3.89,4.57Z"/>
  <path class="cls-7" d="M544.46,609.87c-2.59,1.33-6.14.55-9.09.45l-6.32-.2c-.47-.01-1.52-1.71-1.11-1.95l1.97-1.18c1.63-2.32,3.89-3.33,6.68-1.6,3.16-1.68,7.55-.04,7.87,4.48Z"/>
  <path class="cls-7" d="M529.5,635.94c.11.3.3,2.35.28,2.41-.01.04-.85,0-1.56-.02l-1.29-2.9c-.34-.77-2.49-.66-3.85-.85-1.93-.27-2.74-3.1-2.31-5,.47-2.05,3.23-3.71,5.37-2.66l3.36,9.03Z"/>
  <path class="cls-18" d="M562.58,758.46c-1,1.27-4.12.5-5.68.26l-4.09-7.42c-4.4-7.94-6.67-21.24-.39-24.79-.73,2.68-3.05,6.87-2.23,9.7l4.7,16.11c.42,1.44,1.47,3.21,2.22,4.09s4.44.97,4.95-.09l4.24-8.78c3.04-6.28,4.41-13.44.82-19.81-2.62-4.64-8.97-4.51-12.95-2.23-.4-.44-.6-1.11-.32-1.39,3.33-3.35,8.71-2.81,12.79.55,8.25,6.78,3.33,24.47-4.06,33.81Z"/>
  <path class="cls-7" d="M556.9,758.72c1.56.24,4.68,1.01,5.68-.26,2.51,1.75,2.62,5.1,1.36,8.37l-4.91-.64c-.36-.7-1.2-3.06-2.06-3.05l-3.22.06c-.99.02-1.49-3.27-.64-3.74s2.84-.89,3.8-.74Z"/>
  <path class="cls-18" d="M422.51,695.43l-1.53-.51c-.27-.09-.49-.87-.51-.99.42-.24,1.2-.11,1.36.12l.68,1.38Z"/>
  <rect class="cls-7" x="634" y="651.38" width="3.18" height="3.08" transform="translate(-262.97 501.71) rotate(-36.22)"/>
  <path class="cls-24" d="M505.16,692.18l.86.83,1.52,3.41-2.77-1.96c-.69-.49-.3-2.85.37-3.16l.02.88Z"/>
  <path class="cls-24" d="M503.7,688.09c-.81.16-1.94-1.51-2.27-2.57-.22-.7.28-1.94.74-2.58l1.54,5.15Z"/>
  <path class="cls-24" d="M504.34,690.55l-1.27-.05c-.28-.01-.63-.93-.38-1.07l1.08-.56.56,1.67Z"/>
  <path class="cls-7" d="M719.96,359.25l-.83,4.69c3.88,1.23,4.27,14.63,2.88,17.07l-3.17,5.56c-.22.39-1.87.51-1.86.95l.08,1.87,6.28-1.8-.02,10.17c-.93-.11-2.64-1.36-3.38-2.27l-4.54-5.62c-1.17-1.44-3.7-2.93-5.41-2.86l.87-2.43c.5-1.04,4.23.64,5.24-.84.25-.37.33-1.64.21-2.13l-1.77-7.6-2.05-5.79,5.28-7.72c.35-.51,2.06-1.39,2.2-1.25ZM717.7,365.89l.14,2.36c.02.32,1.33-.14,1.34-.46l.05-1.61c0-.32-1.55-.61-1.53-.3Z"/>
  <path class="cls-2" d="M722.94,480.66l-3.22,3.87c-1.96-.27-5.04-.17-7.07-.05-.8.09-2.6-1.1-2.48-1.87.77-4.99,5.56-5.89,4.84-11.95-.35-2.9,4.89-6.2,6.17-6.37.9-.11,2.12,2.14,2.2,3.11.23,2.73.16,4.65-3.38,6.22l3.12,1.82c.31.62.58,4.28-.2,5.22Z"/>
  <path class="cls-2" d="M723.28,571.94l-4.64-2.49c-.51-4.41,1.1-8.17,4.56-11.36l.08,13.86Z"/>
  <path class="cls-3" d="M506.02,693.02l-.86-.83.86.83Z"/>
  <path class="cls-3" d="M717.7,365.89c-.02-.31,1.54-.02,1.53.3l-.05,1.61c0,.32-1.32.78-1.34.46l-.14-2.36Z"/>
</svg>