<svg xmlns="http://www.w3.org/2000/svg" width="5413" height="5371" fill="none" viewBox="0 0 5413 5371">
  <path fill="#AE3028" d="m1688.64 1874.24-7.81-17.93 14.02-76.52c19.93-108.83 60.73-207.95 115.68-304.76 115.89-204.31 298.47-362.87 517.92-450.82 157.95-63.293 333.84-84.435 503.09-64.748 377.22 43.908 700.58 296.968 826.44 654.018 31.05 88.12 60.12 184.67 60.17 281.56l1.25 2538.24c0 20.88 0 43.39 12.98 54.69 16.95 14.73 40.41 14.94 57.24 7.24 20.31-9.29 24.49-27.78 24.49-53.37l-.12-2537.68-7.12-93.43c-65.6-479.79-422.47-860.898-904.34-944.266L2801 853.325c-62.02-8.003-122.71-8.088-184.69-.128l-105.67 13.567c-170.33 30.257-329.22 98.389-467.59 202.126l-94.03 76.87c-3.06 2.48-11.73 4.7-15.09 4.7 12.2-17.11 29.8-28.71 45.37-41.94 176.75-150.171 392.97-246.25 624.98-263.412l50.59-3.723c29.72-2.182 56.46-2.182 86.13-.342l62.89 3.894c247.36 21.185 476.13 119.917 658.66 286.093l62.24 60.6c176.19 195.41 295.84 452.15 296.05 720.53l1.94 2469.68-1.55 40.57c-.52 13.99 2.03 35.61-1.08 48.23-6.98 28.37-35.11 38.6-60.04 36.59-17.98-1.45-49.25-17.5-49.25-44.38l-.56-2570.72c-28.3-345.11-214.54-645.84-520.47-811.51-126.76-68.65-265.22-108.833-410.53-117.392h-146l-39.2 2.91c-65.35 4.879-126.55 19.815-189.18 39.412-204.01 63.9-381.49 188.1-509.98 357.14-44.77 58.93-83.55 116.8-113.09 183.69l-30.37 68.73c-31.66 83.45-54.47 170.33-62.97 259.18l.13-.05Z"/>
  <path fill="#AC2F28" d="M1676.87 1921.36c2.28-9.03 4.27-18.7 4.22-29.53l-.21-35.56 7.8 17.93-7.03 73.23-5.22 2.86.09 478 4.31 4.88v59.87l-4.31 5.44v1250.65l4.31 5.43v77l-4.31 4.88v482.02l4.31 5.69v3.46c-1.16-2.48-4.31 7.45-4.31 10.02v82.77c0 2.31 3.15 12.28 4.4 9.84v8.65l-.52 22.76c-.69 29.02-27.9 45.15-54.34 45.97-19.97.64-57.41-15.07-57.37-44.85l2.29-2535.67c.26-276.26 156.82-595.48 363.08-776.72-.56 6.03-3.06 11.85-8.11 16.9-101.75 101.13-187.02 213.17-245.94 345.97-54.99 123.9-100.45 260.93-100.58 400.11l-2.11 2553.04c0 22.47 31.22 32.62 45.67 33.77 17.3 1.37 41.02-8.82 49.26-29.44V1972.76c0-20.11.6-35.09 4.74-51.35l-.12-.05Z"/>
  <path fill="#AB2E27" d="M3223 3803.4c-55.29 108.7-121.76 207.65-201.34 297.82l-28.33 32.1-64.83 63.59c-37.66 36.94-81.48 65.14-130.95 83.16-114.6 41.81-243.43 5.86-327.97-76.69l-82.47-80.55-22.68-25.29c-119.82-147.74-218.64-310.36-286.61-488.31-35.11-91.97-59.7-181.55-67.5-279.29-10.31-129.42 6.34-263.93 85.53-369.34 54.64-72.67 133.4-118.93 224.84-131.56 27.78-3.85 59.91-5.43 87.82-.68l73.41 12.45 140.52 22.55c49.34 7.92 100.75 3.47 150.74-.04l128.19-22 78.15-12.75c28.77-4.71 62.03-3.55 91.1.43 190.64 26.06 292.6 186.04 310.28 367.24v137.5l-3.23 31.89c-13.16 126.93-57.06 245.69-114.56 358.76l-40.15 78.96.04.05Zm-3.84-10.79c57.41-106.01 100.93-214.11 131.29-330.82l18.9-100.91 4.61-46.52-.52-107.29-13.07-80.89c-8.41-52.08-31.61-100.19-60.38-144.4-46.19-70.95-116.71-120.6-199.53-139.22-73.84-16.6-144.44-.98-217.72 11.99l-98.43 17.42c-105.03 10.65-204.7.9-306.79-23.63-65.74-15.79-135.09-21.31-199.01-2.44-96.96 28.68-172.92 92.06-213.5 182.66-15.06 33.55-27.69 65.78-35.16 102.67-27.47 136.26-12.12 274.37 32.14 407.64 68.84 207.26 178.3 396.73 318.44 564.62l95.06 94.11c104.12 103.05 269.35 126.29 394.05 35.52 53.52-38.95 99.24-82.09 142.25-133.23 80.35-95.52 147.76-197.08 207.37-307.19v-.09Z"/>
  <path fill="#A93028" d="M2693.3 2016.54c-16.78-27.09-4.66-189.8-123.05-261.53-25.45-15.41-58.06-28.59-88.38-34.41l-65.69-12.54c-.9-2.39-1.34-8.94.56-10.14 2.55-1.58 9.02-3.59 13.24-4.66l96.75-24.18c20.44-5.1 38.34-18.75 56.63-29.75 24.97-15.02 40.72-39.46 55.51-64.79 28.55-55.55 42.05-114.1 49.08-176.84l8.89-12.5c2.37-3.33 8.41 9.08 8.97 13.14 10.78 83.2 36.7 193.49 103.77 238.85 32.09 21.7 65.52 36.94 102.74 44.64l64.83 13.48c.52.51 1.64 10.14-.78 10.96l-14.4 4.83c-91.57 15.84-164.85 38.69-211.22 125.27-26.35 56.28-40.02 116.71-46.62 178.85-3.71 1.19-9.58 3.16-10.79 1.24l-.04.08Zm3.8-30.3c11.3-47.93 18.16-87 34.76-126.63 43.56-104.08 106.36-128.74 216.52-158.18-55.64-16.05-106.36-26.62-149.28-61.58-33.64-27.44-57.71-63.56-70.73-104.73l-20.45-64.66c-5.56-17.59-.26-38.56-13.37-52.94-21.82 135.02-54.34 226.78-187.4 266.75l-59.87 18.02 64.65 18.36c69.01 19.6 131.12 71.21 151.83 137.76l17.38 55.98 15.91 71.9.05-.05Z"/>
  <path fill="#AA2F27" d="M2635.16 2778.11c-9.57 13.66-76.77 16.95-118.48 11.09l-42.48-5.99c-126.25-17.76-252.84-121.12-275.27-247.2-2.33-12.97 15.83-18.7 27.6-19.9 102.4-10.27 202.64 22.85 283.55 86.58 50.29 39.63 85.88 89.66 116.54 145.25 4.1 7.45 14.58 21.66 8.59 30.17h-.05Zm-88.03 4.28 82.64-6.85c-76.9-169.43-230.32-272.05-422.82-246.42 2.85 28.89 12.55 53.58 26.61 78.45 42.79 75.66 112.75 131.77 196.43 156.63 38.77 11.52 75 21.74 117.18 18.24l-.04-.05Z"/>
  <path fill="#AA3229" d="M3085.28 2706.09c-87.21 69.54-195.34 95.82-305.59 82.64-12.33-1.46-22.12-4.71-31.83-12.37l46.76-76.78c75.39-123.85 224.89-198.58 375.16-183.3 8.36.86 20.61 8.6 24.36 15.92-14.1 69.03-54.04 130.15-108.86 173.84v.05Zm-132.24 60.42 52.71-19.38c150.09-70.83 191.24-216.73 172.22-218.87l-18.59-2.05c-99.81-11.04-217.86 26.71-285.57 94.58l-42.44 42.54c-27.65 35.65-50.99 71.34-70.87 111.96 66.81 12.19 130.3 13.99 192.45-8.82l.09.04Z"/>
  <path fill="#AB2F28" d="M3105.77 2157.73c-37.36 36.85-36.1 101.17-40.2 103.01l-10.22 4.58-8.29-41.73c-8.84-55.03-51.45-93.38-108.82-96.85l-11.3-8.55c-3.15-2.4 7.81-10.66 11.91-10.92 44.6-2.78 87.86-27.56 100.02-70.91l18.12-64.41 10.26.17c2.63 35.39 10.96 71.26 34.2 99.12 19.5 23.32 50.98 28.46 79.15 37.27l11.39 3.56c2.5.77.26 9.97-1.04 11.59-28.16 4.45-63.36 12.5-85.23 34.07h.05Zm59.69-39.63c-32.35-13.95-60-27.35-80.7-51.4l-25.62-57.09c-15.31 59.19-49.56 93.04-107.01 108.1 61.51 13.83 93.81 49.82 106.49 108.71 27.31-67.19 31.14-81.4 106.8-108.32h.04Z"/>
  <path fill="#A7392C" d="m1680.79 3754.56-4.31-5.39V2498.48l4.31-5.39v1261.47Z"/>
  <path fill="#A93128" d="M2748.29 2306.23c63.92 126.38 49.22 268.64-22.77 389.37-8.07 13.48-16.56 26.32-30.75 34.15-15.62-13.78-23.55-26.49-33.17-42.92-58.7-100.32-76.52-218.22-40.07-329.15 14.62-44.55 35.76-83.07 73.15-115 24.37 15.37 40.8 38.18 53.61 63.55Zm27.78 225.59 1.94-62.36c2.46-79.73-24.8-157.32-79.1-219.12-26.31 21.44-42.4 45.5-55.47 74.38-59.48 131.47-34.89 283.53 52.15 397.76 38.17-44.34 79.1-146.84 80.48-190.71v.05Z"/>
  <path fill="#A7392C" d="m1680.79 4324.15-4.31-5.69v-482.07l4.31-4.83v492.59Zm0-1890.94-4.31-4.88-.05-477.99 5.18-2.91-.82 485.78Zm.09 1997.03c-1.21 2.44-4.4-7.53-4.4-9.84v-82.77c0-2.57 3.15-12.5 4.31-10.02l.09 102.63Z"/>
  <path fill="#CD2227" d="m1680.88 1856.31.21 35.57-4.23 29.53c-4.14 16.3-4.7 31.24-4.7 51.35v2498.01c-8.28 20.63-31.96 30.81-49.25 29.44-14.45-1.15-45.68-11.29-45.68-33.76l2.11-2553.05c.13-139.17 45.59-276.21 100.59-400.1 58.91-132.8 144.19-244.85 245.93-345.97 5.05-5.05 7.59-10.87 8.11-16.91 3.37 0 12.03-2.18 15.1-4.71l94.02-76.86c138.37-103.696 297.27-171.871 467.59-202.129l105.67-13.566c62.03-7.961 122.67-7.875 184.69.128l101.53 13.139c481.87 83.368 838.74 464.478 904.34 944.268l7.12 93.43.13 2537.68c0 25.59-4.23 44.08-24.5 53.36-16.82 7.71-40.29 7.45-57.24-7.23-12.98-11.3-12.98-33.77-12.98-54.69L3718.19 1895c-.04-96.85-29.07-193.4-60.17-281.56-125.9-357.05-449.21-610.07-826.44-654.021-169.25-19.729-345.14 1.412-503.09 64.751-219.45 87.95-401.98 246.55-517.92 450.82-54.95 96.85-95.75 195.93-115.68 304.76l-14.01 76.52v.04Z"/>
  <path fill="#AE3028" d="m1676.87 1921.36 4.22-29.53c.05 10.83-1.89 20.5-4.22 29.53Z"/>
  <path fill="#CE2227" d="M3219.16 3792.61c-59.61 110.12-126.98 211.67-207.37 307.2-43.01 51.14-88.73 94.28-142.25 133.22-124.69 90.77-289.89 67.49-394.05-35.52l-95.06-94.11c-140.14-167.89-249.6-357.35-318.44-564.62-44.25-133.27-59.61-271.37-32.13-407.64 7.41-36.89 20.09-69.11 35.15-102.67 40.58-90.6 116.54-153.98 213.5-182.65 63.92-18.88 133.27-13.4 199.01 2.44 102.13 24.52 201.77 34.28 306.79 23.62l98.43-17.42c73.28-12.97 143.88-28.59 217.72-11.98 82.82 18.62 153.38 68.26 199.53 139.22 28.77 44.21 51.97 92.31 60.38 144.39l13.07 80.89.52 107.29-4.61 46.52-18.9 100.92c-30.36 116.7-73.92 224.81-131.29 330.82v.08Zm-763.55-596.46 24.71-55.16c13.46-30 13.46-64.28-7.72-90.99-10.96-13.78-30.49-22.6-47.57-20.93-13.46 1.29-31.15 12.03-40.76 25.81-17.21 24.82-18.25 60.64-4.66 87.6l30.28 60.18c3.27 6.54 19.54 11.47 26.01 9.41 5.65-1.8 16.82-9.41 19.75-15.96l-.04.04Zm505.93 18.75c21.13-5.44 29.37-31.89 37.44-46.48 13.37-24.18 17.34-45.11 18.93-73.01 2.03-35.82-25.62-70.62-64.65-65.18-50.64 7.06-62.54 75.45-34.51 133.48 8.63 17.85 18.81 48.02 42.79 51.19Zm259.91 115.55c2.07-19.95-10.35-44.64-25.36-56.28-17.82-13.82-38.3-14.46-58.27-5.26-72.29 33.21-11.61 178.59 27.39 177.22 22.68-.77 51.58-70.32 56.24-115.68Zm-994.27 109.56 16.95-12.07c31.32-53.54 58.53-128.35 2.85-153.81-29.33-13.4-62.58 7.87-67.2 39.88-5.87 41 14.23 97.84 47.4 126Zm458.83 30.85c23.21 19.18 63.41-54.48 67.33-113.75 1.6-24.22-8.11-44.08-26.87-59.27-16.43-13.31-42.22-14.17-61.98-2.61-34.42 20.07-31.27 68.77-17.51 112.34 7.85 24.82 16.17 44.38 39.03 63.29Zm-243.3 281.18c36.83-36.68 57.32-93.73 45.55-135.79-7.16-25.51-31.58-38.39-56.25-34.2-22.9 3.85-38.56 24.39-39.59 50.84-1.73 43.96 14.28 88.98 50.29 119.15Zm523.1-19.77 25.06-59.15c11.43-27 6.08-62.05-15.53-82.51-14.84-14.04-39.59-12.24-55.08-2.61-56.5 35.18-.08 165.11 29.24 158.9 4.96-1.07 13.68-8.56 16.27-14.68l.04.05Zm-251.63 303.9 29.89-60.77c9.96-20.29 10.48-48.88 5.13-70.36-6.55-26.45-29.41-41.13-54.04-42.33-21.18-1.07-44.77 13.48-53.7 37.71-5.05 13.78-6.51 42.49-2.03 57.64 10.44 35.18 32.87 86.37 56.38 87.95 4.96.34 16.17-5.39 18.37-9.8v-.04Z"/>
  <path fill="#CD2427" d="m2697.1 1986.24-15.92-71.9-17.38-55.97c-20.7-66.6-82.77-118.21-151.82-137.77l-64.66-18.36 59.87-18.01c133.02-39.98 165.54-131.73 187.41-266.76 13.07 14.38 7.8 35.4 13.37 52.94l20.44 64.67c12.98 41.17 37.05 77.33 70.74 104.72 42.91 34.97 93.64 45.54 149.28 61.59-110.16 29.44-172.96 54.09-216.52 158.17-16.61 39.68-23.47 78.71-34.77 126.64l-.04.04Z"/>
  <path fill="#CE2327" d="M2547.13 2782.39c-42.14 3.51-78.42-6.72-117.19-18.23-83.68-24.86-153.64-80.97-196.42-156.64-14.06-24.86-23.72-49.51-26.61-78.44 192.54-25.6 345.91 76.99 422.81 246.42l-82.64 6.85.05.04Zm405.91-15.88c-62.15 22.86-125.69 21.06-192.45 8.82 19.88-40.66 43.21-76.31 70.86-111.96l42.44-42.54c67.72-67.87 185.77-105.62 285.58-94.58l18.59 2.06c19.02 2.09-22.17 147.99-172.23 218.86l-52.71 19.39-.08-.05Zm212.42-648.41c-75.7 26.92-79.53 41.13-106.79 108.32-12.68-58.85-44.99-94.88-106.49-108.71 57.45-15.1 91.69-48.91 107-108.1l25.63 57.09c20.7 24.01 48.39 37.45 80.69 51.4h-.04Z"/>
  <path fill="#CD2227" d="M2776.07 2531.82c-1.38 43.86-42.31 146.36-80.48 190.7-87.04-114.23-111.63-266.28-52.15-397.75 13.07-28.93 29.16-52.94 55.47-74.39 54.3 61.8 81.56 139.39 79.1 219.12l-1.94 62.36v-.04Z"/>
  <path fill="#B13029" d="M2455.61 3196.15c-2.94 6.55-14.11 14.17-19.76 15.96-6.47 2.06-22.73-2.91-26.01-9.41l-30.28-60.17c-13.58-26.97-12.55-62.79 4.66-87.61 9.58-13.82 27.3-24.52 40.76-25.8 17.08-1.67 36.62 7.14 47.58 20.92 21.17 26.67 21.17 60.99 7.72 90.99l-24.72 55.16.05-.04Zm-24.46 9.67c34.29-34.02 48.91-75.75 47.01-117.69-1.38-30.77-25.75-51.74-52.88-49.56-28.94 2.36-44.51 29.36-43.3 57.27.86 19.9 2.72 37.1 10.26 54.6 8.98 20.93 17.69 43.36 38.91 55.38Z"/>
  <path fill="#B6332B" d="M3221.45 3330.45c-4.66 45.36-33.56 114.91-56.25 115.68-38.99 1.37-99.67-144.01-27.38-177.22 19.97-9.16 40.45-8.56 58.27 5.26 15.01 11.64 27.38 36.34 25.36 56.28Zm-54.13 108.62c31.01-38.09 46.06-80.03 43.13-124.54-1.55-23.63-19.11-37.53-38.78-42.24-17.25-4.11-44.16 5.56-50.89 24.69-13.24 37.45-2.98 75.15 14.71 108.28 7.89 14.8 14.96 29.96 31.83 33.76v.05Z"/>
  <path fill="#AE3129" d="M2714.18 4036.17c-2.2 4.45-13.42 10.14-18.38 9.8-23.46-1.59-45.93-52.73-56.37-87.95-4.49-15.19-3.02-43.87 2.03-57.65 8.88-24.22 32.47-38.77 53.7-37.7 24.62 1.24 47.48 15.92 54.04 42.33 5.35 21.48 4.83 50.07-5.13 70.35l-29.89 60.78v.04Zm-20.23 3.12c27.86-24.95 36.57-53.79 47.01-84.61 4.62-16.52 4.27-32.82-.3-48.91-6.99-24.74-25.49-34.24-52.84-32.53-29.15 1.8-44.47 31.37-42.61 61.46 2.41 39.03 19.24 76.05 48.74 104.63v-.04Z"/>
  <path fill="#B13029" d="M2961.54 3214.9c-23.94-3.17-34.16-33.34-42.79-51.19-28.04-58.03-16.13-126.38 34.5-133.48 39.08-5.48 66.73 29.36 64.66 65.18-1.6 27.9-5.57 48.79-18.94 73.01-8.06 14.64-16.3 41.04-37.43 46.48Zm6.16-12.59c22.86-28.84 36.06-61.92 41.15-97.27 4.75-33-13.54-66.55-48.31-67.02-31.53-.43-51.97 31.54-48.69 62.52 6.47 60.52 42.01 119.19 55.81 101.77h.04Z"/>
  <path fill="#B0342B" d="M2686.01 3470.86c-22.9-18.91-31.22-38.47-39.03-63.29-13.76-43.61-16.91-92.27 17.51-112.34 19.75-11.52 45.55-10.66 61.98 2.61 18.76 15.19 28.51 35.05 26.87 59.27-3.97 59.23-44.12 132.93-67.33 113.75Zm14.41-4.4c48.48-60.05 65.64-153.86 6.86-168.54-22.95-5.73-47.49 2.66-56.29 24.95-14.02 35.61-2.85 72.46 13.11 105.45 7.81 16.18 15.92 29.62 36.32 38.14Z"/>
</svg>
