<?xml version="1.0" encoding="UTF-8"?><svg id="a" xmlns="http://www.w3.org/2000/svg" viewBox="0 0 1255 1255"><defs><style>.b{fill:#a81717;}.c{fill:#cb1610;}.d{fill:#cd1d16;}.e{fill:#a51211;}.f{fill:#b22e2d;}.g{fill:#cc1812;}.h{fill:#ce1912;}.i{fill:#cd211a;}.j{fill:#af1918;}.k{fill:#ce1710;}.l{fill:#c81812;}.m{fill:#ca1913;}.n{fill:#cb1812;}.o{fill:#cd1a12;}.p{fill:#bd2f2f;}.q{fill:#ba2a29;}.r{fill:#b32624;}.s{fill:#a91212;}.t{fill:#cd1e16;}.u{fill:#b22122;}.v{fill:#aa1413;}.w{fill:#a70e0d;}.x{fill:#cf1f16;}.y{fill:#cb1b14;}.z{fill:#ce1e16;}.aa{fill:#ca1812;}.ab{fill:#ad1413;}</style></defs><path class="l" d="M704.02,33.16l10.77,1.88,21.57,3.55,32.61,7.53,11.05,2.79,12.4,3.46,20.36,6.69,33.44,12.65,6.88,3.11,41.51,20.5,5.82,2.81,27.22,16.26c27.11,16.2,52.52,37.2,76.91,55.28l5.31,5.6c.56.59,2.2,1.54,2.93,1.97l3.47,4.59,20.35,20.31c.73.73,2.83,1.87,3.21,2.04l6.15,7.54,19.64,21.85,7.18,8.67,26.45,35.62c16.44,23.98,30.81,48.74,44.02,74.19l-6.26,4.69c.99,2.54,2.92,5.92,4.71,6.34l3.85.92c.98.23,1.93,2.85,1.47,3.72-.76,1.44-2.07,3.6-2.23,4.77-.47,3.49,6.29,6.25,7.04,14.48.51,5.55,4.1,7.83,7.95,11.58,1.65,1.61-1.91,5.48-3.92,6.28-2.46.98-4.6,1.27-6.52.33-1.42-.69-1.76-4.87-.8-6.3,3.26-4.82-.31-11.39-3.66-12.57-.96-.34-4.01,1.43-4.34.65-2.14-5.01,4.69-9.54,1.78-14.44-1.06-1.79-4.86-3.93-6.7-5.18l-5.72-12.79-6.64-1.98c-.26.03-1.57.17-1.81.83l-15.46-27.37-4.26-7.17-7.57-12.02-18.4-26.33-6.06-8.24-12.89-16-3.66-4.42-5.77-7.17-6.97-7.9-22.05-22.13-6.48-6.52-9.34-9.75-10.11-9.72-14.25-12.25c-3.25-2.8-6.86-5.36-10.44-6.59-.13-1.13-1.16-2.93-2.65-4.04-32.35-24.15-66.11-45.49-102.64-62.97l-20.13-8.99-18.52-7.48-26.3-9.81c-32.38-10.13-64.61-18.72-98.37-22.35l-19.14-2.06-16.34-1.77-66.58-.09-12.08.99-11.97,1.04-18.72,2.25-13.95,2.16c-40.87,6.33-80.15,17.54-118.62,33.12l-9.47,3.84-11.48,5.29-12.34,5.71c-39.15,18.12-75.05,42.04-108.44,69.13l-10.11,8.2c-22.67,18.39-42.84,38.88-61.97,60.83-1.48,1.7-2.81,2.8-4.28,3.58-8.54-1.67-15.28-6.66-13.82-14.61l11.82-13.2c18.39-20.54,37.9-39.28,59.25-56.6l6.23-5.63,9.13-6.97,11.47-8.6,30.73-21.36,24.13-14.73,18.1-9.97,25.68-13.16,6.78-2.97c26.44-11.59,53-22.93,81.47-29.83l22.6-5.48,33.76-7.15,7.93-1.01,9.91-1.69,12.19-1.61,21.04-1.97c22.39-2.1,44.31-2.65,66.7-1.6l6.99.33,22.97,1.57,25.3,3.01Z"/><path class="z" d="M1143.28,352.04l2.69,5.73,6.16,10.32s-.15.38-.25.59l1.87,5.61.82,2.46c.12.37,1.81.12,1.75.1l.23.47s-.45,1.61-.61,2.15c-.13.44,1.55.05,1.67,0l.45.32-.14,1.34-.66.57c.36,1.34,1.45,3.66,2.78,4.54,0,.08-.26.37-.34.48.74,3.24,2.18,7.03,4.91,9.5l-.67.52,2.05,7.47c.13.47.25,1.67.66,1.69l1.42-.02.56.41-.32,1.95c0,.46.59.92,1.19,1.04l-.11.49c-.04,2.88-.62,4.44-3.97,4.53-3.95.1-4.37-7.23-5.85-5.31-.34.44-.98,1.62-1.09,2.28l-2.08,11.98,9.12,2.87,2.18-6.82c.41-1.28,3.38-2.1,5.25-2.27l-.56.65-.35,1.84c-.07.35,1,.46,1.33.3l.53.88c-.68.69-.47,3.42-.03,4.69,2.3,6.61,4.05,13.89,7.1,19.29.17,1.77.56,4.34,1.2,6.4,7.88,25.36,13.9,50.56,17.92,76.85l3.38,22.09c-1.7.37-2.32,2.17-2.72,5.41l-10.25,1.87c-7.44-11.57-.77-16.61-.73-20.49.01-1.29-2.15-3.05-3.66-3.99-5.24-3.25-1.65-7.46-5.57-7.64l-14.96-61.96-6.12-19.75-9.83-26.61-1.38-5.07c-7.93-20.24-16.31-39.89-26.76-58.39.24-.66,1.55-.8,1.81-.83l6.64,1.98,5.72,12.79c1.85,1.25,5.64,3.39,6.7,5.18,2.91,4.9-3.93,9.43-1.78,14.44.33.78,3.38-.99,4.34-.65,3.36,1.18,6.92,7.75,3.66,12.57-.96,1.43-.62,5.61.8,6.3,1.92.94,4.06.64,6.52-.33,2.01-.8,5.58-4.68,3.92-6.28-3.85-3.75-7.44-6.03-7.95-11.58-.76-8.23-7.52-10.99-7.04-14.48.16-1.17,1.47-3.33,2.23-4.77.46-.88-.49-3.49-1.47-3.72l-3.85-.92c-1.79-.43-3.72-3.8-4.71-6.34l6.26-4.69Z"/><path class="l" d="M965.06,1121.84l1.35.06-4.22,4.14-12.62,8.74c-26.29,18.21-53.63,34.72-83.06,47.46l-25.97,11.24-35.51,12.91-1.13-.14,1.19-1.91,32.48-11.95c-6.16-3.45-1.01-7.02-5.57-11.2-.5-.46-1.64-1.54-1.31-1.78l2.17-1.51c.33-.23,1.66-.58,1.72-.95v-2.23s2.35-1.05,2.35-1.05c.18,1.06,2.95,1.22,3.95.81,1.37-.56,3.03-2.32,2.89-3.87l24.41-11.52c19.43-9.17,37.44-20.02,54.95-31.78l8.92-5.99.86-1.49,1.22.75,11.23,6.96c.2,2.17,2.27,6.15,3.67,5.21l6.34-4.23c.23,0,2.45-1.17,2.61-1.93,1.48-6.96-11.09-14.75-7.17-15.21l4.73-.56,3.88,8.59c.47,1.03,1.01,4.34,1.95,3.95l3.66-1.51Z"/><path class="r" d="M1103.16,982.16l-1.06-1.76c28.02-40.02,50.14-84.11,67.97-130.36,17.06-44.25,28.11-89.86,34.16-136.69l1.08-8.4,3.23-40.43.16-58.42-.68-11.12-1.04-13.17-.88-8.67-2.65-23.16-3.38-22.09c-4.02-26.28-10.05-51.49-17.92-76.85-.64-2.06-1.03-4.62-1.2-6.4,1.37,2.42,2.92,4.61,3.86,7.71,11.3,37.31,18.84,75,22.7,113.86l1.27,12.76.93,10.06,1.02,13.89-.29,65.79c-1.86,32.5-6.31,64.04-12.93,95.64l-2.63,10.5-1.41,6.14c-15.84,69.13-49.99,143.5-90.33,201.15Z"/><path class="j" d="M746.29,1220.54l3.64-.93,1.1,1.55c-25.93,6.19-52.32,10.83-79.4,12.36l-18.16,1.03-49.47.11-17.06-.9-14.69-1.19c-27.37-2.21-53.26-7.31-80.13-13.83-64.6-15.66-125.47-42.81-180.45-79.32l1.78-.87,17.34,10.87c45.43,28.49,94.1,50.41,146.13,63.48l33.6,8.45,11.75,2.27,8.81,1.83,16.04,2.29,11.93,1.76,14.94,1.29,9.06.83,22.94,1.31,9.12.75,23.75-.04,11.22-.86,17.99-.96,20.9-1.74,11.2-1.46,15.96-2.38,9.34-1.42,12.7-2.44,8.13-1.87Z"/><path class="s" d="M176.56,247.71c-16.77,20.66-32.01,42.65-45.98,65.96-42.04,70.15-69.62,147.29-81.64,228.16-2.3,15.02-3.9,28.7-4.93,43.12h-1.98s.83-8.08.83-8.08c4.47-43.66,12.27-86.72,25.28-128.74,22.92-74.03,59.39-142.14,107.61-202.12l.82,1.7Z"/><path class="j" d="M705.09,31.55l-1.07,1.61-25.3-3.01-22.97-1.57-6.99-.33c-22.39-1.05-44.31-.5-66.7,1.6l-21.04,1.97-12.19,1.61-9.91,1.69.12-2.04,38.95-4.92,12.91-.92,17.11-.88c13.61-.7,27.1-.57,40.45.09l17.62.87,10.98.77,28.04,3.46Z"/><path class="b" d="M1102.09,980.4l1.06,1.76c-15.18,21.7-31.22,42.85-49.58,62.34l-14.61,15.51-17.91,17.98-11.59,10.57-41.96,33.86,1.66-3.23,2.86-3.54c1.32.15,3.49-1.21,4.06-2.35l.95-2.15c.94.04,2.7-.39,3.45-.97l11.6-9,29.67-26.52c29.86-29.23,56.75-60.51,80.36-94.24Z"/><path class="ab" d="M539.04,33.08l-.12,2.04-7.93,1.01-33.76,7.15-22.6,5.48c-28.46,6.9-55.02,18.24-81.47,29.83l-.29-1.9c46.45-21.21,95.64-35.73,146.18-43.61Z"/><path class="s" d="M142.74,965.97c.04,1.24.48,3.86,1.25,4.94l5.54,7.8,10.39,16.03c-25.96-30.71-58.71-89.77-73.47-128.05l-6.77-17.57,1.67-1.28c11.7,32.94,26.39,64.7,45.04,94.77l13.04,21.02c.62,1,2.8,2.51,3.31,2.33Z"/><path class="s" d="M901.01,96.61l-.57,1.52-5.82-2.81-41.51-20.5-6.88-3.11-33.44-12.65-20.36-6.69-12.4-3.46-.15-2.11c16.83,4.49,33.01,10.21,49.83,16.58,24.91,9.44,48.48,20.55,71.31,33.23Z"/><path class="b" d="M1147.99,357.37l-2.03.4-2.69-5.73c-13.21-25.45-27.58-50.21-44.02-74.19l-26.45-35.62-7.18-8.67-19.64-21.85-6.15-7.54,1.25-.27,12.48,13.51,6.67,7.39c14.46,16,27.01,32.64,39.55,50.45,18.5,26.28,33.97,53.96,48.19,82.12Z"/><path class="e" d="M1004.57,169.67c-24.39-18.08-49.8-39.08-76.91-55.28l-27.22-16.26.57-1.52c35.27,19.59,68.65,42.16,99.54,68.85l4.03,4.2Z"/><path class="ab" d="M779.87,46.8l.15,2.11-11.05-2.79-32.61-7.53-21.57-3.55-10.77-1.88,1.07-1.61,10.07,1.38c22.22,3.05,43.52,8.21,64.71,13.87Z"/><path class="s" d="M392.86,76.69l.29,1.9-6.78,2.97-25.68,13.16-18.1,9.97-24.13,14.73-1.77-.92,4.7-3.19c23.15-14.67,46.96-27.43,71.47-38.62Z"/><path class="w" d="M316.69,118.5l1.77.92-30.73,21.36-11.47,8.6-9.13,6.97-6.23,5.63c-21.36,17.32-40.87,36.06-59.25,56.6l-11.82,13.2-2.89,3.14-10.38,12.79-.82-1.7,6.78-8.44,13.98-16.12,9.54-10.53c8.77-9.68,17.74-18.46,27.46-27.48,26.07-24.19,53.56-46.12,83.18-64.94Z"/><path class="s" d="M72.56,823.09l-1.97.06c-8.66-24.74-15.33-50.26-19.55-76.17l1.4-2.27c4.55,26.57,11.07,52.93,20.11,78.39Z"/><path class="v" d="M52.45,744.7l-1.4,2.27-5.44-33.41-3.09-28.98-.57-11.59.13-4.01c.67.43,1.63,2.88,1.73,4.18l1.81,23.83,4.18,32.19,2.66,15.52Z"/><path class="l" d="M1169.37,409.76l3.56,7.25c-1.87.17-4.84.99-5.25,2.27l-2.18,6.82-9.12-2.87,2.08-11.98c.11-.66.75-1.84,1.09-2.28,1.48-1.92,1.9,5.41,5.85,5.31,3.34-.09,3.93-1.65,3.97-4.53Z"/><polygon class="l" points="798.88 1206.79 796.02 1209.08 751.03 1221.16 749.93 1219.62 798.88 1206.79"/><path class="e" d="M1041.09,203.91l-1.25.27c-.38-.16-2.48-1.31-3.21-2.04l-20.35-20.31-3.47-4.59c3.55,2.05,7.26,5.18,10.47,8.45l17.81,18.22Z"/><path class="b" d="M275.27,1111.54l-.48,1.74-19.49-15.59-5.92-5.08-8.54-7.48-7.47-6.51-28.32-28.5-6-7c2.71,1.42,5.33,3.51,7.75,6.05l12.24,12.82,8.02,8.01,23.96,21.91,5,4.16,19.23,15.48Z"/><path class="e" d="M199.06,1043.12c-2.98-2.09-5.33-5.31-7.91-8.28l-6.97-8-21.91-27.22c-.87-1.08-1.54-3.83-2.35-4.88l10.7,12.65,19.48,23.74,7.96,8.55c.48.52.98,2.91,1.02,3.43Z"/><polygon class="s" points="42.72 620.77 42.78 643.98 40.71 646.04 39.9 633 40.71 618.96 42.72 620.77"/><polygon class="ab" points="81.35 847.84 79.68 849.12 70.59 823.15 72.56 823.09 81.35 847.84"/><path class="l" d="M1180.95,444.65c-3.05-5.4-4.79-12.68-7.1-19.29-.44-1.27-.65-4,.03-4.69l6.32,18.01c1,2.85,1.32,3.91.75,5.97Z"/><polygon class="e" points="313.44 1138.55 311.66 1139.42 305.55 1135.58 283.81 1120.22 274.79 1113.28 275.27 1111.54 293.66 1125.29 313.44 1138.55"/><path class="s" d="M42.09,595.02l.97,12.95-2.05-.06v-14.64c-.02-.54.71-2.82.93-2.25l.14,4Z"/><path class="l" d="M1152.13,368.09l-6.16-10.32,2.03-.4c1.44,2.86,3.44,7.78,4.14,10.72Z"/><polygon class="v" points="43.06 607.98 42.72 620.77 40.71 618.96 41.02 607.91 43.06 607.98"/><polygon class="v" points="43.05 657.03 41.02 657.08 40.71 646.04 42.78 643.98 43.05 657.03"/><path class="s" d="M43.05,657.03l-.98,11.95-.13,4.01c-.22.56-.94-1.71-.94-2.27v-13.65s2.05-.05,2.05-.05Z"/><path class="i" d="M972.01,1115.64l-2.86,3.54-1.66,3.23c-.63-.33-.89-.5-1.08-.51l-1.35-.06c.12-3.38,3.93-6.54,6.94-6.2Z"/><path class="l" d="M1164.6,396.22c-2.72-2.47-4.17-6.25-4.91-9.5,2.6,2.22,4.45,6.5,4.91,9.5Z"/><path class="v" d="M44.01,584.95l.03,7.03c0,.84-1.45,3.12-1.95,3.05l-.14-4,.08-6.08h1.98Z"/><path class="l" d="M1160.04,386.24c-1.32-.88-2.42-3.21-2.78-4.54,1.35,0,2.75.93,2.76,1.78l.02,2.77Z"/><path class="l" d="M1156.33,376.85c.06.03-1.63.27-1.75-.1l-.82-2.46-1.87-5.61,4.45,8.16Z"/><path class="l" d="M1168.05,405.87l-1.42.02c-.41-.02-.53-1.22-.66-1.69l-2.05-7.47,2.36,2.72,1.76,6.42Z"/><path class="l" d="M1169.49,409.27c-.6-.12-1.2-.58-1.19-1.04l.32-1.95,1.1,1.4c.28.35-.08,1.22-.23,1.59Z"/><polygon class="m" points="803.91 1206.24 805.04 1206.39 796.02 1209.08 798.88 1206.79 800.03 1207.06 802.04 1206 803.91 1206.24"/><path class="l" d="M1173.35,419.79c-.33.17-1.4.06-1.33-.3l.35-1.84.98,2.13Z"/><path class="l" d="M1157.62,379.47c-.12.06-1.79.45-1.67,0,.16-.54.63-2.2.61-2.15l1.06,2.15Z"/><path class="l" d="M1157.92,381.13l.14-1.34c.22.15.84.77.92.73l-1.06.62Z"/><path class="t" d="M189.83,231.78c-1.47,7.95,5.28,12.94,13.82,14.61l-.74,2.8c-3.76,2.65-6.32,7.31-9.61,10.81l-7.36-3.93,3.38,8.16-5.98,8.31c-15.09,20.96-30.18,41.45-42.54,64.11l-2.08,4.62c.09.29.21.58.17.67-34.7,55.94-60.96,134.25-70.15,200.77l-2.24,16.2-1.64,13.15-2.4,32.59c-1.33,18.1-1.2,36.02-.16,54.25l.69,12.11,1.58,20.27,1.85,14.81,1.99,16.32,5.06,28.19,7.57,32.32,4.57,16.43c11.37,40.84,35.2,96.11,56.85,131.92l11.96,19.77-9.89,4.14-1.27,5.5c-.37,1.61-.58,3.83-.53,5.3-.51.18-2.69-1.33-3.31-2.33l-13.04-21.02c-18.65-30.08-33.35-61.83-45.04-94.77l-8.79-24.76c-9.04-25.46-15.56-51.82-20.11-78.39l-2.66-15.52-4.18-32.19-1.81-23.83c-.1-1.3-1.06-3.74-1.73-4.18l.98-11.95-.27-13.05-.06-23.2.34-12.8-.97-12.95c.5.07,1.95-2.21,1.95-3.05l-.03-7.03c1.03-14.42,2.63-28.1,4.93-43.12,12.02-80.86,39.6-158,81.64-228.16,13.97-23.31,29.21-45.3,45.98-65.96l10.38-12.79,2.89-3.14ZM142.18,953.41l4.15-7.81-4.2-5.83c-6.41,3.04-8.52,9.5-5.94,16.43l5.99-2.79Z"/><path class="b" d="M967.76,169.8c-34.51-25.45-71.1-49.23-110.89-67.69-57.68-26.75-118.62-43.55-181.86-48.76l-13.04-1.07-14.95-.96c-12.95-.83-25.8-.65-38.48.18l-15.27.99c-40.58,2.64-80.31,9.49-119.76,21.12-95.53,28.16-183.21,83.1-250.95,155.81l-10.22,10.97c-3.05,3.28-6,6.39-9.41,8.8l.74-2.8c1.47-.79,2.8-1.89,4.28-3.58,19.13-21.95,39.3-42.44,61.97-60.83l10.11-8.2c33.39-27.08,69.29-51.01,108.44-69.13l12.34-5.71,11.48-5.29,9.47-3.84c38.48-15.58,77.75-26.79,118.62-33.12l13.95-2.16,18.72-2.25,11.97-1.04,12.08-.99,66.58.09,16.34,1.77,19.14,2.06c33.75,3.63,65.99,12.22,98.37,22.35l26.3,9.81,18.52,7.48,20.13,8.99c36.53,17.48,70.28,38.82,102.64,62.97,1.49,1.11,2.52,2.92,2.65,4.04Z"/><path class="v" d="M1121.48,353.38c10.45,18.5,18.83,38.15,26.76,58.39l1.38,5.07h-1.72c-7.84-23.01-17.96-44.98-30.26-66.45l-17.89-31.23,2-.33,4.26,7.17,15.46,27.37Z"/><path class="e" d="M1101.76,318.84l-2,.33c-17.54-28.31-36.75-55.56-59.67-80.18l-15.97-17.15-24.5-24.31-9.45-8.69-8.02-6.87-14.39-12.17c3.58,1.23,7.19,3.8,10.44,6.59l14.25,12.25,10.11,9.72,9.34,9.75,6.48,6.52,22.05,22.13,6.97,7.9,5.77,7.17,3.66,4.42,12.89,16,6.06,8.24,18.4,26.33,7.57,12.02Z"/><path class="v" d="M1180.54,525.15l1.78,13.35,1.87,10.34,3.99,36.1.49,4.19,1.13,32.91c1.04,30.46-.97,59.81-4.89,90.09-4.7,36.25-12.87,71.08-24.02,105.78l-9.13,26.09c-20.45,58.45-52.27,111.4-91.25,159.31-1.6,1.97-2.62,3.02-4.27,3.95.22-1.12.74-2.47,1.59-3.53,19.82-24.69,37.66-50.05,53.25-77.72,39-69.22,62.1-141.06,72.68-220.1l1.03-10.01.97-10.9,1.04-14.94.9-17.08v-39s-.91-16.05-.91-16.05l-1-14.99-.84-10.08c-2.77-33.47-9.75-65.98-18.27-98.39l-2.87-10.93,1.78-.36,14.96,61.96Z"/><path class="i" d="M1203.45,549.98l2.65,23.16-6.67-3.61c-1.26-.72-4.34-.74-6.95-.86-1.93,5.28-2.9,10.38-3.02,16.14l-1.3.12-3.99-36.1-1.87-10.34-1.78-13.35c3.91.19.32,4.39,5.57,7.64,1.52.94,3.68,2.7,3.66,3.99-.04,3.88-6.71,8.92.73,20.49l10.25-1.87c.4-3.24,1.02-5.04,2.72-5.41Z"/><polygon class="e" points="1165.58 463.19 1163.8 463.55 1161.99 458.16 1147.91 416.83 1149.62 416.84 1159.45 443.45 1165.58 463.19"/><path class="d" d="M834.6,1174.72v2.23c-.06.38-1.39.72-1.72.95l-2.17,1.51c-.33.23.8,1.32,1.31,1.78,4.56,4.18-.59,7.74,5.57,11.2l-32.48,11.95-1.19,1.91-1.87-.24-2.01,1.06-1.15-.28-48.95,12.83-3.64.93,1.57-9.95c.41-2.14-2.3-5.08-4.79-4.63l-16.22,2.96-9.88,2.19c-.65.15-2.72-.05-2.74-.65l.03-1.54c37.52-6.22,74.28-16.31,109.96-30.49l10.37-3.72Z"/><path class="z" d="M967.7,1096.38l10.19,7.34,2.58,6.45c-.75.58-2.51,1-3.45.97l-2.56-.1c-.51-.02-.51,1.85,0,1.91l1.61.34c-.58,1.15-2.75,2.5-4.06,2.35-3.01-.33-6.82,2.82-6.94,6.2l-3.66,1.51c-.94.39-1.49-2.92-1.95-3.95l-3.88-8.59-4.73.56c-3.92.47,8.65,8.26,7.17,15.21-.16.76-2.38,1.93-2.61,1.93l-5.04-1.37c-1.46-.12-1.69,4.4-1.3,5.6-1.4.94-3.47-3.04-3.67-5.21l-11.23-6.96,19.69-13.81.42,1.59c.08.32.86.64,1.17.74s.8-1.3.52-1.47l-1.72-1.04,13.47-10.23ZM963.34,1107.53c-.78,1.42-.16,5.6,1.04,5.51,1-.07,3.02-.75,3.8-1.38.94-.76.97-3.64-.11-4.17-.9-.44-4.25-.84-4.73.04Z"/><path class="ab" d="M923.16,1127.31c-17.51,11.75-35.52,22.61-54.95,31.78l-24.41,11.52-6.83,3.06-2.36,1.05-10.37,3.72c-35.68,14.18-72.44,24.28-109.96,30.49l-10.1,1.32c-6.37.83-12.56,2.2-18.23,1.36,83.95-10.91,165.28-39.17,236.01-85.78l1.2,1.49Z"/><path class="w" d="M1004.23,1064.2l-23.41,21.6-13.12,10.59-13.47,10.23-.39.17-19.69,13.81-1.22-.75-.86,1.49-8.92,5.99-1.2-1.49c23.75-15.65,46.85-32.19,68.6-51.23l12.29-10.76,1.39.36Z"/><path class="x" d="M955.4,1128.52l-6.34,4.23c-.39-1.2-.16-5.72,1.3-5.6l5.04,1.37Z"/><path class="d" d="M843.79,1170.61c.15,1.55-1.51,3.32-2.89,3.87-1,.4-3.77.25-3.95-.81l6.83-3.06Z"/><path class="z" d="M932.08,1121.32l.86-1.49-.86,1.49Z"/><path class="i" d="M1206.98,581.81l1.04,13.17.68,11.12-.16,58.42-3.23,40.43-1.08,8.4c-6.05,46.83-17.1,92.44-34.16,136.69-17.83,46.25-39.96,90.34-67.97,130.36-23.61,33.73-50.5,65.01-80.36,94.24l-29.67,26.52-11.6,9-2.58-6.45-10.19-7.34,13.12-10.59,23.41-21.6.76-2.19.84-1.14c1.08.28,3.6-.79,4.39-1.6l19.31-19.77,23.85-27.15c1.38-1.57,2.55-3.53,2.85-5.06,1.64-.94,2.66-1.98,4.27-3.95,38.97-47.91,70.79-100.86,91.25-159.31l9.13-26.09c11.16-34.7,19.32-69.52,24.02-105.78,3.92-30.28,5.93-59.64,4.89-90.09l-1.13-32.91c.71-.17,2.27-.16,2.24.46l-.12,2.73c-.08,1.71.97,5.48,2.09,6.67l9.94-1.81c4.1-.75-2.13-12.34.75-13.88l3.43-1.49Z"/><path class="t" d="M1206.1,573.14l.88,8.67-3.43,1.49c-2.89,1.54,3.35,13.13-.75,13.88l-9.94,1.81c-1.11-1.19-2.16-4.96-2.09-6.67l.12-2.73c.03-.61-1.52-.62-2.24-.46l-.49-4.19,1.3-.12c.12-5.76,1.09-10.86,3.02-16.14,2.61.12,5.69.14,6.95.86l6.67,3.61Z"/><path class="m" d="M187.17,993.85l-.36.92c-.38.96,1.9,3.56,3.15,5.1l16.33,19.97,12.11,13.33,15.92,16.34,9.74,9.78,12.57,12.07,20.2,17.18,31.11,23.44c1.13.85,3.11,1.73,4.02,2.42l9.59,7.25c45.57,30.57,94.68,54.47,147.35,70.36l50.29,12.86,8.96-.1.51,1.46,8.07,2.05,12.14,2.02,16.04,2.04,19.18,1.79,13.55,1.34,55.39.2,20.96-1.8c4.21-.36,8.09-.82,11.12-2.91l.83.66c5.67.84,11.86-.53,18.23-1.36l10.1-1.32-.03,1.54c.02.6,2.08.79,2.74.65l9.88-2.19,16.22-2.96c2.49-.45,5.2,2.49,4.79,4.63l-1.57,9.95-8.13,1.87-12.7,2.44-9.34,1.42-15.96,2.38-11.2,1.46-20.9,1.74-17.99.96-11.22.86-23.75.04-9.12-.75-22.94-1.31-9.06-.83-14.94-1.29-11.93-1.76-16.04-2.29-8.81-1.83-11.75-2.27-33.6-8.45c-52.03-13.08-100.7-35-146.13-63.48l-17.34-10.87-19.78-13.27-18.39-13.74-19.23-15.48-5-4.16-23.96-21.91-8.02-8.01-12.24-12.82c-2.42-2.53-5.04-4.62-7.75-6.05-.04-.52-.54-2.91-1.02-3.43l-7.96-8.55-19.48-23.74-10.7-12.65-10.39-16.03-5.54-7.8c-.77-1.08-1.21-3.71-1.25-4.94-.05-1.47.15-3.69.53-5.3l1.27-5.5,9.89-4.14,9.53,14.05,8.45,11.48,10.73,14.93c.8,1.12,2.98,2.53,4.04,2.36Z"/><path class="i" d="M977.02,1111.13l-.95,2.15-1.61-.34c-.51-.06-.51-1.93,0-1.91l2.56.1Z"/><path class="l" d="M802.04,1206l-2.01,1.06,2.01-1.06Z"/><path class="j" d="M138.91,341.93l-4.4,9.58-6.51,11.55-3.74,7.36-6.84,15.15-3.4,7.67-7.98,18.95-2.74,7.23c-19.05,50.32-28.26,93.15-35.93,144.87l-1.09,11.6-.95,11.06-.81,12.01-.52,15.03-1.01,1.94v33.16s.99,1.94.99,1.94l.85,13.04c-.91,4.67-.48,9.39,1.06,13.98-.79,4.13-.58,8.28.47,12.19l1.22,10.92c5.63,50.47,18.36,99.18,36.66,146.5,11.32,29.28,24.75,56.5,40.15,83.1l-1.91.52c-21.65-35.81-45.49-91.07-56.85-131.92l-4.57-16.43-7.57-32.32-5.06-28.19-1.99-16.32-1.85-14.81-1.58-20.27-.69-12.11c-1.04-18.22-1.18-36.15.16-54.25l2.4-32.59,1.64-13.15,2.24-16.2c9.2-66.52,35.46-144.84,70.15-200.77Z"/><path class="j" d="M138.73,341.26l2.08-4.62c12.36-22.66,27.45-43.15,42.54-64.11l5.98-8.31,3.97-4.23c3.29-3.5,5.85-8.16,9.61-10.81-.08,1.58-1.03,3.38-2.56,5.19-21.09,25.1-39.47,51.55-56.24,79.63l-3.07,5.14-2.31,2.11Z"/><path class="aa" d="M142.18,953.41l-5.99,2.79c-2.58-6.94-.47-13.39,5.94-16.43l4.2,5.83-4.15,7.81Z"/><path class="b" d="M187.17,993.85c-1.06.17-3.24-1.24-4.04-2.36l-10.73-14.93-8.45-11.48-9.53-14.05-11.96-19.77,1.91-.52c11.67,20.16,24.95,39.37,39.63,58.19l3.16,4.92Z"/><polygon class="l" points="193.3 259.99 189.33 264.22 185.95 256.06 193.3 259.99"/><path class="i" d="M963.34,1107.53c.48-.88,3.83-.48,4.73-.04,1.08.53,1.05,3.41.11,4.17-.78.63-2.8,1.32-3.8,1.38-1.2.08-1.82-4.1-1.04-5.51Z"/><path class="i" d="M953.85,1106.78l.39-.17,1.72,1.04c.28.17-.21,1.57-.52,1.47s-1.09-.43-1.17-.74l-.42-1.59Z"/><path class="e" d="M1005.83,1060.86l24.46-24.79,7.84-8.86,6.5-7.56,6.44-7.51c1.68-1.97,3.25-3.97,5.16-4.86-.3,1.53-1.46,3.49-2.85,5.06l-23.85,27.15-19.31,19.77c-.79.81-3.32,1.89-4.39,1.6Z"/><polygon class="e" points="1004.23 1064.2 1002.84 1063.83 1004.99 1062 1004.23 1064.2"/><path class="ab" d="M528.15,1204.76l-8.96.1-50.29-12.86c-52.67-15.89-101.78-39.79-147.35-70.36l-9.59-7.25,1.31-.71c25.16,16.96,50.97,32.76,78.85,46.13,21.23,10.17,41.99,18.25,64.22,25.94,23.81,8.24,47.84,13.81,71.81,19.01Z"/><path class="ab" d="M685.11,1210.95c-3.03,2.1-6.9,2.55-11.12,2.91l-20.96,1.8-55.39-.2-13.55-1.34-19.18-1.79-16.04-2.04-12.14-2.02-8.07-2.05,5.57-.28,33.95,4.86,10.74.98,16.02.92,16.4.94,31.14-.07,18.54-.9,13-.9,11.09-.83Z"/><path class="s" d="M313.27,1113.68l-1.31.71c-.9-.68-2.89-1.57-4.02-2.42l-31.11-23.44.46-1.74,13.49,10.45,22.49,16.43Z"/><path class="b" d="M245.27,1058.85l-1.2.43-9.74-9.78-15.92-16.34-12.11-13.33-16.33-19.97c-1.26-1.54-3.53-4.13-3.15-5.1l4.16,3.23,19.86,24.13,9.04,10.03,9.01,9.93,16.39,16.76Z"/><polygon class="e" points="277.3 1086.8 276.84 1088.54 256.64 1071.35 244.07 1059.28 245.27 1058.85 252.75 1065.27 264.34 1075.7 277.3 1086.8"/><path class="k" d="M712.55,670.96l-5.49-1.9c-.21-.64.16-2.14.35-2.88l4.04.93c1.11.26,1.41,2.76,1.1,3.85Z"/><path class="k" d="M668.82,667.54l3.01,5.89c1.07,1.83,2.55,7.13,6.11,5.24,2.58-1.37.5-7.34-2.21-8.22l1.9-4.9,10.36-1.4c.68.9,2.48,2.29,3.54,2.05s2.53-2.15,2.47-3.2l3.99.05c1.55,3.17,5.53,5.13,9.08,6.01l1.69,5.27-2.49,1.99c-.4.32-1.58,1.72-1.17,2.02l1.55,1.11c2.4,2.1,8.17,4.72,12.11,3.15,3.24-1.28,3.61-6.96,3.33-10.34l6.97-4.08,6.37,2.99c-3.69,12.68-20.54,10.55-7.38,19.49-1.9,1.76-5.43,3.72-8.58,4.95l-3.84,4.16c-2.65-4.59-5.34-8.32-10.38-8.98l-5.1,6.77c-1.49-.49-4.19-1.66-5.31-1.38-1.35.34-7.29,5.37-7.59,9.43l-5.53,1.59c-8.56-2.2-9.62-10.07-19.34-12.82,2.9-3.43,8.04.38,12.75-.77,1.04-.26,1.42-3.71,1.02-4.73-2.07-5.27-11.34-13.73-15.27-9.81-.65,1.41,1.61,4.55,3.26,5.32l-4.02,6.58c-3.81-.39-6.68-2-11.78-4.84l-1.28,6.95c-.26,1.39-.67,3.48-1.09,4.4-1.08,2.39-10.75.23-10.06,4.93.23,1.6,1.72,3.88,3.25,6.5-10.4-3.93-20.37-1.73-17.74,2.48l1.85,2.96c1.22,1.95-7.53,3.76-8.51,13.7l-5.36-1.78-4.64,11.63c-1.14,2.85-3.06,6.08-.54,8.88l8.67,9.61.16,13.5-4.38,6.42c-.4.59-.56,3.1.05,3.49l2.32,1.17c-.9,12.08,5.32,32.43,16.17,31.04,10.06,8.08,11.85-2.7,18.45.68,1.45-.33,3.92-2.99,4.32-4.65,1.19-4.98-6.06-9.58-3.97-21.7l10.55-2.36c-.18,4.04-2.93,3.79-4.5,5.13-4.56,3.9,5.34,11.35,6.34,10.86l3.06-1.51c.51-.25,2.07-.35,2.62-.25s1.19,1.68.75,2.03l-2.12,1.72c-1.41,1.15-.83,5.91.39,7.24,3.28,3.57,8.81,2.25,10.96,4.12,2.37,2.07-.11,9.75,3.14,9.38.93-.11,2.5-1.42,3.36-1.85l4.84-1.73c.39-.87,1.33-3.4,2.22-3.09l3.83,1.34c.77.27,2.35-1.21,2.53-2s-.64-2.16-1.58-3.51c-.84-1.21-.08-3.27,1.5-5.7l-4.46-5.17,8.05,1.98,2.41-5.68c3.23.17,5.15-.68,6.31-2.6.83-1.38.75-5.84-.88-5.89-3.27-.1-5.57,2.61-8.47,4.84l-.37-12.38c-5.48-1.45-6.66,6.22-8.98,4.9l-3.25-1.84c-1.14-.65-3.64,1.35-4.01,2.6s.57,3.96,1.34,5.1c.33.49-.75,2.51-1.19,2.11l-1.95-1.77c-1.55-1.4-3.28-2.68-4.94-3.64-1.14,5.53-2.51,6.11-6.39,6.7-2.44.37-7.18-2.07-4.83-5.27,1.88-2.31,7.32-5.58,7.84-9.09.49-3.29-5.31-5.29-7.23-3.32-1.62,1.67-4.31,2.79-5.89,1.78-1.17-.75-2.36-3.59-2.32-5.04s3.56-3.17,4.34-2.01c.98,1.47,2.28,3.5,3.41,3.58.93.07,3.01-1.45,3.35-2.3l1.29-3.27c.28-.71-2.06-1.51-3.01-1.8-.37-.37-1.1-1.45-.64-1.62l2.16-.77c1.85-.66,5.58-2.99,5.16-4.8l-1.94-11.65c-.14-.82.81-3.49,1.54-3.11,3.24,1.69,4.15,6.28,12.65,9.96,1.1.76,1.48,5.01,2.78,5.06s4.08-.73,5.19-1.41.87-4.31-.21-4.99c-.95-.61-2.84-2.2-2.19-2.71l2.61-2.04c1.04,1.44,1.92,2.71,2.96,3.13.86.35,3.15-1.85,2.89-2.99-.66-2.93,1.62-6.09,3.7-8.81,1.37-1.79,2.13-5.37,3.7-6.45,5.42-3.74,14.06,4.61,17.32-1.26l1.99-3.58c.48-.86,3.77.26,3.79,1.24.03,1.66.56,3.99,1.28,4.93.6.78,3.73-.22,3.84-1.26.28-2.64,2.65-5.8,5.26-6.4.5-.86,1.57-3.36,2.42-3.22l3.24.54,4.54-9.93,5.31,5.57,3.18.54c.43.07.24,1.94-.05,2.39l-6.02,9.17c-2.69,4.09-3.71,6.47-1.61,12.09-1.39.71-4.81.19-5.53-1.13-2.87-5.32,1.82-8.73-3.99-10.37-.61,1.11-1.46,4.06-1.94,6.02l-7.48-1.76c-1.44-.27-2.82,3.41-3.14,4.74l-1.6,6.54,5.06,7.89c1.34,2.09,7.24-1,8.56-2.7l7.59-.38,1.77,3.34c.38.71,2.86.74,3.74.6l4.15-.66c2.31-.37-3.37-6.48-.84-13.21,1.32-3.52,3.17-8.98,7.61-8.96,3.03.01,6.39-1.15,6.01-3.69l-5.66-2.07c-1.24-.45-1.91-3.62-1.44-5.15,1.5-4.82,8.05-8.58,13.29-6.5l1.29,4.07-3.07,3.5c-.67,1-.06,4.44,1.11,4.76l4.21.61,1.64,7.25c-4.61,1.11-9.12,1.78-14.48,1.53-2.23,2.97-4,8.99-1.27,13.16,8.03,3.25,14.52-2.56,11.44,4.24-2.12-.52-4.73-1.04-6.72-.48-2.62.74-5.83,8.23-4.94,11.48.41,1.49,2.71,3.31,4.32,4.36l4.93,3.22c.24-5.36.04-7.28,3.82-10.31,1.88,5.47.08,10.31.42,15.23.18,2.67,1.65,5.51-.08,8.19-.29.45-.51,1.97-.03,2.19l1.91.49-2.41,14c-2.17-1.14-5.93-1.33-8.06-.41.92,5.27,1.84,9.26-.86,13.69l-7.89-5.5c-4.15-2.89,7.97-9.34,2.72-10.07l-3.04-.43c-.58-.08-1.32-1.49-.97-1.95l2.46-3.19c-.3-.46-3.52-.24-3.83.65l-1.84,5.17-7.59-.58-1.56-7.41c.99-8.26-4.06-10.74,2.13-20.23,2.19-3.35,1.03-6.21-1.22-8.73-2.51-2.8-4.5-3.74-8.58-3.83l-10.99-.25-4.4-.92c-2.49-.52-1.6,5.89-9.37,13.21-2.6,2.45-1.16,8.43.58,11.48.16.82.23,3.04.89,2.99l4.91-.33-.69,5.67,3.65,1.72c.95.45.76,3.84.12,4.7-5.24,6.96-10.4,3.36-15.96,5.04,2.08,4.07.81,10.01-3.05,10.5l-9,1.14-.9,4.41c-3.53,1.62-6.82,3.44-10.03,5.86l-6.47-1.17-7.68-2.31c-2.84-.85-5.17-2.27-7.98.95,5.98,3.13,7.54,10.5,4.76,14.67-.44.66-2.31,1.54-2.83,1.23-2.67-1.59-1.34-8.67-8.43-7.34-.91,2.67-1.54,3.51-3.68,5.27-1.84,1.52,1.27,3.93,3.14,5.6,2.46,2.2,2.97,7.52,3.73,11.83l-11.13,3.5c-1.4,5.46-5.09,4.52-9.45,5.34-5.6,1.05-6.31,12.39-1.43,14.89l8.08,4.14c1.68-2.24,3.68-4.52,5.08-4.12,2.2.62,5.39.65,6.58-.57,1.08-1.12.53-4.61,0-6.29l12.27-7.94c-2.7,5.68-3.12,9.83-.42,14.59l4.3,7.57,8.33-.58c-.52-5.25-1.79-5.8-6.62-7.2l5.31-2.11c1.52.17,4.69.22,5.84-1.07,2.04,1.87,3.87,8.05.56,9.02s-5.07,1.66-7.5,3.81l-3.42,1.98c-.8.46-1.03,3.44-.22,3.37l3.73-.5c.53-.07,1.76,1.42,1.43,1.84l-5.84,7.51c-2.21,2.84-2.59,4.3-1.59,7.65.3,1,.29,3.95,1.19,4.44l4.43,2.41c-1.63,1.02-3.84,2.93-3.38,4.19.51,1.4,1.25,4.16,1.12,5.12-2.81.77-7.46.73-9.07-.16-.2-2.42-1.11-5.39-2.6-5.77-5.14-1.33-10.28,3.04-10.67,8.1-1.13.19-4.15,1.26-3.65,1.96l1.99,2.81c.77,1.09,6.67-3.48,7.08-.1.27,2.26,1.84,5.93,4.16,6.55,2.72.73,5.28-1.57,7.77-2,4.19-.72,10.9-1.63,14.23-3.26.63-.31,3.34.44,2.98,1l-2.37,3.61c-.12.07,2.83,1.55,4.31,2.19,1.19.51,3.89-2.09,3.78-3.32-4.99-6.4.24-11.35-5.84-16.26l3.19-1.79,4.71,5.06c4.2,4.51,9.43,4.04,13.73.47,4.96-4.12,9.02-9.25,7.36-14.04-6.33,1.97-11.22.69-13.66-4.89,4.44-.03,7.66.07,10.88-.72,1.96-.49,3.63-5.04,4.03-6.91,9.52-2.09,6.96-8.51,11.68-11.09.85-.46,3.82.91,3.95,1.9l1.85,11.7-3.96,6.57-4.69,3.54,1.67,1.48c-.31.51-1.26,1.36-1.83,1.57-1.69.62-3.98,2.66-5.38,4.56l-3.85,5.21c-3.85,2.01-5.59,4.57-5.86,9.15l-4.42,2.96c.04,2.25.11,4.51-.13,5.56s-2.43,1.69-3.67,2.18c-4.36,1.71-6.18,5.84-4.3,9.77l-10.17,12.46-.85,1.56-11.35,9.69-10.47,8.58c-5.84,4.79-13.21,8.64-20.71,11.3-24.75,8.78-52.55.91-72.09-17.2l-13.83-12.82-7.74-8.34-11.57-14.13-12.66-17.4c-22.79-33.28-40.83-69.36-52.98-107.83l-.53-1.06-.16-1.89-1.14-4.23,1.6.21c.6-6.73,5.28-11.24,10.15-15.38l7.45-6.34-.8,6.93c-.16,1.38,2.09,3.26,3.13,4.66.69.92-.03,3.73-.21,5.31-.13,1.15,3.14,2.67,4.26,2.23s2.82-2.05,3.62-3.28c-2.11-3.42-3.69-8.34-.28-10.97l3.75,8.26,1.21,4.5c.27,1.01,2.99.96,4.2,1.05l11.21.84c7.77.58-.26-6.56,5.55-10,6.44-3.81,7.83-11.21,5.31-17.89l3.4-5.29c2.71-4.21-4.56-8.86-8.19-7.69l-.47-1.75,6.62-6.21c.8-2.47.68-6.78.21-10.94l-11.27,5.32c-.94.45-3.47,1.75-3.68,1.68-.28-10.75-6.1-13.32-6.96-11.97l-2.41,3.79-16.1,1.46-4.5,6.07c.68,2.53,3.85,5.79,5.89,7.14.86.59.77,3.77-.16,4.28-1.12.62-3.68,1.35-5.06,1.45l-13.45.89.79-8.94c-3.43-2.63-4.77-6.53-4.59-11.21l.38-10.06c.09-2.36-1.19-6.12-1.9-8.23l5.64-4.19c-.98-3.54-.47-5.8.54-8.35-.6-1.37-1.71-4.07-1.57-5.4.4-3.76,7.97-2.86,10.52-8.35l-6.72-5.48c4.97-9.32,12.32-17.47,20.44-24.33,4.61-3.9,11.04-6.48,16.76-9.42l5.84-3,1.17-.95,1.99-.12c12.22-1.9,24.82-3.49,37.84-.67,21.54,4.67,42.7,9.44,65.09,8.18l15.95-.9,22.86-4.13ZM569.77,741.18l3.29-8.42c1.48-3.78,1.33-7.35.88-11.6-.62-5.81-4.85-10.71-10.49-11.19s-10.63,3.79-11.95,9.65c-2.29,10.24,3.31,22.12,9.99,30.35,4.01-2.33,6.68-4.69,8.28-8.8ZM704.38,762.98l6.59-1.4c.46-.92-.41-4.75-1.53-5.74-2.35-2.07-10.41-1.21-10.09,1.9l.95,9.06c.2.21,2.54.32,2.75-.25l1.32-3.57ZM484.19,765.17c.73.17,2.54-1.09,2.54-1.85s-.63-2.36-1.38-2.24l-2.87.49c-.79.13-2.26,2.66-1.47,2.85l3.18.75ZM553.7,853.84c-.06.51.1,2.66.32,3.19-.71-.41-1.08,3.02-.62,3.96l6.71,13.76c1.17,2.41,5.24,5.68,7.36,3.86,7.44-6.4,10.57-16.11,11.56-25.53.94-8.9-4.32-17.82-13.48-17.49-8.26.3-14.1,7.36-13.64,15.5.05.91,1.01,3.31,1.78,2.75ZM637.18,857.14l.17,2.89c.02.39,1.63-.18,1.64-.56l.06-1.96c.01-.39-1.89-.75-1.87-.37ZM662.79,903.19c1.2-.1,3.73-.94,4.69-1.33.77-.32.93-3.33.18-3.7l-6.6-3.27c-8.52,2.48-7.47-3.96-15.47.48-2.61,1.45-4.34,2.48-4.9,5.13-.97,4.6-1.01,7.56,1.99,10.3s5.95,1.62,10.35,1.45c1.76-.06,4.34.36,5.28-.61,2.7-2.81-.99-8.01.64-8.14l3.85-.31ZM627.7,897.64c.6.81,1.62,1.9,1.75,1.48l.52-1.76c.12-.42-1.16-.1-2.27.27ZM628.49,904.25c-10-3.9-17.43,5.82-17.51,10.58-.05,3.33-.49,8.34.37,10.73l4.42,12.18c-.29.68-1.15,2.29-.59,2.63l2.75,1.62,5.36,4.05c1.53.36,5.22-1.45,6.32-2.98,1.14.87,4.09,1.32,4.79.48l1.91-8.74c4.01-1.31,4.52-2.49,6.26-5.5,1.19-2.06,3.11-4.08,3.89-6.48s-1.11-5.34-3.36-7.31l-5.15,2.9c.03-3.07-1.38-7.12-3.2-10.15l2.98-7.06c.2-.39.1-2.64-.26-2.39l-1.7,1.2c-2.4,1.69-4.39,2.92-7.85,2.44l.54,1.83ZM700.87,934.45c-.31-1.09-1.94-3.9-2.35-3.27l-2.5,3.9,4.85-.63ZM678.7,941.64c.6.81,1.63,1.9,1.75,1.48l.52-1.76c.12-.42-1.16-.1-2.27.28Z"/><path class="n" d="M640,199.19c9.09.29,18.56.68,27.98,2.71l29.95,6.44,12.27,3.88,12.91,4.25,12.71,5.88c42.01,19.42,77.63,49.82,103.63,88.03.76,1.12,2.69,2.33,3.6,2.88,1.64,5.7,5.24,11.37,8.73,16.89l4.22,5.89.32,2.74,15.06,36.11-1.87.18c-.41.03-.93,1.5-.53,1.56l2.57.24,1.71,4.6-7.74,5.22c-1.29.93-2.5,3.74-2.64,5.23-.36.33-1.58,1.18-2.22,1.43l-7,2.7-1.4-.48c-.36-1.86-1.25-4.37-2.07-6.31l-1.54-10.28,2.5-.43-2.79-8c-.52-1.49-2-2.82-3.8-2.55-7.5-17.27-16.4-34.56-28.4-50.12l-2.94-3.81-4.72-6.38c-7.1-9.6-15.24-18.04-24.14-25.25l-18.71-15.15-9.94-7.03-21.16-11.88c-23.14-12.99-48.64-20-75.07-23.42l-17.47-1.66-31.49.16-16.58,1.64c-37.92,3.75-79.56,23.39-110.69,46.1l-4.49,4.11-8.7,6.76c-43.12,37.68-71.65,90.99-80.27,147.02l-.86,11.91-.93,5.94v6.06s-1,1.33-1,1.33l.91,588.69c0,5.25-6.55,8.81-10.48,9.38-3.72.54-12.38-2.05-12.38-7.78l.02-600.21c0-8.03,2.89-15.01,2.01-22.49l.73-8.84c1.65-.47,2.19-2.8,2.82-5.21l6.3-24.12,7.56-20.5c6.81-18.47,17.28-35.08,28.28-51.4l2.31-4.83,4.78-5.17,11.07-12.98,9.86-11.09c7.48-8.42,16.03-15.09,24.85-22.13,18.88-15.09,39-27.61,60.95-36.75,23.47-9.77,48.54-16.16,73.82-18.85,13.12-1.39,26.42-1.28,39.6-.86Z"/><path class="y" d="M582.08,392.95c8.49-3,19.88-6.39,22.95-14.81l1.19-.64c6.4-3.82,13.1-20.9,14.78-29.16l3.42-16.78c3.07,4.37,1.9,8.9,3.02,13.06,5.18,19.37,12.88,36.2,30.96,45.02,5.9,2.87,11.61,4.42,17.93,6.23l7.28,2.08c-20.79,5.35-38.48,10.99-47.85,30.77-5.74,11.59-8.55,22.87-10.77,36.32l-6.17-25.87c-1.68-7.02-5.56-13.07-10.04-19.21-5.73-7.85-15-14.16-24.69-16.9l-17.74-5.03,9.93-3.03,5.8-2.05Z"/><path class="o" d="M548.15,640.84l-3.31-.55-2.47-3.64c-11.62-7.4-20.68-17.5-26.37-29.46-2.61-4.7-4.23-9.73-4.64-15.63,43.64-6.24,80.28,17.98,97.76,57.56l-16.38,1.34-18.62-.97-16.53-5.06-9.44-3.59Z"/><path class="f" d="M387.91,1043.02l.09-590.02v-6.06s.93-5.94.93-5.94l.86-11.91,1.48-.02-.41,6.34-.63,9.63-1.2,10.29-.06,588.42c0,6.92-7.8,10.15-12.51,10.36-4.98.22-13.4-3.36-13.4-10.51l-.03-591.26,1.05-9.28.68-10.07,2.33-11.07c.89,7.49-2.01,14.46-2.01,22.49l-.02,600.21c0,5.73,8.65,8.32,12.38,7.78,3.92-.57,10.48-4.13,10.48-9.38Z"/><path class="q" d="M860.05,1043.97l1.91.17c0,3.55,4.54,6.96,7.1,7.61,5.09,1.32,8.45.05,12.4-2.4,2.76-4.41,2.61-8.08,2.61-13.67l-.28-594.29c0-20.75-5.99-40.82-10.52-59.93l-1.71-4.6-.18-1.98-15.06-36.11-.32-2.74.17-1.13,7.16,15.01,2.69,6.37,3.91,9.87c6.57,16.59,10.74,33.69,13.18,51.67l1.53,11.31,1.32,10.2-.04,605.31c0,6.61-8.93,9.56-13.35,9.57s-12.52-4.28-12.52-10.24Z"/><polygon class="p" points="860.79 428.03 861.01 429.36 862.09 447.72 861.98 450 862.07 498.64 862.01 523.76 861.98 537 861.97 540 861.97 553.06 861.96 1044.14 860.05 1043.97 859.97 442.47 858.91 434.02 857.65 423.27 859.33 420.93 860.79 428.03"/><path class="j" d="M728.52,920.33l-.73-1.59-.14-2.1c.56-.21,1.52-1.06,1.83-1.57l3.02-5.02,3.96-6.57c18.16-30.14,32.2-62.95,40.72-97.13l2.41-14,1.73-11.39.77-15.97c.43-9,.02-17.74-1.84-25.94l-1.64-7.25-2.25-8.87-1.29-4.07c-6.31-19.97-20.61-38.74-39.64-47.69l-6.37-2.99c-7.26-3.41-15.16-4.22-23.33-4.69l-7.75-.45-3.99-.05-5.51.05-1.48-.14c2.39-2.2,5.54-1.22,9.36-1.28l14.24-.24c44.99,6.22,68.9,43.03,72.9,86.07l.16,30.53-1.08,10-1.02,6.07-2.4,11.03-2.44,11.58-5.47,17.68c-10.6,30.66-25.37,59.24-42.72,86Z"/><path class="b" d="M784.35,282.43l-.61,1.86c-25.16-22.79-55.2-39.77-88.09-49.81-13.87-4.23-27.26-7.35-41.63-8.45l-10.06-.77-33.02-.02-12.79,1.02c-44.25,5.65-85.13,22.92-119.14,50.82l-.25-1.76,4.49-4.11c31.13-22.71,72.77-42.35,110.69-46.1l16.58-1.64,31.49-.16,17.47,1.66c26.43,3.42,51.93,10.42,75.07,23.42l21.16,11.88,9.94,7.03,18.71,15.15Z"/><path class="ab" d="M548.15,640.84l9.44,3.59,16.53,5.06,18.62.97,16.38-1.34c-17.48-39.58-54.12-63.8-97.76-57.56.41,5.9,2.04,10.93,4.64,15.63l-2.19.13-4.59-13.47c-1.24-3.63,3.19-5.12,6.38-5.45,24.13-2.51,47.4,5.6,66.45,20.62,11.37,9.57,19.82,21.02,26.73,34.25,1.16.98,3.06,5.26,1.93,6.41-3.35,3.42-19.41,4.02-28.66,2.41-11.53-.72-22.03-4.14-32.6-8.54l-1.31-2.71Z"/><path class="u" d="M710.72,528.5l-2.3,1.4c-.28.17-.62-1.18-.7-1.54l-3.5-14.65c-3.48-14.58-23.99-15.85-26.32-18.32-.65-.69,2.07-2.56,3.02-2.62,10.67-.65,20.22-7.05,23.45-17.33l4.95-15.69c3.15,8.94,3.17,16.05,7.97,22.87,4.41,6.28,11.61,8.55,18.95,10.21l2.84.64c.79.18.89,2.58.69,3.23-20,2.23-27.17,12.16-29.05,31.79ZM733.28,495.36c-6.26-3.13-12.77-5.58-17-10.68-3.33-4.01-4.72-9.22-7.57-14.67-3.19,13.52-11.52,22.07-24.29,24.81,16.78,5.92,19.93,11.32,24.77,25.5,5.34-16.58,8.71-19.29,24.09-24.96Z"/><path class="j" d="M581.86,391.55l.21,1.4-5.8,2.05-9.93,3.03,17.74,5.03c9.69,2.74,18.96,9.05,24.69,16.9,4.47,6.13,8.36,12.19,10.04,19.21l6.17,25.87c2.22-13.45,5.03-24.73,10.77-36.32,9.37-19.77,27.06-25.41,47.85-30.77l-7.28-2.08c-6.31-1.81-12.03-3.35-17.93-6.23-18.08-8.81-25.78-25.64-30.96-45.02-1.11-4.16.05-8.69-3.02-13.06l-3.42,16.78-1.99-.43,4.02-21.53c.18-.98,2.12-3.15,2.51-2.51,2.73,4.43,2.5,26.35,14.06,46.69l4.95,7.07c1.98,2.82,5.82,5.21,8.94,6.9l9.92,5.36c7.33,2.84,17.57,4.82,25.5,6.32,4.82,6.19-13.7,2.96-29.78,11.74-9.71,5.3-17.37,12.07-22.12,22.18-5.7,12.11-8.38,25.36-10.32,38.76l-.4,2.75c-.08.56-2.75.06-2.85-.5l-1.81-10.73c-2.38-14.13-5.59-28.27-14.44-39.52-7.5-9.53-20-16.05-31.49-18.31l-16.22-3.19c-.12-.67.07-2.68.76-2.83l2.65-.58,18.98-4.44Z"/><path class="ab" d="M687,662.91l1.48.14-.5,1.1-10.36,1.4-8.8,1.99-22.86,4.13-15.95.9c-22.39,1.26-43.55-3.52-65.09-8.18-13.02-2.82-25.62-1.23-37.84.67l-.13-1.27,12.17-2.47h17.86s20.41,3.51,20.41,3.51c19.77,4.54,39.19,6.22,59.68,5.12l23.81-3.09,20.84-4.28c1.47-.3,4.12.1,5.29.35Z"/><path class="u" d="M478.76,275.32l.25,1.76-8.17,6.7-19.91,20.14c-20.03,22.42-35.23,47.72-46.19,75.74-5.05,12.91-8.04,25.71-11.19,39.15l-1.35,5.74-.92,4.53-1.48.02c8.62-56.03,37.15-109.34,80.27-147.02l8.7-6.76Z"/><path class="e" d="M843.05,313.25c-.91-.55-2.84-1.76-3.6-2.88-26-38.21-61.61-68.61-103.63-88.03l-12.71-5.88.38-1.54c29.36,10.86,55.45,28.32,79.09,49.55,14.45,12.98,26.15,27.72,37.57,43.34,1.35,1.84,2.04,3.65,2.9,5.44Z"/><path class="s" d="M474.92,818.96l.16,1.89.53,1.06c12.14,38.47,30.19,74.55,52.98,107.83l-.89,1.59-3.08-4.02c-23.13-34.96-40.17-68.64-51.79-108.44l2.09.1Z"/><path class="v" d="M415.08,307.02l-2.31,4.83c-11,16.33-21.47,32.93-28.28,51.4l-7.56,20.5-6.3,24.12c-.63,2.41-1.17,4.73-2.82,5.21,6.84-38.34,23.25-74.9,46.19-106.24.49.24,1,.27,1.08.19Z"/><path class="s" d="M689.02,970.06l-3.6,4.38c-8.57,10.45-25.69,22.67-38.73,27.06-26.97,9.07-55.39.3-75.2-18.94l-12.72-12.35,1.79-.59,13.83,12.82c19.54,18.11,47.35,25.98,72.09,17.2,7.5-2.66,14.87-6.51,20.71-11.3l10.47-8.58,11.35-9.69Z"/><path class="v" d="M733.95,588.62l-3.11,1.28,6.53-.8,2.42,2.15-1.53,3.81-.44-3.54c-.1-1.06-3.9-.5-4.73-.33-7.92-1.49-15.19-2.02-22.61.34-17.79,2.35-33.02,10.74-45.75,22.32-6.01,5.46-11.63,11.51-15.89,19.04l-9.07,16.06c11.72,2.44,23.58,2.43,33.85.42l-.02,2.13-5.55.72c-9.76,1.26-25.03,1.65-31.46-2.87l11.23-18.65c16.88-28.05,53.65-46.72,86.14-42.08Z"/><path class="w" d="M640.05,611.79l-1.74-.77,4-12.64c2.37-7.49,2.44-32.75.45-38.27l-5.52-15.35c-2.05-5.71-9.44-16.69-11.77-17.87-.87-.44-3.84.69-4.47,1.78l-9.36,16.19-1.81-.18c3.31-7.82,7.6-14.35,14.4-20.18,6.52,4.04,10.17,10.02,13.47,16.86,9.57,19.81,10.72,42,4.81,63.22l-2.47,7.22Z"/><path class="ab" d="M611.65,544.85c-9.02,21.57-9.21,46.01-.45,67.83l6.74,14.65,6.5,9.56,7.97-12.35,5.9-13.52,1.74.77c-1.86,6.23-5.1,12.36-8.6,18.59-1.96,3.5-3.93,6.99-8.34,7.93-20.32-27.81-26.51-62.38-13.28-93.64l1.81.18Z"/><path class="e" d="M600.34,198.8l.05,1.25c-25.28,2.69-50.35,9.08-73.82,18.85l-.53-1.81c21.15-9.01,43.52-15.23,66.87-18.25l7.43-.04Z"/><path class="s" d="M710.07,209.96l.13,2.25-12.27-3.88-29.95-6.44c-9.42-2.03-18.89-2.42-27.98-2.71l2.01-2.05c23.13.12,45.99,5.96,68.06,12.82Z"/><path class="s" d="M501.3,678.55c-8.12,6.86-15.46,15.01-20.44,24.33-6.33,11.86-11.1,24.85-12.56,38.21l-2.03-.02c3.63-24.84,14.21-49.31,34.49-64.37l.54,1.85Z"/><path class="e" d="M844.55,368l4.09,10.97,1.54,10.28c-8.85-26.98-21.29-52.32-38.64-75.03l1.67-.15,2.94,3.81c12,15.56,20.9,32.85,28.4,50.12Z"/><path class="e" d="M516.01,607.19c5.69,11.96,14.74,22.06,26.37,29.46l2.47,3.64c-13.49-6.87-24.43-19.24-31.03-32.98l2.19-.13Z"/><path class="ab" d="M473.79,814.74l1.14,4.23-2.09-.1-6.01-27.77-.9-10.98c-.09-1.12.44-3.54,1.32-4.15l2.56,21.01,3.99,17.76Z"/><path class="w" d="M526.58,218.9c-21.95,9.14-42.06,21.66-60.95,36.75-8.82,7.05-17.37,13.71-24.85,22.13l-9.86,11.09-11.07,12.98-4.78,5.17c-.08.09-.59.06-1.08-.19,28.58-39.04,67.34-70.69,112.05-89.74l.53,1.81Z"/><path class="j" d="M642.01,197.14l-2.01,2.05c-13.19-.42-26.49-.53-39.6.86l-.05-1.25c1.5-.65,4.41-1.86,6.52-1.85l35.15.18Z"/><path class="s" d="M728.52,920.33c-9.93,15.3-20.66,30.1-33.07,44.06-1.77,2-3.49,3.59-5.59,4.1l10.17-12.46,10.45-13.46,1.99-2.29,15.32-21.54.73,1.59Z"/><path class="j" d="M675.76,651.09l.32-2.21,5-1.49c6.36-1.02,12.59-2.93,18.46-6.78,17.81-8.53,30.19-23.84,37.28-41.73l1.06-1.9.37-1.92,1.53-3.81c-3.84,30.13-33.14,54.05-64.02,59.84Z"/><path class="w" d="M813.21,314.06l-1.67.15-9.04-10.82-18.76-19.1.61-1.86c8.9,7.21,17.04,15.65,24.14,25.25l4.72,6.38Z"/><path class="e" d="M621,348.34c-1.68,8.26-8.39,25.34-14.78,29.16,5.35-9.4,10.79-18.83,12.79-29.59l1.99.43Z"/><path class="s" d="M466.89,751.12l.35,24.84c-.89.61-1.41,3.03-1.32,4.15l-.94-2.02v-29.17s.94-1.92.94-1.92c-.06,1.06.6,3.07.97,4.13Z"/><polygon class="e" points="853.66 396.03 859.33 420.93 857.65 423.27 852.26 395.55 853.66 396.03"/><path class="w" d="M526.95,663.78l.13,1.27-1.99.12c-.39.02-1.05.46-1.17.95l-5.84,3c-5.72,2.94-12.16,5.53-16.76,9.42l-.54-1.85c7.82-5.81,16.62-10.97,26.18-12.92Z"/><path class="ab" d="M582.08,392.95l-.21-1.4c8.72-2.04,16.43-7.91,23.16-13.41-3.07,8.41-14.46,11.81-22.95,14.81Z"/><polygon class="p" points="63.97 651.02 62.98 649.08 62.98 615.92 63.99 613.98 63.97 651.02"/><path class="b" d="M856.17,334.9l-.17,1.13-4.22-5.89c-3.48-5.52-7.09-11.19-8.73-16.89,4.07,4.47,7.39,11.32,10.57,17.07l2.55,4.59Z"/><path class="w" d="M560.56,969.61l-1.79.59c-11.89-11.55-21.98-25.13-31.07-38.88l.89-1.59,12.66,17.4,11.57,14.13,7.74,8.34Z"/><polygon class="w" points="723.49 214.92 723.12 216.46 710.21 212.22 710.07 209.96 723.49 214.92"/><path class="ab" d="M468.31,741.09l-1.41,10.03c-.36-1.06-1.03-3.07-.97-4.13l.35-5.92,2.03.02Z"/><polygon class="j" points="733.95 588.62 737.36 589.11 730.84 589.9 733.95 588.62"/><polygon class="g" points="676.08 648.88 675.76 651.09 673.6 651.5 673.61 649.37 676.08 648.88"/><path class="h" d="M775.07,718.86c-5.24-2.08-11.79,1.68-13.29,6.5-.48,1.53.2,4.7,1.44,5.15l5.66,2.07c.38,2.54-2.98,3.71-6.01,3.69-4.44-.02-6.29,5.44-7.61,8.96-2.53,6.74,3.15,12.85.84,13.21l-4.15.66c-.88.14-3.36.11-3.74-.6l-1.77-3.34-7.59.38c-1.32,1.7-7.22,4.79-8.56,2.7l-5.06-7.89,1.6-6.54c.32-1.32,1.7-5.01,3.14-4.74l7.48,1.76c.48-1.97,1.33-4.91,1.94-6.02,5.81,1.63,1.12,5.05,3.99,10.37.71,1.32,4.14,1.84,5.53,1.13-2.1-5.61-1.08-8,1.61-12.09l6.02-9.17c.29-.45.48-2.32.05-2.39l-3.18-.54-5.31-5.57-4.54,9.93-3.24-.54c-.85-.14-1.92,2.36-2.42,3.22-2.61.59-4.99,3.75-5.26,6.4-.11,1.04-3.24,2.04-3.84,1.26-.72-.94-1.25-3.27-1.28-4.93-.02-.98-3.31-2.1-3.79-1.24l-1.99,3.58c-3.26,5.88-11.9-2.48-17.32,1.26-1.57,1.08-2.33,4.66-3.7,6.45-2.08,2.72-4.36,5.89-3.7,8.81.26,1.14-2.03,3.34-2.89,2.99-1.03-.42-1.92-1.69-2.96-3.13l-2.61,2.04c-.65.51,1.23,2.11,2.19,2.71,1.08.69,1.32,4.31.21,4.99s-3.89,1.46-5.19,1.41-1.68-4.31-2.78-5.06c-8.5-3.68-9.41-8.28-12.65-9.96-.73-.38-1.68,2.3-1.54,3.11l1.94,11.65c.41,1.81-3.31,4.15-5.16,4.8l-2.16.77c-.46.16.27,1.24.64,1.62.95.29,3.29,1.09,3.01,1.8l-1.29,3.27c-.33.85-2.41,2.37-3.35,2.3-1.12-.08-2.42-2.11-3.41-3.58-.78-1.16-4.3.63-4.34,2.01s1.15,4.29,2.32,5.04c1.58,1.01,4.26-.11,5.89-1.78,1.92-1.97,7.72.03,7.23,3.32-.52,3.51-5.96,6.79-7.84,9.09-2.35,3.21,2.39,5.64,4.83,5.27,3.88-.58,5.25-1.16,6.39-6.7,1.66.95,3.39,2.23,4.94,3.64l1.95,1.77c.44.4,1.52-1.62,1.19-2.11-.77-1.14-1.71-3.85-1.34-5.1s2.87-3.25,4.01-2.6l3.25,1.84c2.32,1.32,3.51-6.36,8.98-4.9l.37,12.38c2.9-2.23,5.2-4.94,8.47-4.84,1.63.05,1.71,4.51.88,5.89-1.16,1.92-3.08,2.77-6.31,2.6l-2.41,5.68-8.05-1.98,4.46,5.17c-1.58,2.43-2.34,4.48-1.5,5.7.94,1.35,1.76,2.72,1.58,3.51s-1.76,2.26-2.53,2l-3.83-1.34c-.9-.31-1.83,2.22-2.22,3.09l-4.84,1.73c-.85.43-2.43,1.74-3.36,1.85-3.25.37-.77-7.31-3.14-9.38-2.15-1.87-7.68-.55-10.96-4.12-1.22-1.33-1.8-6.1-.39-7.24l2.12-1.72c.44-.35-.2-1.93-.75-2.03s-2.11,0-2.62.25l-3.06,1.51c-1,.49-10.9-6.96-6.34-10.86,1.57-1.34,4.32-1.09,4.5-5.13l-10.55,2.36c-2.09,12.12,5.16,16.72,3.97,21.7-.4,1.66-2.87,4.32-4.32,4.65-6.6-3.38-8.39,7.4-18.45-.68,6.91-9.01,11.93-20.75,10.15-32.45-1.16-7.63-7.97-11.25-14.8-10.77-6.12.42-11.04,5.75-11.52,12.19l-2.32-1.17c-.61-.39-.46-2.9-.05-3.49l4.38-6.42-.16-13.5-8.67-9.61c-2.52-2.79-.59-6.02.54-8.88l4.64-11.63,5.36,1.78c.98-9.94,9.73-11.75,8.51-13.7l-1.85-2.96c-2.63-4.21,7.34-6.41,17.74-2.48-1.53-2.63-3.02-4.9-3.25-6.5-.69-4.7,8.98-2.54,10.06-4.93.42-.93.84-3.01,1.09-4.4l1.28-6.95c5.1,2.84,7.97,4.44,11.78,4.84l4.02-6.58c-1.66-.77-3.91-3.92-3.26-5.32,3.93-3.91,13.2,4.54,15.27,9.81.4,1.02.02,4.48-1.02,4.73-4.71,1.16-9.85-2.66-12.75.77,9.72,2.75,10.78,10.63,19.34,12.82l5.53-1.59c.3-4.05,6.24-9.09,7.59-9.43,1.12-.28,3.82.88,5.31,1.38l5.1-6.77c5.05.66,7.73,4.39,10.38,8.98l3.84-4.16c3.16-1.23,6.69-3.19,8.58-4.95-13.16-8.95,3.69-6.81,7.38-19.49,19.04,8.95,33.33,27.71,39.64,47.69ZM665.77,704.95l-5.65-3.72-10.36-1.09-5.22,5.06,13.61,1.45c1.96.21,4.1-.43,7.62-1.69ZM687.62,748.86c6.95-8.82,11.31-20.47,8.71-31.45-.68-2.88-5.45-6.76-8.33-7.24-7.21-1.21-12.87,4.23-13.64,11.45-.87,8.21,2.84,16.85,6.59,24.31.86,1.7,5.56,4.33,6.66,2.93ZM645.38,736.08l-3.81-10.95c-2.25-.44-5.44.8-6.25,2.7-.86,2.01-.15,6.32,1.73,6.67l8.34,1.59ZM624.49,754.24c4.52,1.03,7.92-5.53,8.67-8.85l-3.54-5.54-14.46,6.47c-1.68.75-3.31,2.59-4.47,4.76l13.81,3.16Z"/><path class="h" d="M777.18,806.36c-8.53,34.19-22.56,66.99-40.72,97.13l-1.85-11.7c-.13-.98-3.11-2.36-3.95-1.9-4.72,2.58-2.16,9-11.68,11.09-.4,1.87-2.07,6.43-4.03,6.91-3.21.79-6.44.69-10.88.72,2.44,5.58,7.33,6.86,13.66,4.89,1.66,4.79-2.4,9.92-7.36,14.04-4.3,3.57-9.53,4.04-13.73-.47l-4.71-5.06-3.19,1.79c6.08,4.91.85,9.86,5.84,16.26.12,1.24-2.59,3.83-3.78,3.32-1.48-.63-4.44-2.11-4.31-2.19l2.37-3.61c.36-.56-2.35-1.3-2.98-1-3.33,1.63-10.04,2.54-14.23,3.26-2.49.43-5.05,2.73-7.77,2-2.31-.62-3.88-4.3-4.16-6.55-.41-3.38-6.3,1.19-7.08.1l-1.99-2.81c-.49-.7,2.52-1.76,3.65-1.96.39-5.06,5.53-9.43,10.67-8.1,1.49.39,2.4,3.35,2.6,5.77,1.61.89,6.26.92,9.07.16.13-.96-.61-3.72-1.12-5.12-.46-1.26,1.75-3.16,3.38-4.19l-4.43-2.41c-.9-.49-.89-3.44-1.19-4.44-1-3.35-.62-4.81,1.59-7.65l5.84-7.51c.32-.42-.91-1.91-1.43-1.84l-3.73.5c-.82.06-.58-2.91.22-3.37l3.42-1.98c2.44-2.15,4.2-2.85,7.5-3.81s1.48-7.15-.56-9.02c5.5-6.18,9.73-16.5,10.07-25.38.28-7.36-2.13-12-8.18-15.58-3.48-2.06-9.8-1.59-12.08.75-.41.42-.85,2.49-.17,2.22l-2.14,1.23c-9.98,7.15-2.45,27.15,6.65,37.83l-5.31,2.11c4.83,1.4,6.1,1.95,6.62,7.2l-8.33.58-4.3-7.57c-2.7-4.76-2.28-8.91.42-14.59l-12.27,7.94c.53,1.68,1.08,5.17,0,6.29-1.19,1.23-4.38,1.2-6.58.57-1.39-.4-3.39,1.88-5.08,4.12l-8.08-4.14c-4.88-2.5-4.16-13.83,1.43-14.89,4.36-.82,8.05.12,9.45-5.34l11.13-3.5c-.76-4.31-1.28-9.63-3.73-11.83-1.87-1.67-4.97-4.08-3.14-5.6,2.13-1.77,2.77-2.6,3.68-5.27,7.09-1.33,5.76,5.75,8.43,7.34.52.31,2.39-.57,2.83-1.23,2.78-4.17,1.22-11.55-4.76-14.67,2.81-3.21,5.14-1.8,7.98-.95l7.68,2.31,6.47,1.17c3.21-2.42,6.49-4.24,10.03-5.86l.9-4.41,9-1.14c3.86-.49,5.13-6.43,3.05-10.5,5.56-1.67,10.72,1.92,15.96-5.04.65-.86.83-4.26-.12-4.7l-3.65-1.72.69-5.67-4.91.33c-.66.04-.73-2.17-.89-2.99-1.74-3.05-3.18-9.03-.58-11.48,7.77-7.32,6.87-13.73,9.37-13.21l4.4.92,10.99.25c4.08.09,6.07,1.04,8.58,3.83,2.25,2.52,3.41,5.37,1.22,8.73-6.19,9.5-1.15,11.97-2.13,20.23l1.56,7.41,7.59.58,1.84-5.17c.32-.9,3.54-1.12,3.83-.65l-2.46,3.19c-.36.46.39,1.87.97,1.95l3.04.43c5.24.74-6.87,7.18-2.72,10.07l7.89,5.5c2.7-4.43,1.78-8.42.86-13.69,2.12-.92,5.88-.73,8.06.41ZM733.97,804.9c8.07-9.96,10.74-20.6,10-31.76-2.53-6.27-8.83-10.48-15.5-7.45-13.22,6.01-7.45,30.37,5.5,39.21Z"/><path class="x" d="M528.69,770.12c-3.63-3.64-7.53-7.15-12.32-7.26-5.56-.13-10.77,3.34-12.49,9.12-2.91,9.78.15,21.15,6.99,28.14l1.66,3.48c.47.98,2.11,2.13,3.18,2.34,1.25.25,4.64-.91,5.27-2.12l6.46-12.44c3.16-6.08,2.72-13.21,1.73-19.52,3.63-1.17,10.9,3.48,8.19,7.69l-3.4,5.29c2.52,6.68,1.13,14.08-5.31,17.89-5.82,3.44,2.21,10.59-5.55,10l-11.21-.84c-1.22-.09-3.93-.03-4.2-1.05l-1.21-4.5-3.75-8.26c-3.41,2.63-1.83,7.55.28,10.97-.81,1.23-2.5,2.84-3.62,3.28s-4.39-1.08-4.26-2.23c.18-1.57.9-4.39.21-5.31-1.04-1.39-3.29-3.28-3.13-4.66l.8-6.93-7.45,6.34c-4.87,4.14-9.55,8.65-10.15,15.38l-1.6-.21-3.99-17.76-2.56-21.01-.35-24.84,1.41-10.03c1.46-13.36,6.23-26.35,12.56-38.21l6.72,5.48c-2.54,5.49-10.12,4.59-10.52,8.35-.14,1.33.97,4.04,1.57,5.4-1.01,2.55-1.53,4.81-.54,8.35l-5.64,4.19c.71,2.12,1.99,5.87,1.9,8.23l-.38,10.06c-.17,4.68,1.16,8.59,4.59,11.21l-.79,8.94,13.45-.89c1.37-.09,3.94-.83,5.06-1.45.93-.52,1.03-3.7.16-4.28-2.03-1.35-5.21-4.6-5.89-7.14l4.5-6.07,16.1-1.46,2.41-3.79c.86-1.35,6.68,1.22,6.96,11.97.21.07,2.74-1.24,3.68-1.68l11.27-5.32c.47,4.15.6,8.46-.21,10.94l-6.62,6.21Z"/><path class="h" d="M780.25,739.05c1.86,8.21,2.27,16.95,1.84,25.94l-.77,15.97-1.73,11.39-1.91-.49c-.48-.21-.26-1.74.03-2.19,1.73-2.68.26-5.52.08-8.19-.34-4.92,1.46-9.77-.42-15.23-3.79,3.04-3.59,4.95-3.82,10.31l-4.93-3.22c-1.61-1.05-3.92-2.88-4.32-4.36-.89-3.25,2.31-10.75,4.94-11.48,1.99-.56,4.6-.04,6.72.48,3.08-6.8-3.41-.99-11.44-4.24-2.72-4.17-.96-10.19,1.27-13.16,5.35.25,9.86-.42,14.48-1.53Z"/><path class="h" d="M662.79,903.19l-3.85.31c-1.63.13,2.06,5.33-.64,8.14-.94.97-3.52.55-5.28.61-4.41.16-7.46,1.18-10.35-1.45s-2.96-5.71-1.99-10.3c.56-2.65,2.29-3.69,4.9-5.13,8.01-4.44,6.96,2,15.47-.48l6.6,3.27c.75.37.59,3.39-.18,3.7-.96.39-3.49,1.23-4.69,1.33Z"/><path class="h" d="M729.06,668.18l-6.97,4.08c.28,3.38-.09,9.06-3.33,10.34-3.95,1.56-9.71-1.06-12.11-3.15l3.21-2.86c1.27-.92,2.21-3.97,2.69-5.63.31-1.09.01-3.59-1.1-3.85l-4.04-.93-1.68-2.68c8.16.47,16.06,1.27,23.33,4.69Z"/><path class="j" d="M528.69,770.12l.47,1.75c.98,6.31,1.43,13.44-1.73,19.52l-6.46,12.44c-.63,1.21-4.02,2.37-5.27,2.12-1.07-.21-2.71-1.35-3.18-2.34,2.66.53,5.63-.13,7.31-2.83,8.28-13.37,12.44-30.89-.05-35.17-4.57-1.56-10.32-.14-12.78,4.4-3.15,5.81-2.49,13.02-.19,19.19l4.06,10.94c-6.84-6.99-9.91-18.37-6.99-28.14,1.72-5.78,6.93-9.24,12.49-9.12,4.79.11,8.7,3.62,12.32,7.26Z"/><path class="j" d="M627.2,812.03c-10.85,1.39-17.06-18.95-16.17-31.04.48-6.44,5.4-11.76,11.52-12.19,6.82-.47,13.63,3.14,14.8,10.77,1.78,11.7-3.24,23.44-10.15,32.45ZM635.4,790.17c.98-3.48.76-7.6-.35-11.09-1.93-6.06-7.44-9.13-13.46-8.04-12.32,2.25-11.22,21.92-.51,36.9,5.01,7,11.07-6.22,14.32-17.77Z"/><path class="s" d="M554.02,857.03l4.58,11.07c1.61,3.9,3.52,7.07,7.28,9.02,8.49-7.98,14.27-23.75,9.69-33.48-2.31-4.92-7.85-7.27-12.19-6.14-5.34,1.39-8.42,5.09-9.06,10.82l-.62,5.53c-.77.56-1.73-1.84-1.78-2.75-.46-8.14,5.39-15.21,13.64-15.5,9.16-.33,14.42,8.59,13.48,17.49-1,9.43-4.12,19.13-11.56,25.53-2.12,1.82-6.19-1.45-7.36-3.86l-6.71-13.76c-.46-.94-.09-4.38.62-3.96Z"/><path class="h" d="M629.62,943.04c.81-1.13,1.05-4.07,1.14-5.46.03-.55.69-1.55,1.17-2.05,4.28-4.4,5.98-10.54,6.04-17.14l5.15-2.9c2.25,1.97,4.13,4.93,3.36,7.31s-2.7,4.42-3.89,6.48c-1.75,3.01-2.25,4.2-6.26,5.5l-1.91,8.74c-.7.84-3.65.39-4.79-.48Z"/><path class="h" d="M727.65,916.65l.14,2.1-15.32,21.54-3.05-.2c-.34-.02-.41.55-.21.81l1.27,1.68-10.45,13.46c-1.88-3.93-.06-8.06,4.3-9.77,1.24-.49,3.43-1.13,3.67-2.18s.18-3.31.13-5.56l4.42-2.96c.28-4.59,2.02-7.15,5.86-9.15l3.85-5.21c1.4-1.89,3.7-3.94,5.38-4.56Z"/><path class="w" d="M628.49,904.25c1.71.67,5.33,2.41,6.28,3.99,1.81,3.03,3.22,7.08,3.2,10.15-.06,6.61-1.76,12.74-6.04,17.14l2.74-9.93c1.46-4.58,1.56-8.51-.1-13.18-1.54-4.33-6.5-7.86-10.82-7.44-8.45.83-12.64,9.31-11.53,15.5,1.67,9.37,5.09,17.12,11.71,24.16l6.84-7.07c-.09,1.39-.33,4.33-1.14,5.46-1.1,1.53-4.79,3.34-6.32,2.98l-5.36-4.05-2.16-4.24-4.42-12.18c-.87-2.39-.43-7.4-.37-10.73.08-4.75,7.51-14.48,17.51-10.58Z"/><path class="h" d="M704.38,762.98l-1.32,3.57c-.21.57-2.55.46-2.75.25l-.95-9.06c-.33-3.11,7.74-3.97,10.09-1.9,1.12.99,1.99,4.82,1.53,5.74l-6.59,1.4Z"/><path class="h" d="M677.63,665.55l-1.9,4.9c2.71.88,4.79,6.85,2.21,8.22-3.56,1.89-5.04-3.41-6.11-5.24l-3.01-5.89,8.8-1.99Z"/><path class="h" d="M634.77,908.24c-.95-1.58-4.57-3.33-6.28-3.99l-.54-1.83c3.45.48,5.44-.75,7.85-2.44l1.7-1.2c.36-.25.46,2,.26,2.39l-2.98,7.06Z"/><path class="h" d="M778.61,731.81l-4.21-.61c-1.17-.32-1.78-3.76-1.11-4.76l3.07-3.5,2.25,8.87Z"/><path class="g" d="M705.73,663.5l1.68,2.68c-.19.75-.55,2.24-.35,2.88-3.55-.88-7.53-2.84-9.08-6.01l7.75.45Z"/><path class="g" d="M712.55,670.96c-.48,1.66-1.42,4.7-2.69,5.63l-3.21,2.86-1.55-1.11c-.42-.3.76-1.7,1.17-2.02l2.49-1.99-1.69-5.27,5.49,1.9Z"/><path class="x" d="M484.19,765.17l-3.18-.75c-.8-.19.68-2.71,1.47-2.85l2.87-.49c.75-.13,1.38,1.48,1.38,2.24s-1.81,2.02-2.54,1.85Z"/><path class="g" d="M693.99,663c.05,1.05-1.42,2.96-2.47,3.2s-2.86-1.14-3.54-2.05l.5-1.1,5.51-.05Z"/><polygon class="h" points="732.5 910.06 729.48 915.08 727.81 913.6 732.5 910.06"/><path class="h" d="M617.94,941.97l-2.75-1.62c-.57-.33.3-1.95.59-2.63l2.16,4.24Z"/><path class="h" d="M700.87,934.45l-4.85.63,2.5-3.9c.41-.64,2.04,2.17,2.35,3.27Z"/><path class="h" d="M637.18,857.14c-.02-.38,1.88-.02,1.87.37l-.06,1.96c-.01.39-1.62.95-1.64.56l-.17-2.89Z"/><path class="h" d="M678.7,941.64c1.12-.37,2.4-.69,2.27-.28l-.52,1.76c-.12.42-1.15-.67-1.75-1.48Z"/><path class="h" d="M627.7,897.64c1.12-.37,2.4-.69,2.27-.27l-.52,1.76c-.12.42-1.15-.67-1.75-1.48Z"/><path class="ab" d="M523.91,666.13c.13-.49.79-.93,1.17-.95l-1.17.95Z"/><path class="ab" d="M475.61,821.91l-.53-1.06.53,1.06Z"/><path class="h" d="M873.26,381.46c4.54,19.11,10.51,39.18,10.52,59.93l.28,594.29c0,5.58.14,9.26-2.61,13.67-3.95,2.45-7.31,3.72-12.4,2.4-2.56-.65-7.1-4.06-7.1-7.61v-491.08s3.55-4.61,3.55-4.61l2.26-3.16c.5-.7-1.22-2.67-1.99-3.24l-3.81-2.05v-3c.8.08,2.41-.07,2.73-.76l1.49-3.27c.74-1.62,1.88-4.48,1.44-6.11s-3.84-3.02-5.62-3.11l.06-25.12,7.84-5.62c-2.09-2.14-3.4-3.48-3.85-4.59-.49-1.22,1.78-3.33,2.77-4.41l4.01-4.41c2.32,1.55,3.64,4.89,4.36,8.39l2.7,13.14,2.08-.27.04-40.85v-11.16s-8.24,1.96-8.24,1.96l6.72-10.58c2.27-3.57-.1-10.73-.7-15.41.58-2.7-1.56-2.06-1.84-.36-.28.99-1.23,2.81-1.62,2.45l-2.4-2.2c1.93-2.82,4.28-6.15,4.18-9.47-.07-2.15-3.04-5.19-4.75-5.35-1.9-.17-4.73,1.5-6.16,3.15-8.1,9.4-3.66,13.11-4.65,13.97l-1.76,1-1.45-7.1-5.67-24.9,7-2.7c.64,5.82-4.53,10.26-1.5,11.07,4.68,1.25,10.49.53,14.44-1.78,2.94-1.72,2.25-7.75-.37-8.51l-4.73.58-5.62-2.79c.14-1.49,1.34-4.3,2.64-5.23l7.74-5.22ZM881.58,556.51c1.18-.9.84-5.68-.33-6.14-8.22-.86,5.32-5.87-1.38-12.93-10.83,4.65-5.25,10.38-9.44,14.86l-3.19,3.42c-.74.8.99,4.39,1.26,3.79l7.98-.13,5.1-2.87ZM882.06,661.37l-.38-13.93c-3.4,2.82-5.27,9.52-4.21,11.58.55,1.07,2.87,2.03,4.59,2.35ZM872.09,647.93c-2.21.78-3.68,2.27-4.52,4.1-.52,1.13-.07,2.9,1.63,4.97,1.9-2.67,2.52-4.4,2.89-9.06Z"/><polygon class="u" points="387.91 1043.02 387 454.33 388 453 387.91 1043.02"/><path class="c" d="M860.66,393.34c.65-.25,1.86-1.09,2.22-1.43l5.62,2.79,4.73-.58c2.62.75,3.31,6.79.37,8.51-3.95,2.31-9.76,3.03-14.44,1.78-3.03-.81,2.14-5.24,1.5-11.07Z"/><path class="h" d="M848.65,378.97l-4.09-10.97c1.8-.27,3.28,1.06,3.8,2.55l2.79,8-2.5.43Z"/><path class="u" d="M388,446.95l.93-5.94-.93,5.94Z"/><path class="h" d="M871.38,374.88l.18,1.98-2.57-.24c-.4-.06.12-1.53.53-1.56l1.87-.18Z"/><path class="c" d="M882.01,460.02l-.04,40.85-2.08.27-2.7-13.14c-.72-3.5-2.04-6.84-4.36-8.39l-4.01,4.41c-.99,1.09-3.26,3.19-2.77,4.41.44,1.11,1.76,2.45,3.85,4.59l-7.84,5.62-.09-48.64,7.12-1.12,4.88,5.04c2.61,2.69,5.03,5.3,8.04,6.1Z"/><path class="k" d="M882.01,460.02c-3-.8-5.43-3.41-8.04-6.1l-4.88-5.04-7.12,1.12.11-2.29c4.7-.55,4.34-4.71,9.73-2.29,3.13-2.46.79-7.41-.03-10.93l-2.1-8.94-8.67,3.8-.23-1.32,1.76-1c1-.87-3.45-4.58,4.65-13.97,1.43-1.65,4.26-3.33,6.16-3.15,1.71.16,4.68,3.2,4.75,5.35.1,3.33-2.25,6.65-4.18,9.47l2.4,2.2c.4.36,1.34-1.46,1.62-2.45.29-1.71,2.43-2.34,1.84.36.59,4.67,2.96,11.84.7,15.41l-6.72,10.58,8.25-1.96v11.16Z"/><path class="h" d="M862.09,447.72l-1.07-18.36,8.67-3.8,2.1,8.94c.83,3.51,3.16,8.47.03,10.93-5.39-2.42-5.04,1.74-9.73,2.29Z"/><path class="c" d="M861.98,537l.03-13.24c1.78.09,5.17,1.46,5.62,3.11s-.7,4.49-1.44,6.11l-1.49,3.27c-.31.69-1.93.85-2.72.76Z"/><path class="c" d="M861.97,553.06v-13.06s3.81,2.05,3.81,2.05c.77.57,2.49,2.53,1.99,3.24l-2.26,3.16-3.55,4.61Z"/><path class="d" d="M733.28,495.36c-15.38,5.67-18.76,8.38-24.09,24.96-4.84-14.18-7.99-19.58-24.77-25.5,12.77-2.74,21.1-11.29,24.29-24.81,2.85,5.44,4.24,10.65,7.57,14.67,4.23,5.1,10.74,7.55,17,10.68Z"/><path class="g" d="M738.25,595.06l-.37,1.92-1.06,1.9c-7.09,17.9-19.47,33.2-37.28,41.73-5.86,3.85-12.1,5.75-18.46,6.78l-6.21-5.95-5.05-9.27c-.64-1.17-3.34-3.45-2.74-4.58l2.43-4.61-4.79-9.13c12.73-11.58,27.96-19.96,45.75-22.32,7.42-2.36,14.69-1.83,22.61-.34.83-.17,4.63-.73,4.73.33l.44,3.54Z"/><path class="z" d="M681.08,647.39l-5,1.49-2.47.48c-10.26,2.01-22.13,2.02-33.85-.42l9.07-16.06c4.25-7.53,9.88-13.58,15.89-19.04l4.79,9.13-2.43,4.61c-.6,1.14,2.11,3.41,2.74,4.58l5.05,9.27,6.21,5.95Z"/><path class="aa" d="M638.32,611.02l-5.9,13.52-7.97,12.35-6.5-9.56-6.74-14.65c-8.76-21.82-8.57-46.26.45-67.83l9.36-16.19c.63-1.09,3.6-2.23,4.47-1.78,2.33,1.18,9.72,12.16,11.77,17.87l5.52,15.35c1.98,5.52,1.92,30.79-.45,38.27l-4,12.64Z"/><path class="l" d="M712.47,940.29l-1.99,2.29-1.27-1.68c-.2-.26-.13-.84.21-.81l3.05.2Z"/><path class="v" d="M736.82,598.88l1.06-1.9-1.06,1.9Z"/><path class="k" d="M624.49,754.24l-13.81-3.16c1.16-2.17,2.79-4.01,4.47-4.76l14.46-6.47,3.54,5.54c-.75,3.33-4.15,9.88-8.67,8.85Z"/><path class="k" d="M665.77,704.95c-3.52,1.27-5.66,1.9-7.62,1.69l-13.61-1.45,5.22-5.06,10.36,1.09,5.65,3.72Z"/><path class="k" d="M645.38,736.08l-8.34-1.59c-1.87-.36-2.58-4.67-1.73-6.67.81-1.89,4-3.13,6.25-2.7l3.81,10.95Z"/><path class="j" d="M686.12,877.62c-1.15,1.29-4.33,1.24-5.84,1.07-9.09-10.68-16.63-30.68-6.65-37.83l-3.01,9.17c1.44,8.38,3.82,15.57,7.1,23.28,1.14,2.67,6.62,4.38,8.08,1.49l5.07-10.07c3.49-6.93,4.83-15.29.7-22.39-3.27-5.63-10.91-5.52-15.81-2.71-.69.26-.24-1.81.17-2.22,2.28-2.34,8.6-2.81,12.08-.75,6.05,3.58,8.46,8.21,8.18,15.58-.34,8.88-4.57,19.2-10.07,25.38Z"/><path class="c" d="M881.58,556.51l-5.1,2.87-7.98.13c-.27.6-2-2.99-1.26-3.79l3.19-3.42c4.19-4.49-1.39-10.22,9.44-14.86,6.7,7.06-6.84,12.07,1.38,12.93,1.16.47,1.51,5.24.33,6.14Z"/><path class="c" d="M882.06,661.37c-1.72-.32-4.04-1.27-4.59-2.35-1.06-2.06.81-8.75,4.21-11.58l.38,13.93Z"/><path class="c" d="M872.09,647.93c-.37,4.66-1,6.39-2.89,9.06-1.7-2.07-2.15-3.84-1.63-4.97.84-1.82,2.31-3.32,4.52-4.1Z"/></svg>