<svg xmlns="http://www.w3.org/2000/svg" width="2789" height="2938" fill="none" viewBox="0 0 2789 2938">
  <path fill="#AE3028" d="m870.058 1025.23-4.023-9.81 7.223-41.854c10.267-59.532 31.29-113.75 59.602-166.705 59.713-111.761 153.78-198.496 266.86-246.604 81.38-34.624 172-46.189 259.21-35.42 194.36 24.019 360.97 162.444 425.81 357.757 16 48.202 30.98 101.015 31 154.016l.65 1388.45c0 11.42 0 23.73 6.69 29.91 8.73 8.06 20.82 8.17 29.49 3.96 10.46-5.08 12.62-15.19 12.62-29.19l-.07-1388.14-3.66-51.108c-33.8-262.453-217.68-470.923-465.96-516.526l-52.31-7.187c-31.96-4.378-63.22-4.425-95.16-.07l-54.44 7.421c-87.76 16.551-169.63 53.82-240.93 110.567l-48.44 42.045c-1.58 1.358-6.046 2.575-7.78 2.575 6.29-9.364 15.36-15.708 23.38-22.942 91.07-82.147 202.47-134.703 322.01-144.091l26.07-2.036c15.31-1.194 29.09-1.194 44.38-.188l32.4 2.131c127.45 11.588 245.32 65.595 339.37 156.498l32.07 33.149c90.78 106.892 152.43 247.33 152.54 394.132l1 1350.95-.8 22.19c-.27 7.65 1.04 19.48-.56 26.38-3.6 15.52-18.09 21.12-30.93 20.02-9.27-.8-25.38-9.58-25.38-24.28l-.29-1406.21c-14.58-188.782-110.54-353.287-268.17-443.909-65.31-37.55-136.65-59.532-211.52-64.214h-75.22l-20.2 1.592c-33.67 2.668-65.21 10.839-97.47 21.561-105.12 34.951-196.57 102.888-262.769 195.359-23.068 32.236-43.047 63.887-58.269 100.477l-15.645 37.597c-16.312 45.651-28.068 93.174-32.446 141.777l.067-.03Z"/>
  <path fill="#AC2F28" d="M863.989 1051.01c1.178-4.94 2.201-10.23 2.178-16.16l-.111-19.45 4.023 9.81-3.623 40.06-2.689 1.56.045 261.47 2.222 2.67v32.75l-2.222 2.98v684.12l2.222 2.97v42.12l-2.222 2.66v263.68l2.222 3.11v1.9c-.6-1.36-2.222 4.07-2.222 5.47v45.28c0 1.26 1.622 6.72 2.266 5.38v4.73l-.266 12.46c-.356 15.87-14.379 24.69-28.001 25.14-10.29.35-29.579-8.24-29.557-24.53l1.178-1387.04c.133-151.119 80.803-325.737 187.074-424.879-.289 3.3-1.578 6.484-4.178 9.247-52.424 55.318-96.359 116.607-126.716 189.249-28.335 67.773-51.758 142.733-51.825 218.863l-1.088 1396.55c0 12.29 16.089 17.83 23.534 18.47 8.911.75 21.134-4.83 25.379-16.11V1079.12c0-11 .311-19.19 2.444-28.09l-.067-.02Z"/>
  <path fill="#AB2E27" d="M1660.62 2080.5c-28.49 59.46-62.73 113.59-103.74 162.91l-14.6 17.56-33.4 34.79c-19.4 20.2-41.98 35.63-67.47 45.49-59.04 22.87-125.42 3.2-168.98-41.96l-42.49-44.05-11.69-13.84c-61.74-80.81-112.65-169.77-147.67-267.11-18.09-50.31-30.76-99.31-34.78-152.78-5.31-70.79 3.26-144.37 44.07-202.03 28.15-39.75 68.73-65.06 115.84-71.96 14.32-2.11 30.87-2.98 45.25-.38l37.82 6.82 72.41 12.33c25.42 4.33 51.91 1.9 77.67-.02l66.04-12.03 40.27-6.98c14.83-2.57 31.96-1.94 46.94.23 98.22 14.26 150.76 101.77 159.87 200.89v75.22l-1.67 17.44c-6.77 69.43-29.4 134.4-59.02 196.25l-20.69 43.19.02.02Zm-1.98-5.9c29.58-57.99 52.01-117.12 67.65-180.96l9.74-55.2 2.37-25.45-.26-58.69-6.74-44.24c-4.33-28.49-16.29-54.81-31.11-78.99-23.8-38.81-60.14-65.97-102.8-76.15-38.05-9.09-74.43-.54-112.19 6.55l-50.71 9.53c-54.11 5.83-105.47.49-158.07-12.92-33.87-8.64-69.6-11.66-102.54-1.34-49.96 15.69-89.09 50.36-110 99.92-7.76 18.35-14.27 35.98-18.12 56.16-14.15 74.54-6.24 150.08 16.56 222.98 35.47 113.38 91.87 217.02 164.07 308.86l48.98 51.47c53.65 56.38 138.79 69.09 203.03 19.44 27.58-21.31 51.14-44.91 73.3-72.88 41.4-52.25 76.13-107.81 106.84-168.04v-.05Z"/>
  <path fill="#A93028" d="M1387.7 1103.07c-8.64-14.82-2.4-103.822-63.4-143.058-13.11-8.428-29.91-15.638-45.54-18.822l-33.84-6.859c-.47-1.311-.69-4.893.29-5.548 1.31-.866 4.64-1.967 6.82-2.552l49.84-13.227c10.54-2.786 19.76-10.254 29.18-16.27 12.87-8.217 20.98-21.584 28.6-35.443 14.72-30.387 21.67-62.412 25.29-96.732l4.58-6.836c1.23-1.826 4.34 4.963 4.63 7.187 5.55 45.51 18.91 105.838 53.46 130.653 16.54 11.869 33.76 20.204 52.94 24.417l33.4 7.375c.27.281.85 5.548-.4 5.993l-7.42 2.645c-47.18 8.662-84.94 21.163-108.83 68.527-13.58 30.78-20.62 63.84-24.02 97.83-1.91.65-4.93 1.73-5.56.68l-.02.04Zm1.96-16.57c5.82-26.22 9.35-47.59 17.91-69.27 22.44-56.937 54.8-70.421 111.56-86.528-28.67-8.778-54.8-14.561-76.92-33.687-17.33-15.006-29.73-34.764-36.44-57.285l-10.54-35.373c-2.86-9.622-.13-21.093-6.89-28.959-11.24 73.86-28 124.052-96.55 145.917l-30.85 9.856 33.31 10.043c35.56 10.722 67.56 38.954 78.23 75.356l8.95 30.62 8.2 39.33.03-.02Z"/>
  <path fill="#AA2F27" d="M1357.74 1519.66c-4.93 7.47-39.55 9.27-61.04 6.06l-21.89-3.27c-65.05-9.72-130.27-66.26-141.83-135.22-1.2-7.1 8.16-10.23 14.22-10.89 52.76-5.62 104.41 12.5 146.1 47.36 25.91 21.68 44.24 49.05 60.04 79.46 2.12 4.07 7.52 11.84 4.43 16.5h-.03Zm-45.35 2.34 42.58-3.75c-39.63-92.68-118.67-148.81-217.86-134.79 1.47 15.8 6.47 29.31 13.72 42.91 22.04 41.39 58.09 72.08 101.2 85.68 19.98 6.3 38.65 11.89 60.38 9.97l-.02-.02Z"/>
  <path fill="#AA3229" d="M1589.66 1480.26c-44.93 38.04-100.64 52.42-157.45 45.21-6.35-.8-11.4-2.58-16.4-6.77l24.09-42c38.85-67.75 115.87-108.62 193.3-100.26 4.31.46 10.62 4.7 12.55 8.7-7.26 37.77-27.84 71.2-56.09 95.1v.02Zm-68.13 33.06 27.15-10.61c77.34-38.74 98.54-118.55 88.74-119.72l-9.58-1.12c-51.42-6.04-112.25 14.6-147.14 51.73l-21.86 23.27c-14.25 19.5-26.27 39.03-36.52 61.24 34.43 6.68 67.14 7.66 99.16-4.82l.05.03Z"/>
  <path fill="#AB2F28" d="M1600.22 1180.3c-19.25 20.16-18.6 55.35-20.71 56.35l-5.27 2.51-4.27-22.83c-4.55-30.1-26.51-51.08-56.07-52.98l-5.82-4.68c-1.62-1.31 4.02-5.83 6.14-5.97 22.97-1.52 45.26-15.07 51.53-38.79l9.33-35.23 5.29.09c1.36 19.36 5.65 38.98 17.63 54.22 10.04 12.76 26.26 15.57 40.78 20.39l5.86 1.94c1.29.43.14 5.46-.53 6.35-14.51 2.43-32.65 6.83-43.91 18.63h.02Zm30.76-21.67c-16.67-7.64-30.92-14.96-41.58-28.12l-13.2-31.23c-7.89 32.38-25.54 50.89-55.14 59.13 31.69 7.57 48.34 27.25 54.87 59.47 14.07-36.76 16.04-44.53 55.02-59.25h.03Z"/>
  <path fill="#A7392C" d="m866.011 2053.79-2.222-2.95V1366.7l2.222-2.95v690.04Z"/>
  <path fill="#A93128" d="M1416.03 1261.54c32.94 69.13 25.36 146.94-11.73 212.99-4.16 7.37-8.53 14.39-15.85 18.68-8.04-7.54-12.13-14.49-17.09-23.48-30.24-54.88-39.42-119.37-20.64-180.05 7.53-24.37 18.42-45.44 37.69-62.91 12.56 8.41 21.02 20.89 27.62 34.77Zm14.31 123.39 1-34.11c1.27-43.61-12.77-86.05-40.75-119.86-13.56 11.73-21.85 24.89-28.58 40.69-30.65 71.92-17.98 155.09 26.87 217.58 19.66-24.26 40.75-80.32 41.46-104.32v.02Z"/>
  <path fill="#A7392C" d="m866.011 2365.36-2.222-3.11v-263.7l2.222-2.64v269.45Zm.003-1034.36-2.222-2.67-.022-261.47 2.666-1.6-.422 265.74Zm.042 1092.39c-.622 1.34-2.267-4.12-2.267-5.38v-45.28c0-1.4 1.622-6.83 2.222-5.47l.045 56.13Z"/>
  <path fill="#CD2227" d="m866.058 1015.42.112 19.46-2.178 16.15c-2.134 8.92-2.423 17.09-2.423 28.09v1366.44c-4.267 11.29-16.467 16.86-25.378 16.11-7.445-.63-23.535-6.18-23.535-18.47l1.089-1396.55c.067-76.126 23.49-151.086 51.824-218.859 30.357-72.643 74.292-133.931 126.717-189.25 2.6-2.762 3.911-5.946 4.178-9.247 1.733 0 6.196-1.194 7.776-2.575l48.45-42.045c71.29-56.723 153.16-94.016 240.92-110.567l54.45-7.421c31.95-4.354 63.2-4.308 95.15.07l52.32 7.187c248.27 45.603 432.15 254.073 465.95 516.526l3.67 51.101.06 1388.14c0 14-2.17 24.12-12.62 29.2-8.67 4.21-20.76 4.07-29.49-3.96-6.69-6.18-6.69-18.47-6.69-29.92l-.64-1388.44c-.03-52.98-14.98-105.794-31-154.019-64.87-195.313-231.46-333.715-425.82-357.757-87.2-10.792-177.83.772-259.21 35.42-113.07 48.108-207.121 134.867-266.857 246.604-28.312 52.978-49.335 107.173-59.602 166.705l-7.223 41.857v.02Z"/>
  <path fill="#AE3028" d="m863.988 1051.01 2.178-16.16c.022 5.93-.978 11.22-2.178 16.16Z"/>
  <path fill="#CE2227" d="M1658.65 2074.6c-30.72 60.24-65.43 115.79-106.85 168.04-22.16 27.98-45.72 51.57-73.3 72.88-64.24 49.65-149.36 36.92-203.03-19.43l-48.98-51.48c-72.2-91.84-128.6-195.48-164.07-308.85-22.8-72.9-30.71-148.45-16.55-222.99 3.82-20.18 10.35-37.81 18.11-56.16 20.91-49.56 60.04-84.23 110-99.91 32.94-10.33 68.67-7.33 102.54 1.33 52.62 13.41 103.96 18.75 158.07 12.92l50.71-9.53c37.76-7.09 74.14-15.63 112.19-6.55 42.67 10.18 79.02 37.34 102.8 76.15 14.82 24.19 26.78 50.5 31.11 78.99l6.74 44.25.26 58.68-2.37 25.45-9.74 55.2c-15.64 63.84-38.09 122.98-67.64 180.97v.04Zm-393.42-326.27 12.73-30.17c6.94-16.41 6.94-35.17-3.97-49.77-5.65-7.54-15.72-12.36-24.52-11.45-6.93.7-16.04 6.58-21 14.11-8.86 13.58-9.4 33.18-2.4 47.93l15.6 32.91c1.69 3.58 10.07 6.27 13.4 5.15 2.91-.98 8.67-5.15 10.18-8.73l-.02.02Zm260.68 10.26c10.89-2.98 15.13-17.44 19.29-25.43 6.89-13.22 8.93-24.67 9.75-39.94 1.05-19.59-13.2-38.62-33.31-35.65-26.09 3.86-32.22 41.27-17.78 73.02 4.45 9.76 9.69 26.26 22.05 28Zm133.91 63.2c1.07-10.91-5.33-24.41-13.06-30.78-9.18-7.56-19.74-7.91-30.03-2.88-37.24 18.17-5.98 97.69 14.11 96.94 11.69-.42 26.58-38.46 28.98-63.28Zm-512.28 59.93 8.73-6.6c16.13-29.28 30.16-70.2 1.47-84.13-15.12-7.33-32.25 4.3-34.63 21.81-3.02 22.43 7.34 53.52 24.43 68.92Zm236.41 16.88c11.95 10.49 32.66-29.8 34.69-62.22.82-13.25-4.18-24.11-13.85-32.42-8.47-7.29-21.76-7.75-31.93-1.43-17.74 10.98-16.12 37.62-9.03 61.45 4.05 13.58 8.34 24.28 20.12 34.62Zm-125.37 153.81c18.98-20.06 29.54-51.27 23.47-74.28-3.69-13.95-16.26-21-28.98-18.71-11.8 2.11-19.86 13.35-20.4 27.81-.89 24.05 7.36 48.68 25.91 65.18Zm269.53-10.82 12.91-32.35c5.89-14.77 3.13-33.94-8-45.13-7.65-7.68-20.4-6.7-28.38-1.43-29.11 19.24-.05 90.31 15.07 86.92 2.55-.59 7.04-4.68 8.37-8.03l.03.02Zm-129.65 166.24 15.4-33.24c5.13-11.1 5.4-26.74 2.64-38.49-3.38-14.47-15.15-22.5-27.84-23.15-10.91-.59-23.07 7.37-27.67 20.62-2.6 7.54-3.36 23.25-1.05 31.54 5.38 19.24 16.94 47.24 29.05 48.11 2.56.18 8.33-2.95 9.47-5.37v-.02Z"/>
  <path fill="#CD2427" d="m1389.66 1086.5-8.21-39.33-8.95-30.62c-10.67-36.429-42.65-64.662-78.23-75.36l-33.31-10.043 30.85-9.856c68.53-21.865 85.29-72.057 96.56-145.917 6.73 7.866 4.02 19.36 6.89 28.959l10.53 35.373c6.69 22.52 19.09 42.302 36.44 57.285 22.12 19.126 48.25 24.908 76.92 33.687-56.76 16.107-89.12 29.591-111.56 86.522-8.56 21.7-12.09 43.05-17.91 69.27l-.02.03Z"/>
  <path fill="#CE2327" d="M1312.39 1522c-21.72 1.92-40.41-3.67-60.38-9.97-43.12-13.6-79.16-44.29-101.21-85.68-7.24-13.61-12.22-27.09-13.71-42.92 99.2-13.99 178.23 42.12 217.85 134.8l-42.58 3.75.03.02Zm209.14-8.68c-32.03 12.5-64.76 11.51-99.16 4.82 10.24-22.24 22.26-41.74 36.51-61.24l21.87-23.27c34.89-37.13 95.71-57.78 147.14-51.74l9.57 1.12c9.81 1.15-11.42 80.96-88.73 119.72l-27.16 10.61-.04-.02Zm109.45-354.69c-39.01 14.72-40.98 22.49-55.03 59.25-6.53-32.19-23.18-51.9-54.87-59.47 29.6-8.26 47.25-26.75 55.14-59.13l13.2 31.23c10.67 13.13 24.93 20.48 41.58 28.12h-.02Z"/>
  <path fill="#CD2227" d="M1430.35 1384.93c-.71 24-21.8 80.07-41.47 104.32-44.85-62.48-57.51-145.66-26.87-217.58 6.73-15.82 15.02-28.96 28.58-40.68 27.98 33.8 42.02 76.24 40.76 119.86l-1 34.11v-.03Z"/>
  <path fill="#B13029" d="M1265.23 1748.33c-1.51 3.58-7.27 7.75-10.18 8.73-3.34 1.13-11.71-1.59-13.4-5.15l-15.6-32.91c-7-14.75-6.47-34.34 2.4-47.92 4.93-7.56 14.06-13.42 21-14.12 8.8-.91 18.87 3.91 24.51 11.45 10.91 14.58 10.91 33.36 3.98 49.77l-12.74 30.18.03-.03Zm-12.6 5.29c17.66-18.61 25.2-41.43 24.22-64.37-.71-16.84-13.27-28.31-27.25-27.11-14.91 1.28-22.93 16.06-22.31 31.32.45 10.88 1.4 20.3 5.29 29.87 4.62 11.45 9.11 23.72 20.05 30.29Z"/>
  <path fill="#B6332B" d="M1659.82 1821.79c-2.4 24.82-17.29 62.86-28.98 63.28-20.09.75-51.36-78.77-14.11-96.94 10.29-5.01 20.85-4.68 30.02 2.88 7.74 6.37 14.12 19.87 13.07 30.78Zm-27.89 59.42c15.98-20.84 23.73-43.78 22.22-68.12-.8-12.93-9.84-20.54-19.97-23.11-8.89-2.25-22.76 3.04-26.23 13.51-6.82 20.48-1.53 41.11 7.58 59.23 4.07 8.1 7.71 16.38 16.4 18.47v.02Z"/>
  <path fill="#AE3129" d="M1398.46 2207.83c-1.14 2.44-6.92 5.55-9.47 5.36-12.09-.86-23.67-28.84-29.05-48.11-2.31-8.31-1.55-23.99 1.05-31.53 4.58-13.25 16.73-21.21 27.67-20.62 12.68.67 24.46 8.7 27.84 23.15 2.76 11.75 2.49 27.39-2.64 38.49l-15.4 33.24v.02Zm-10.43 1.71c14.36-13.65 18.85-29.43 24.23-46.28 2.37-9.04 2.2-17.96-.16-26.76-3.6-13.53-13.13-18.73-27.22-17.79-15.03.98-22.91 17.16-21.96 33.62 1.25 21.35 9.91 41.6 25.11 57.23v-.02Z"/>
  <path fill="#B13029" d="M1525.9 1758.59c-12.33-1.74-17.6-18.24-22.04-28-14.45-31.75-8.31-69.13 17.78-73.02 20.13-3 34.38 16.06 33.31 35.65-.82 15.27-2.87 26.69-9.76 39.94-4.15 8.01-8.4 22.45-19.29 25.43Zm3.18-6.89c11.78-15.78 18.58-33.87 21.2-53.21 2.45-18.05-6.98-36.4-24.89-36.66-16.24-.23-26.78 17.25-25.09 34.2 3.34 33.11 21.65 65.2 28.76 55.67h.02Z"/>
  <path fill="#B0342B" d="M1383.94 1898.6c-11.8-10.34-16.09-21.04-20.11-34.62-7.09-23.86-8.71-50.47 9.02-61.45 10.18-6.3 23.47-5.83 31.94 1.43 9.66 8.31 14.69 19.17 13.84 32.42-2.04 32.4-22.73 72.71-34.69 62.22Zm7.43-2.41c24.97-32.84 33.82-84.16 3.53-92.19-11.82-3.13-24.47 1.45-29 13.65-7.23 19.48-1.47 39.63 6.75 57.68 4.03 8.85 8.2 16.2 18.72 20.86Z"/>
</svg>
